<?xml version="1.0" encoding="utf-8"?>
<!-- Generator: Adobe Illustrator 26.2.1, SVG Export Plug-In . SVG Version: 6.00 Build 0)  -->
<svg version="1.1" id="icons" xmlns="http://www.w3.org/2000/svg" xmlns:xlink="http://www.w3.org/1999/xlink" x="0px" y="0px"
	 viewBox="0 0 288 288" style="enable-background:new 0 0 288 288;" xml:space="preserve">
<style type="text/css">
	.st0{fill:#575756;}
	.st1{fill-rule:evenodd;clip-rule:evenodd;fill:#575756;}
	.st2{clip-path:url(#SVGID_00000170269105327882922880000014811979769011299003_);fill:#575756;}
	.st3{clip-path:url(#SVGID_00000176003318274137898050000010575913985744027522_);fill:#575756;}
	.st4{clip-path:url(#SVGID_00000064340379770109493250000002175613382097392512_);fill:#575756;}
	.st5{opacity:0.2;}
	.st6{fill:#1D1D1B;}
	.st7{fill:#FFFFFF;}
	.st8{opacity:0.6;clip-path:url(#SVGID_00000146468445361637632620000010864560227616405947_);}
	.st9{fill:#E42222;}
</style>
<g>
	<g>
		<path class="st0" d="M110.98,151.98L97.52,129.8H58.89l32.76-25.09c34.63-26.59,25.27-79.75-26.96-79.57
			c-25.46,0-45.31,13.85-45.31,44.93h33.14c0-20.97,24.9-17.78,24.9-2.43c0,6.55-2.25,10.86-7.11,15.16l-52.79,46.24v30.14h93.46
			V151.98z"/>
		<path class="st0" d="M111.82,136.98h58.19v22.21h32.94v-22.21v-29.68V25.14h-41.51l-58.65,97L111.82,136.98z"/>
		<polygon class="st0" points="232.92,138.07 250.56,137.97 250.56,158.25 270.48,158.25 270.48,98.76 250.56,98.76 250.56,120.07 
			232.92,120.07 232.92,98.76 212.56,98.76 212.56,158.25 232.92,158.25 		"/>
		<g>
			<polygon class="st0" points="53.22,179.61 53.22,168.08 17.76,168.08 17.68,220.12 53.14,220.12 53.19,208.45 31.33,208.45 
				31.35,200.05 52.02,200.05 52,188.38 31.33,188.38 31.36,179.61 			"/>
			<polygon class="st0" points="100.8,168.08 88.03,186.96 75.23,168.08 61.32,168.08 61.24,220.12 75.22,220.12 75.25,191.21 
				86.01,207.41 89.88,207.41 100.69,190.94 100.64,220.12 114.62,220.12 114.7,168.08 			"/>
			<path class="st0" d="M123.11,168.08l-0.08,52.04h14.13l0.03-15.16c2.6,0,5.13,0,7.73,0c11.3,0,17.88-7.06,17.65-18.21
				c-0.21-8.85-3.62-18.66-18.49-18.66H123.11z M144.06,193.66h-6.84l0.03-13.9h6.84C151.45,179.75,150.38,193.66,144.06,193.66z"/>
			<polygon class="st0" points="168.01,168.08 167.93,220.12 203.01,220.12 203.05,207.93 182.08,207.93 182.13,168.08 			"/>
			<path class="st0" d="M250.6,187.71c-2.19-12.56-9.75-20.97-22.16-20.97c-17.99,0-25.61,14.72-22.35,33.45
				c2.21,12.71,9.93,21.19,22.2,21.19C245.99,221.38,253.94,206.89,250.6,187.71z M227.77,208.97c-5.08-0.15-7.3-4.76-8.07-10.48
				c-1.81-12.94,2.44-19.7,9.33-19.4c6.37,0.3,7.36,6.39,8,10.93C238.21,198.49,236.13,209.19,227.77,208.97z"/>
			<polygon class="st0" points="256.4,220.12 270.37,220.12 270.46,168.08 256.48,168.08 			"/>
		</g>
		<g>
			<polygon class="st0" points="40.11,236.64 40.09,229.29 17.76,229.29 17.7,262.07 26.55,262.07 26.56,249.75 39.06,249.75 
				39.09,242.4 26.59,242.4 26.62,236.64 			"/>
			<path class="st0" d="M56.89,228.45c-11.33,0-16.13,9.27-14.08,21.07c1.4,8.01,6.26,13.34,13.98,13.34
				c11.14,0,16.16-9.13,14.05-21.21C69.47,233.74,64.71,228.45,56.89,228.45z M56.47,255.05c-3.2-0.1-4.6-3-5.08-6.6
				c-1.14-8.15,1.54-12.41,5.88-12.22c4.01,0.19,4.64,4.03,5.04,6.88C63.04,248.44,61.74,255.19,56.47,255.05z"/>
			<path class="st0" d="M93.96,250.13c4.88-1.83,7.38-6.56,6.45-11.89c-0.8-4.59-4.04-8.94-11.86-8.94H75.39l-0.05,32.77h9.04
				l0.01-10.96h1.59l6.12,10.96h8.85l0-0.56L93.96,250.13z M88.58,244h-4.36l0.03-7.35h4.31C93.01,236.64,92.33,244,88.58,244z"/>
			<polygon class="st0" points="129.43,229.29 121.38,241.19 113.32,229.29 104.56,229.29 104.51,262.07 113.31,262.07 
				113.33,243.85 120.11,254.06 122.55,254.06 129.35,244.02 129.33,262.07 138.13,262.07 138.18,229.29 			"/>
			<path class="st0" d="M160.32,228.96h-7.73l-12.17,32.26l0.01,0.84h8.9l1.81-4.96h10.77l1.8,4.96h8.66l-0.01-0.84L160.32,228.96z
				 M153.6,249.8l1.66-5.52l1.22-5.1l1.18,5.15l1.75,5.48H153.6z"/>
			<polygon class="st0" points="168.59,236.64 177.06,236.64 176.99,262.07 185.8,262.07 185.86,236.64 194.39,236.64 
				194.42,229.29 168.62,229.29 			"/>
			<polygon class="st0" points="197.73,262.07 206.54,262.07 206.59,229.29 197.79,229.29 			"/>
			<path class="st0" d="M224.33,228.45c-11.33,0-16.13,9.27-14.08,21.07c1.4,8.01,6.26,13.34,13.99,13.34
				c11.14,0,16.16-9.13,14.05-21.21C236.91,233.74,232.15,228.45,224.33,228.45z M223.91,255.05c-3.2-0.1-4.6-3-5.09-6.6
				c-1.14-8.15,1.54-12.41,5.88-12.22c4.01,0.19,4.63,4.03,5.04,6.88C230.48,248.44,229.17,255.19,223.91,255.05z"/>
			<polygon class="st0" points="261.55,252.83 262.32,250.04 262.13,250.04 263.28,249.94 251.63,229.29 242.5,229.29 
				242.45,262.07 251.25,262.07 251.27,240.47 250.38,242.54 250.62,242.54 249.48,241.59 261.32,262.07 270.4,262.07 
				270.46,229.29 261.56,229.29 			"/>
		</g>
	</g>
	<g>
		<g class="st5">
			<g>
				<path class="st6" d="M178.64,124.53L128.73,89.4l51.07,33.43C180.93,123.61,179.8,125.3,178.64,124.53L178.64,124.53z"/>
			</g>
		</g>
		<g>
			<rect x="168.9" y="54.17" class="st7" width="2.58" height="72.78"/>
		</g>
		<g class="st5">
			<g>
				<g>
					<rect x="165.18" y="56.74" class="st6" width="2.58" height="72.78"/>
				</g>
			</g>
			<g>
				<g>
					<rect x="137.75" y="114.05" class="st6" width="37.05" height="2.58"/>
				</g>
			</g>
			<g>
				<g>
					<rect x="176.32" y="114.05" class="st6" width="1.5" height="2.58"/>
				</g>
			</g>
		</g>
		<g>
			<rect x="141.46" y="111.49" class="st7" width="37.05" height="2.58"/>
		</g>
		<g>
			<rect x="180.03" y="111.49" class="st7" width="1.5" height="2.58"/>
		</g>
		<g>
			<defs>
				<rect id="SVGID_00000022545233630725907530000001274065712056827553_" x="163.73" y="111.45" width="10.19" height="5.13"/>
			</defs>
			<clipPath id="SVGID_00000031204409735915666100000000140260530313562808_">
				<use xlink:href="#SVGID_00000022545233630725907530000001274065712056827553_"  style="overflow:visible;"/>
			</clipPath>
			<g style="opacity:0.6;clip-path:url(#SVGID_00000031204409735915666100000000140260530313562808_);">
				<g>
					<polygon class="st6" points="180.14,122.51 130.37,87.16 181.59,120.38 182.67,121.08 181.19,123.25 180.14,122.51 					"/>
				</g>
			</g>
		</g>
		<g>
			<path class="st9" d="M181.46,121.47L131.4,86.55l50.93,33.64C183.17,120.76,182.32,122.04,181.46,121.47L181.46,121.47z"/>
		</g>
		<g>
			<circle class="st6" cx="170.21" cy="112.77" r="1.18"/>
		</g>
	</g>
</g>
<g>
	<path class="st7" d="M30.63,146.98l-0.15,0.63c-0.34,1.54,0.34,1.65,2.82,1.65c2.44,0,2.87-0.43,3.21-1.99
		c0.43-1.92-0.69-1.66-2.76-1.77c-2.97-0.18-5.39-0.07-4.51-3.97c0.8-3.69,3.26-3.79,6.62-3.79c2.85,0,5.17,0.09,4.38,3.62
		l-0.09,0.43h-2.69l0.09-0.43c0.32-1.45-0.28-1.5-2.16-1.5c-2.67,0-3.15,0.25-3.47,1.68c-0.37,1.65-0.04,1.7,2.67,1.86
		c4.25,0.25,5.37,0.47,4.61,3.88c-0.82,3.78-2.76,4.1-6.36,4.1c-3.1,0-5.87,0.09-5.04-3.76l0.15-0.63H30.63z"/>
	<path class="st7" d="M43.36,148.71l-1.44,2.54h-2.78l7.61-13.42h3.95l1.77,13.42h-2.72l-0.35-2.54H43.36z M48.38,139.8h-0.04
		l-3.94,6.96h4.83L48.38,139.8z"/>
	<path class="st7" d="M57.1,149.05h6.53l-0.48,2.2h-9.21l2.97-13.42h2.69L57.1,149.05z"/>
	<path class="st7" d="M78.03,142.63l-0.78,3.62c-0.95,4.3-2.87,5.12-7.11,5.12c-4.33,0-5.76-0.72-4.77-5.12l0.78-3.62
		c0.93-4.17,2.57-4.9,7.01-4.9C77.19,137.73,79,138.32,78.03,142.63z M68.83,142.63l-0.78,3.62c-0.6,2.67-0.11,2.92,2.57,2.92
		c2.44,0,3.36-0.32,3.94-2.92l0.78-3.62c0.62-2.52-0.28-2.7-2.67-2.7C69.78,139.93,69.37,140.5,68.83,142.63z"/>
	<path class="st7" d="M91.6,137.83h2.69l-2.97,13.42h-4.46l-3.47-11.22H83.3l-2.26,11.22h-2.69l2.97-13.42h4.44l3.51,11.22h0.07
		L91.6,137.83z"/>
</g>
</svg>
