<?xml version="1.0" encoding="UTF-8" standalone="no"?>
<!-- Generator: Adobe Illustrator 22.0.1, SVG Export Plug-In . SVG Version: 6.00 Build 0)  -->

<svg
		xmlns:dc="http://purl.org/dc/elements/1.1/"
		xmlns:cc="http://creativecommons.org/ns#"
		xmlns:rdf="http://www.w3.org/1999/02/22-rdf-syntax-ns#"
		xmlns:svg="http://www.w3.org/2000/svg"
		xmlns="http://www.w3.org/2000/svg"
		xmlns:xlink="http://www.w3.org/1999/xlink"
		xmlns:sodipodi="http://sodipodi.sourceforge.net/DTD/sodipodi-0.dtd"
		xmlns:inkscape="http://www.inkscape.org/namespaces/inkscape"
		version="1.1"
		id="Calque_1"
		x="0px"
		y="0px"
		viewBox="0 0 550 360"
		style="enable-background:new 0 0 550 360;"
		xml:space="preserve"
		sodipodi:docname="carte_france_site.svg"
		inkscape:version="0.92.4 (5da689c313, 2019-01-14)"><metadata
   id="metadata324"><rdf:RDF><cc:Work
       rdf:about=""><dc:format>image/svg+xml</dc:format><dc:type
		rdf:resource="http://purl.org/dc/dcmitype/StillImage" /></cc:Work></rdf:RDF></metadata><defs
		id="defs322"><linearGradient
     id="linearGradient459"
     gradientUnits="userSpaceOnUse"
     x1="204.39999"
     y1="226.74159"
     x2="204.39999"
     y2="154.6248"
     gradientTransform="matrix(1,0,0,-1,0,360.7874)"><stop
       offset="0"
       style="stop-color:#FF0000"
       id="stop184-1" /><stop
		offset="1"
		style="stop-color:#C20000"
		id="stop186-9" /></linearGradient><radialGradient
		id="SVGID_20_-8"
		cx="202.8441"
		cy="282.14279"
		r="60.872002"
		gradientTransform="matrix(1,0,0,-1.0718,0,417.2733)"
		gradientUnits="userSpaceOnUse"><stop
       offset="0"
       style="stop-color:#FFFFFF;stop-opacity:0"
       id="stop191-6" /><stop
		offset="1"
		style="stop-color:#FFFFFF"
		id="stop193-1" /></radialGradient><linearGradient
		inkscape:collect="always"
		xlink:href="#SVGID_19_"
		id="linearGradient476"
		gradientUnits="userSpaceOnUse"
		gradientTransform="matrix(1,0,0,-1,0,360.7874)"
		x1="204.4"
		y1="226.7416"
		x2="204.4"
		y2="154.6248" /><radialGradient
		inkscape:collect="always"
		xlink:href="#SVGID_20_"
		id="radialGradient478"
		gradientUnits="userSpaceOnUse"
		gradientTransform="matrix(1,0,0,-1.0718,0,417.2733)"
		cx="202.8441"
		cy="282.1428"
		r="60.872" /><linearGradient
		id="linearGradient4212"
		gradientUnits="userSpaceOnUse"
		x1="153.39999"
		y1="178.24159"
		x2="153.39999"
		y2="106.1248"
		gradientTransform="matrix(1,0,0,-1,0,360.7874)"><stop
       offset="0"
       style="stop-color:#FF0000"
       id="stop204-2" /><stop
		offset="1"
		style="stop-color:#C20000"
		id="stop206-5" /></linearGradient><radialGradient
		id="SVGID_22_-1"
		cx="151.8441"
		cy="236.8918"
		r="60.872002"
		gradientTransform="matrix(1,0,0,-1.0718,0,417.2733)"
		gradientUnits="userSpaceOnUse"><stop
       offset="0"
       style="stop-color:#FFFFFF;stop-opacity:0"
       id="stop211-3" /><stop
		offset="1"
		style="stop-color:#FFFFFF"
		id="stop213-3" /></radialGradient><linearGradient
		inkscape:collect="always"
		xlink:href="#SVGID_21_"
		id="linearGradient4226"
		gradientUnits="userSpaceOnUse"
		gradientTransform="matrix(1,0,0,-1,0,360.7874)"
		x1="153.4"
		y1="178.2416"
		x2="153.4"
		y2="106.1248" /><radialGradient
		inkscape:collect="always"
		xlink:href="#SVGID_22_"
		id="radialGradient4228"
		gradientUnits="userSpaceOnUse"
		gradientTransform="matrix(1,0,0,-1.0718,0,417.2733)"
		cx="151.8441"
		cy="236.8918"
		r="60.872" /></defs><sodipodi:namedview
		pagecolor="#ffffff"
		bordercolor="#666666"
		borderopacity="1"
		objecttolerance="10"
		gridtolerance="10"
		guidetolerance="10"
		inkscape:pageopacity="0"
		inkscape:pageshadow="2"
		inkscape:window-width="1736"
		inkscape:window-height="582"
		id="namedview320"
		showgrid="false"
		inkscape:zoom="1.8541911"
		inkscape:cx="126.89977"
		inkscape:cy="137.13069"
		inkscape:window-x="19"
		inkscape:window-y="86"
		inkscape:window-maximized="0"
		inkscape:current-layer="Calque_1" />
	<style
			type="text/css"
			id="style2">
	.st0{clip-path:url(#SVGID_2_);}
	.st1{fill:url(#SVGID_3_);}
	.st2{fill:url(#SVGID_4_);}
	.st3{fill:#818181;}
	.st4{fill:url(#SVGID_5_);}
	.st5{fill:url(#SVGID_6_);}
	.st6{fill:url(#SVGID_7_);}
	.st7{fill:url(#SVGID_8_);}
	.st8{fill:url(#SVGID_9_);}
	.st9{fill:url(#SVGID_10_);}
	.st10{fill:url(#SVGID_11_);}
	.st11{fill:url(#SVGID_12_);}
	.st12{fill:url(#SVGID_13_);}
	.st13{fill:url(#SVGID_14_);}
	.st14{fill:url(#SVGID_15_);}
	.st15{fill:url(#SVGID_16_);}
	.st16{fill:url(#SVGID_17_);}
	.st17{fill:url(#SVGID_18_);}
	.st18{fill:url(#SVGID_19_);}
	.st19{fill:url(#SVGID_20_);}
	.st20{fill:url(#SVGID_21_);}
	.st21{fill:url(#SVGID_22_);}
	.st22{fill:url(#SVGID_23_);}
	.st23{fill:url(#SVGID_24_);}
	.st24{fill:url(#SVGID_25_);}
	.st25{fill:url(#SVGID_26_);}
	.st26{fill:url(#SVGID_27_);}
	.st27{fill:url(#SVGID_28_);}
	.st28{fill:url(#SVGID_29_);}
	.st29{fill:url(#SVGID_30_);}
	.st30{fill:url(#SVGID_31_);}
	.st31{fill:url(#SVGID_32_);}
		<!-- the above is used to have the red grandiant on points -->
		.point{fill:transparent;}
		[id^=p_]{display:none;}
</style>
	<g
			id="visu">
	<g
			id="g34">
		<g
				id="g32">
			<g
					id="g30">
				<defs
						id="defs5">
					<rect
							id="SVGID_1_"
							y="0.3"
							width="550"
							height="359.4" />
				</defs>
				<clipPath
						id="SVGID_2_">
					<use
							xlink:href="#SVGID_1_"
							style="overflow:visible;"
							id="use7" />
				</clipPath>
				<g
						class="st0"
						clip-path="url(#SVGID_2_)"
						id="g28">
					<g
							id="g19">
						<g
								id="g17">

								<linearGradient
										id="SVGID_3_"
										gradientUnits="userSpaceOnUse"
										x1="-2238.5903"
										y1="89.8944"
										x2="-2235.6167"
										y2="89.8944"
										gradientTransform="matrix(159.7617 -138.5222 -138.5222 -159.7617 370198.4375 -295248.2813)">
								<stop
										offset="0.3865"
										style="stop-color:#FFFFFF"
										id="stop10" />
									<stop
											offset="0.9264"
											style="stop-color:#C3C9CA"
											id="stop12" />
							</linearGradient>
							<polygon
									class="st1"
									points="404.7,116.6 386.6,116.3 342.3,71 328.2,69.7 320.1,50.5 284.1,61.9 282.7,101.7 225.2,134.9          231.3,147.1 212.2,154.9 178.7,148 169.9,129.7 149.1,129.3 165.6,191.7 129.7,185.2 113.2,193.7 100.7,175.2 37,188.5          38.5,203.9 35.1,211.1 43.3,229.7 101.1,248.9 136,283.5 135.5,306.2 163.8,332 181.7,402.6 170.1,398 130.9,500.3          233.8,546.8 244,538.1 296.3,567.2 341.3,560.5 341.8,519.2 386.1,498.1 471.7,521.6 537.6,461 492.2,401.7 513.4,384.4          493.1,325.3 464.4,321.3 499.7,254.7 516.2,252.9 539.2,165.5 436.7,142.7        "
									id="polygon15" />
						</g>
					</g>

					<linearGradient
							id="SVGID_4_"
							gradientUnits="userSpaceOnUse"
							x1="484.6967"
							y1="1478.3756"
							x2="61.5358"
							y2="1874.6244"
							gradientTransform="matrix(1 0 0 1 0 -1338.7874)">
						<stop
								offset="0"
								style="stop-color:#FFFFFF"
								id="stop21" />
						<stop
								offset="1"
								style="stop-color:#DCE1D6"
								id="stop23" />
					</linearGradient>
					<path
							class="st2"
							d="M296,568.6l-0.4-0.2l-51.4-28.6l-10.1,8.6L129.2,501l40.1-104.8l10.4,4.1l-17.1-67.6l-28.5-25.9l0.5-22.7       l-34.2-33.9l-58.1-19.3L33.6,211l3.5-7.4l-1.6-16.2l65.8-13.8l12.3,18.2l15.8-8.1l34.3,6.2l-16.4-62.1l23.5,0.4l8.9,18.4       l32.4,6.7l17.4-7.1l-6-12l58-33.5l1.4-40l38.1-12l8.2,19.5l13.8,1.3l44.3,45.2l18,0.2l32.1,26.3l103.6,23L517.4,254l-16.7,1.8       l-34,64.2l27.6,3.8l20.9,60.8l-20.9,17.1l45.4,59.2l-67.4,62l-85.9-23.5l-43,20.5l-0.5,41.7L296,568.6z M243.8,536.4l52.7,29.3       l43.3-6.4l0.5-41.1l45.5-21.6l85.4,23.4l64.4-59.2l-45.5-59.3l21.5-17.6l-19.7-57.3l-29.9-4.1l36.6-69l16.3-1.8l22.4-85.1       L436.1,144l-31.9-26.1l-18.2-0.2l-44.4-45.3L327.2,71l-7.9-18.7L285.4,63l-1.3,39.6l-57,33l6.1,12.4l-20.9,8.5l-34.5-7.2       L169,131l-18.1-0.3l16.6,62.8l-37.6-6.8l-17.2,8.8L100,176.7l-61.6,12.9l1.4,14.5l-3.3,6.9l7.7,17.5l57.6,19.1l35.5,35.2       l-0.5,22.7l28.2,25.6l0.1,0.4l18.5,73.3l-12.8-5.1l-38.2,99.8l100.9,45.6L243.8,536.4z"
							id="path26" />
				</g>
			</g>
		</g>
	</g>
</g>
	<g
			id="c_lomme">
	<circle
			class="point"
			cx="338.9"
			cy="92.2"
			r="12"
			id="circle37" />
		<circle
				class="st3"
				cx="338.9"
				cy="92.2"
				r="5"
				id="circle39" />
</g>
	<g
			id="p_lomme">

		<linearGradient
				id="SVGID_5_"
				gradientUnits="userSpaceOnUse"
				x1="338.9"
				y1="299.5121"
				x2="338.9"
				y2="227.3952"
				gradientTransform="matrix(1 0 0 -1 0 360.7874)">
		<stop
				offset="0"
				style="stop-color:#FF0000"
				id="stop42" />
			<stop
					offset="1"
					style="stop-color:#C20000"
					id="stop44" />
	</linearGradient>
		<path
				class="st4"
				d="M349,75.8c1.8-2.2,2.8-5,2.8-8.1c0-7.1-5.8-12.9-12.9-12.9S326,60.6,326,67.7c0,2.9,0.9,5.5,2.5,7.6L339,91.9   L349,75.8z"
				id="path47" />

		<radialGradient
				id="SVGID_6_"
				cx="337.35"
				cy="350.0376"
				r="60.872"
				gradientTransform="matrix(1 0 0 -1.0718 0 417.2733)"
				gradientUnits="userSpaceOnUse">
		<stop
				offset="0"
				style="stop-color:#FFFFFF;stop-opacity:0"
				id="stop49" />
			<stop
					offset="1"
					style="stop-color:#FFFFFF"
					id="stop51" />
	</radialGradient>
		<path
				class="st5"
				d="M347.2,75.9c1.5-1.9,2.3-4.4,2.3-7.1c0-6.3-4.7-11.4-10.6-11.4s-10.6,5.1-10.6,11.4c0,2.5,0.8,4.8,2.1,6.7   L339,90L347.2,75.9z"
				id="path54" />
</g>
	<g
			id="c_boulogne">
	<circle
			class="point"
			cx="290"
			cy="70.2"
			r="12"
			id="circle57" />
		<circle
				class="st3"
				cx="290"
				cy="70.2"
				r="5"
				id="circle59" />
</g>
	<g
			id="p_boulogne">

		<linearGradient
				id="SVGID_7_"
				gradientUnits="userSpaceOnUse"
				x1="290"
				y1="320.5151"
				x2="290"
				y2="248.3982"
				gradientTransform="matrix(1 0 0 -1 0 360.7874)">
		<stop
				offset="0"
				style="stop-color:#FF0000"
				id="stop62" />
			<stop
					offset="1"
					style="stop-color:#C20000"
					id="stop64" />
	</linearGradient>
		<path
				class="st6"
				d="M300.1,54.8c1.8-2.2,2.8-5,2.8-8.1c0-7.1-5.8-12.9-12.9-12.9s-12.9,5.8-12.9,12.9c0,2.9,0.9,5.5,2.5,7.6   l10.5,16.5L300.1,54.8z"
				id="path67" />

		<radialGradient
				id="SVGID_8_"
				cx="288.45"
				cy="369.6333"
				r="60.872"
				gradientTransform="matrix(1 0 0 -1.0718 0 417.2733)"
				gradientUnits="userSpaceOnUse">
		<stop
				offset="0"
				style="stop-color:#FFFFFF;stop-opacity:0"
				id="stop69" />
			<stop
					offset="1"
					style="stop-color:#FFFFFF"
					id="stop71" />
	</radialGradient>
		<path
				class="st7"
				d="M298.3,54.9c1.5-1.9,2.3-4.4,2.3-7.1c0-6.3-4.7-11.4-10.6-11.4s-10.6,5.1-10.6,11.4c0,2.5,0.8,4.8,2.1,6.7   l8.6,14.5L298.3,54.9z"
				id="path74" />
</g>
	<g
			id="c_arras_st_laurent_blangy">
	<circle
			class="point"
			cx="321.6"
			cy="109.5"
			r="12"
			id="circle77" />
		<circle
				class="st3"
				cx="321.6"
				cy="109.5"
				r="5"
				id="circle79" />
</g>
	<g
			id="p_arras_st_laurent_blangy">

		<linearGradient
				id="SVGID_9_"
				gradientUnits="userSpaceOnUse"
				x1="321.8"
				y1="282.9339"
				x2="321.8"
				y2="210.8171"
				gradientTransform="matrix(1 0 0 -1 0 360.7874)">
		<stop
				offset="0"
				style="stop-color:#FF0000"
				id="stop82" />
			<stop
					offset="1"
					style="stop-color:#C20000"
					id="stop84" />
	</linearGradient>
		<path
				class="st8"
				d="M331.9,92.4c1.8-2.2,2.8-5,2.8-8.1c0-7.1-5.8-12.9-12.9-12.9s-12.9,5.8-12.9,12.9c0,2.9,0.9,5.5,2.5,7.6   l10.5,16.5L331.9,92.4z"
				id="path87" />

		<radialGradient
				id="SVGID_10_"
				cx="320.2646"
				cy="334.5702"
				r="60.872"
				gradientTransform="matrix(1 0 0 -1.0718 0 417.2733)"
				gradientUnits="userSpaceOnUse">
		<stop
				offset="0"
				style="stop-color:#FFFFFF;stop-opacity:0"
				id="stop89" />
			<stop
					offset="1"
					style="stop-color:#FFFFFF"
					id="stop91" />
	</radialGradient>
		<path
				class="st9"
				d="M330.1,92.4c1.5-1.9,2.3-4.4,2.3-7.1c0-6.3-4.7-11.4-10.6-11.4s-10.6,5.1-10.6,11.4c0,2.5,0.8,4.8,2.1,6.7   l8.6,14.5L330.1,92.4z"
				id="path94" />
</g>
	<g
			id="c_dunkerque">
	<circle
			class="point"
			cx="315.1"
			cy="59.8"
			r="12"
			id="circle97" />
		<circle
				class="st3"
				cx="315.1"
				cy="59.8"
				r="5"
				id="circle99" />
</g>
	<g
			id="p_dunkerque">
	<g
			id="g116">

			<linearGradient
					id="SVGID_11_"
					gradientUnits="userSpaceOnUse"
					x1="315.1"
					y1="1367.0353"
					x2="315.1"
					y2="1438.7107"
					gradientTransform="matrix(1 0 0 1 0 -1338.7874)">
			<stop
					offset="0"
					style="stop-color:#FF0000"
					id="stop102" />
				<stop
						offset="1"
						style="stop-color:#C20000"
						id="stop104" />
		</linearGradient>
		<path
				class="st10"
				d="M325.1,42.7c1.8-2.2,2.8-5,2.8-8c0-7.1-5.8-12.8-12.8-12.8c-7.1,0-12.8,5.8-12.8,12.8c0,2.8,0.9,5.5,2.5,7.6    l10.5,16.4L325.1,42.7z"
				id="path107" />

		<radialGradient
				id="SVGID_12_"
				cx="313.513"
				cy="1292.5503"
				r="60.4994"
				gradientTransform="matrix(1 0 0 1.0718 0 -1376.1617)"
				gradientUnits="userSpaceOnUse">
			<stop
					offset="0"
					style="stop-color:#FFFFFF;stop-opacity:0"
					id="stop109" />
			<stop
					offset="1"
					style="stop-color:#FFFFFF"
					id="stop111" />
		</radialGradient>
		<path
				class="st11"
				d="M323.3,42.7c1.4-1.9,2.3-4.4,2.3-7c0-6.2-4.7-11.3-10.5-11.3s-10.5,5.1-10.5,11.3c0,2.5,0.8,4.8,2,6.7    l8.6,14.4L323.3,42.7z"
				id="path114" />
	</g>
</g>
	<g
			id="c_valenciennes_anzin">
	<circle
			class="point"
			cx="368.6"
			cy="113"
			r="12"
			id="circle119" />
		<circle
				class="st3"
				cx="368.6"
				cy="113"
				r="5"
				id="circle121" />
</g>
	<g
			id="p_valenciennes_anzin">

		<linearGradient
				id="SVGID_13_"
				gradientUnits="userSpaceOnUse"
				x1="368.6"
				y1="279.6714"
				x2="368.6"
				y2="207.5545"
				gradientTransform="matrix(1 0 0 -1 0 360.7874)">
		<stop
				offset="0"
				style="stop-color:#FF0000"
				id="stop124" />
			<stop
					offset="1"
					style="stop-color:#C20000"
					id="stop126" />
	</linearGradient>
		<path
				class="st12"
				d="M378.7,95.7c1.8-2.2,2.8-5,2.8-8.1c0-7.1-5.8-12.9-12.9-12.9s-12.9,5.8-12.9,12.9c0,2.9,0.9,5.5,2.5,7.6   l10.5,16.5L378.7,95.7z"
				id="path129" />

		<radialGradient
				id="SVGID_14_"
				cx="367.05"
				cy="331.5262"
				r="60.872"
				gradientTransform="matrix(1 0 0 -1.0718 0 417.2733)"
				gradientUnits="userSpaceOnUse">
		<stop
				offset="0"
				style="stop-color:#FFFFFF;stop-opacity:0"
				id="stop131" />
			<stop
					offset="1"
					style="stop-color:#FFFFFF"
					id="stop133" />
	</radialGradient>
		<path
				class="st13"
				d="M376.9,95.7c1.5-1.9,2.3-4.4,2.3-7.1c0-6.3-4.7-11.4-10.6-11.4S358,82.3,358,88.6c0,2.5,0.8,4.8,2.1,6.7   l8.6,14.5L376.9,95.7z"
				id="path136" />
</g>
	<g
			id="c_rouen">
	<circle
			class="point"
			cx="265"
			cy="148.4"
			r="12"
			id="circle139" />
		<circle
				class="st3"
				cx="265"
				cy="148.4"
				r="5"
				id="circle141" />
</g>
	<g
			id="p_rouen">

		<linearGradient
				id="SVGID_15_"
				gradientUnits="userSpaceOnUse"
				x1="265.1"
				y1="243.0272"
				x2="265.1"
				y2="170.9103"
				gradientTransform="matrix(1 0 0 -1 0 360.7874)">
		<stop
				offset="0"
				style="stop-color:#FF0000"
				id="stop144" />
			<stop
					offset="1"
					style="stop-color:#C20000"
					id="stop146" />
	</linearGradient>
		<path
				class="st14"
				d="M275.2,132.3c1.8-2.2,2.8-5,2.8-8.1c0-7.1-5.8-12.9-12.9-12.9s-12.9,5.8-12.9,12.9c0,2.9,0.9,5.5,2.5,7.6   l10.5,16.5L275.2,132.3z"
				id="path149" />

		<radialGradient
				id="SVGID_16_"
				cx="263.5912"
				cy="297.3372"
				r="60.872"
				gradientTransform="matrix(1 0 0 -1.0718 0 417.2733)"
				gradientUnits="userSpaceOnUse">
		<stop
				offset="0"
				style="stop-color:#FFFFFF;stop-opacity:0"
				id="stop151" />
			<stop
					offset="1"
					style="stop-color:#FFFFFF"
					id="stop153" />
	</radialGradient>
		<path
				class="st15"
				d="M273.4,132.3c1.5-1.9,2.3-4.4,2.3-7.1c0-6.3-4.7-11.4-10.6-11.4s-10.6,5.1-10.6,11.4c0,2.5,0.8,4.8,2.1,6.7   l8.6,14.5L273.4,132.3z"
				id="path156" />
</g>
	<g
			id="c_evreux">
	<circle
			class="point"
			cx="270"
			cy="182.9"
			r="12"
			id="circle159" />
		<circle
				class="st3"
				cx="270"
				cy="182.9"
				r="5"
				id="circle161" />
</g>
	<g
			id="p_evreux">

		<linearGradient
				id="SVGID_17_"
				gradientUnits="userSpaceOnUse"
				x1="270.1"
				y1="208.5271"
				x2="270.1"
				y2="136.4102"
				gradientTransform="matrix(1 0 0 -1 0 360.7874)">
		<stop
				offset="0"
				style="stop-color:#FF0000"
				id="stop164" />
			<stop
					offset="1"
					style="stop-color:#C20000"
					id="stop166" />
	</linearGradient>
		<path
				class="st16"
				d="M280.2,166.8c1.8-2.2,2.8-5,2.8-8.1c0-7.1-5.8-12.9-12.9-12.9s-12.9,5.8-12.9,12.9c0,2.9,0.9,5.5,2.5,7.6   l10.5,16.5L280.2,166.8z"
				id="path169" />

		<radialGradient
				id="SVGID_18_"
				cx="268.5912"
				cy="265.1482"
				r="60.872"
				gradientTransform="matrix(1 0 0 -1.0718 0 417.2733)"
				gradientUnits="userSpaceOnUse">
		<stop
				offset="0"
				style="stop-color:#FFFFFF;stop-opacity:0"
				id="stop171" />
			<stop
					offset="1"
					style="stop-color:#FFFFFF"
					id="stop173" />
	</radialGradient>
		<path
				class="st17"
				d="M278.4,166.8c1.5-1.9,2.3-4.4,2.3-7.1c0-6.3-4.7-11.4-10.6-11.4s-10.6,5.1-10.6,11.4c0,2.5,0.8,4.8,2.1,6.7   l8.6,14.5L278.4,166.8z"
				id="path176" />
</g>
	<g
			id="c_caen">
	<circle
			class="point"
			cx="204.9"
			cy="165"
			r="12"
			id="circle179" />
		<circle
				class="st3"
				cx="204.9"
				cy="165"
				r="5"
				id="circle181" />
</g>
	<g
			id="p_caen">

		<linearGradient
				id="SVGID_19_"
				gradientUnits="userSpaceOnUse"
				x1="204.4"
				y1="226.7416"
				x2="204.4"
				y2="154.6248"
				gradientTransform="matrix(1 0 0 -1 0 360.7874)">
		<stop
				offset="0"
				style="stop-color:#FF0000"
				id="stop184" />
			<stop
					offset="1"
					style="stop-color:#C20000"
					id="stop186" />
	</linearGradient>
		<path
				class="st18"
				d="M214.5,148.6c1.8-2.2,2.8-5,2.8-8.1c0-7.1-5.8-12.9-12.9-12.9s-12.9,5.8-12.9,12.9c0,2.9,0.9,5.5,2.5,7.6   l10.5,16.5L214.5,148.6z"
				id="path189" />

		<radialGradient
				id="SVGID_20_"
				cx="202.8441"
				cy="282.1428"
				r="60.872"
				gradientTransform="matrix(1 0 0 -1.0718 0 417.2733)"
				gradientUnits="userSpaceOnUse">
		<stop
				offset="0"
				style="stop-color:#FFFFFF;stop-opacity:0"
				id="stop191" />
			<stop
					offset="1"
					style="stop-color:#FFFFFF"
					id="stop193" />
	</radialGradient>
		<path
				class="st19"
				d="M212.7,148.6c1.5-1.9,2.3-4.4,2.3-7.1c0-6.3-4.7-11.4-10.6-11.4c-5.9,0-10.6,5.1-10.6,11.4   c0,2.5,0.8,4.8,2.1,6.7l8.6,14.5L212.7,148.6z"
				id="path196" />
</g>
	<g
			id="c_rennes">
	<circle
			class="point"
			cx="153.9"
			cy="213.5"
			r="12"
			id="circle199" />
		<circle
				class="st3"
				cx="153.9"
				cy="213.5"
				r="5"
				id="circle201" />
</g>
	<g
			id="p_rennes">

		<linearGradient
				id="SVGID_21_"
				gradientUnits="userSpaceOnUse"
				x1="153.4"
				y1="178.2416"
				x2="153.4"
				y2="106.1248"
				gradientTransform="matrix(1 0 0 -1 0 360.7874)">
		<stop
				offset="0"
				style="stop-color:#FF0000"
				id="stop204" />
			<stop
					offset="1"
					style="stop-color:#C20000"
					id="stop206" />
	</linearGradient>
		<path
				class="st20"
				d="M163.5,197.1c1.8-2.2,2.8-5,2.8-8.1c0-7.1-5.8-12.9-12.9-12.9s-12.9,5.8-12.9,12.9c0,2.9,0.9,5.5,2.5,7.6   l10.5,16.5L163.5,197.1z"
				id="path209" />

		<radialGradient
				id="SVGID_22_"
				cx="151.8441"
				cy="236.8918"
				r="60.872"
				gradientTransform="matrix(1 0 0 -1.0718 0 417.2733)"
				gradientUnits="userSpaceOnUse">
		<stop
				offset="0"
				style="stop-color:#FFFFFF;stop-opacity:0"
				id="stop211" />
			<stop
					offset="1"
					style="stop-color:#FFFFFF"
					id="stop213" />
	</radialGradient>
		<path
				class="st21"
				d="M161.7,197.1c1.5-1.9,2.3-4.4,2.3-7.1c0-6.3-4.7-11.4-10.6-11.4c-5.9,0-10.6,5.1-10.6,11.4   c0,2.5,0.8,4.8,2.1,6.7l8.6,14.5L161.7,197.1z"
				id="path216" />
</g>
	<g
			id="c_le_havre">
	<circle
			class="point"
			cx="236.1"
			cy="139.6"
			r="12"
			id="circle219" />
		<circle
				class="st3"
				cx="236.1"
				cy="139.6"
				r="5"
				id="circle221" />
</g>
	<g
			id="p_le_havre">

		<linearGradient
				id="SVGID_23_"
				gradientUnits="userSpaceOnUse"
				x1="235.8"
				y1="252.3953"
				x2="235.8"
				y2="180.2785"
				gradientTransform="matrix(1 0 0 -1 0 360.7874)">
		<stop
				offset="0"
				style="stop-color:#FF0000"
				id="stop224" />
			<stop
					offset="1"
					style="stop-color:#C20000"
					id="stop226" />
	</linearGradient>
		<path
				class="st22"
				d="M245.9,123c1.8-2.2,2.8-5,2.8-8.1c0-7.1-5.8-12.9-12.9-12.9s-12.9,5.8-12.9,12.9c0,2.9,0.9,5.5,2.5,7.6   l10.5,16.5L245.9,123z"
				id="path229" />

		<radialGradient
				id="SVGID_24_"
				cx="234.2342"
				cy="306.0777"
				r="60.872"
				gradientTransform="matrix(1 0 0 -1.0718 0 417.2733)"
				gradientUnits="userSpaceOnUse">
		<stop
				offset="0"
				style="stop-color:#FFFFFF;stop-opacity:0"
				id="stop231" />
			<stop
					offset="1"
					style="stop-color:#FFFFFF"
					id="stop233" />
	</radialGradient>
		<path
				class="st23"
				d="M244.1,123c1.5-1.9,2.3-4.4,2.3-7.1c0-6.3-4.7-11.4-10.6-11.4c-5.9,0-10.6,5.1-10.6,11.4   c0,2.5,0.8,4.8,2.1,6.7l8.6,14.5L244.1,123z"
				id="path236" />
</g>
	<g
			id="c_amiens">
	<circle
			class="point"
			cx="291.2"
			cy="124.5"
			r="12"
			id="circle239" />
		<circle
				class="st3"
				cx="291.2"
				cy="124.5"
				r="5"
				id="circle241" />
</g>
	<g
			id="p_amiens">

		<linearGradient
				id="SVGID_25_"
				gradientUnits="userSpaceOnUse"
				x1="291.2"
				y1="266.7438"
				x2="291.2"
				y2="194.627"
				gradientTransform="matrix(1 0 0 -1 0 360.7874)">
		<stop
				offset="0"
				style="stop-color:#FF0000"
				id="stop244" />
			<stop
					offset="1"
					style="stop-color:#C20000"
					id="stop246" />
	</linearGradient>
		<path
				class="st24"
				d="M301.3,108.6c1.8-2.2,2.8-5,2.8-8.1c0-7.1-5.8-12.9-12.9-12.9s-12.9,5.8-12.9,12.9c0,2.9,0.9,5.5,2.5,7.6   l10.5,16.5L301.3,108.6z"
				id="path249" />

		<radialGradient
				id="SVGID_26_"
				cx="289.6494"
				cy="319.4648"
				r="60.872"
				gradientTransform="matrix(1 0 0 -1.0718 0 417.2733)"
				gradientUnits="userSpaceOnUse">
		<stop
				offset="0"
				style="stop-color:#FFFFFF;stop-opacity:0"
				id="stop251" />
			<stop
					offset="1"
					style="stop-color:#FFFFFF"
					id="stop253" />
	</radialGradient>
		<path
				class="st25"
				d="M299.5,108.6c1.5-1.9,2.3-4.4,2.3-7.1c0-6.3-4.7-11.4-10.6-11.4s-10.6,5.1-10.6,11.4c0,2.5,0.8,4.8,2.1,6.7   l8.6,14.5L299.5,108.6z"
				id="path256" />
</g>

	<g
			id="c_lorient">
	<circle
			class="point"
			cx="69.9"
			cy="235.5"
			r="12"
			id="circle259" />
		<circle
				class="st3"
				cx="69.9"
				cy="235.5"
				r="5"
				id="circle261" />
</g>
	<g
			id="p_lorient">
		<linearGradient
				id="SVGID_27_"
				gradientUnits="userSpaceOnUse"
				x1="69.4"
				y1="-273.7574"
				x2="69.4"
				y2="-345.8742"
				gradientTransform="matrix(1 0 0 -1 0 -69.2126)">
		<stop
				offset="0"
				style="stop-color:#FF0000"
				id="stop264" />
			<stop
					offset="1"
					style="stop-color:#C20000"
					id="stop266" />
	</linearGradient>
		<path
				class="st26"
				d="M79.5,219.1c1.8-2.2,2.8-5,2.8-8.1c0-7.1-5.8-12.9-12.9-12.9s-12.9,5.8-12.9,12.9c0,2.9,0.9,5.5,2.5,7.6   l10.5,16.5L79.5,219.1z"
				id="path269" />
		<radialGradient
				id="SVGID_28_"
				cx="67.8441"
				cy="-184.8277"
				r="60.872"
				gradientTransform="matrix(1 0 0 -1.0718 0 -12.7267)"
				gradientUnits="userSpaceOnUse">
		<stop
				offset="0"
				style="stop-color:#FFFFFF;stop-opacity:0"
				id="stop271" />
			<stop
					offset="1"
					style="stop-color:#FFFFFF"
					id="stop273" />
	</radialGradient>
		<path
				class="st27"
				d="M77.7,219.1c1.5-1.9,2.3-4.4,2.3-7.1c0-6.3-4.7-11.4-10.6-11.4s-10.6,5.1-10.6,11.4c0,2.5,0.8,4.8,2.1,6.7   l8.6,14.5L77.7,219.1z"
				id="path276" />
</g>

	<g
			id="c_cherbourg_en_cotentin">
	<circle
			class="point"
			cx="159.7"
			cy="131"
			r="12"
			id="circle279" />
		<circle
				class="st3"
				cx="159.7"
				cy="131"
				r="5"
				id="circle281" />
</g>
	<g
			id="p_cherbourg_en_cotentin">
		<linearGradient
				id="SVGID_31_"
				gradientUnits="userSpaceOnUse"
				x1="159.2"
				y1="-169.2584"
				x2="159.2"
				y2="-241.3752"
				gradientTransform="matrix(1 0 0 -1 0 -69.2126)">
		<stop
				offset="0"
				style="stop-color:#FF0000"
				id="stop284" />
			<stop
					offset="1"
					style="stop-color:#C20000"
					id="stop286" />
	</linearGradient>
		<path
				class="st30"
				d="M169.3,114.6c1.8-2.2,2.8-5,2.8-8.1c0-7.1-5.8-12.9-12.9-12.9s-12.9,5.8-12.9,12.9c0,2.9,0.9,5.5,2.5,7.6   l10.5,16.5L169.3,114.6z"
				id="path289" />
		<radialGradient
				id="SVGID_32_"
				cx="157.6108"
				cy="-87.3291"
				r="60.872"
				gradientTransform="matrix(1 0 0 -1.0718 0 -12.7267)"
				gradientUnits="userSpaceOnUse">
		<stop
				offset="0"
				style="stop-color:#FFFFFF;stop-opacity:0"
				id="stop291" />
			<stop
					offset="1"
					style="stop-color:#FFFFFF"
					id="stop293" />
	</radialGradient>
		<path
				class="st31"
				d="M167.5,114.6c1.5-1.9,2.3-4.4,2.3-7.1c0-6.3-4.7-11.4-10.6-11.4c-5.9,0-10.6,5.1-10.6,11.4   c0,2.5,0.8,4.8,2.1,6.7l8.6,14.5L167.5,114.6z"
				id="path296" />
</g>

	<g
			id="c_brest">
	<circle
			class="point"
			cx="43.9"
			cy="197.5"
			r="12"
			id="circle299" />
		<circle
				class="st3"
				cx="43.9"
				cy="197.5"
				r="5"
				id="circle301" />
</g>
	<g
			id="p_brest">
		<linearGradient
				id="SVGID_29_"
				gradientUnits="userSpaceOnUse"
				x1="43.4"
				y1="-235.7574"
				x2="43.4"
				y2="-307.8742"
				gradientTransform="matrix(1 0 0 -1 0 -69.2126)">
		<stop
				offset="0"
				style="stop-color:#FF0000"
				id="stop304" />
			<stop
					offset="1"
					style="stop-color:#C20000"
					id="stop306" />
	</linearGradient>
		<path
				class="st28"
				d="M53.5,181.1c1.8-2.2,2.8-5,2.8-8.1c0-7.1-5.8-12.9-12.9-12.9s-12.9,5.8-12.9,12.9c0,2.9,0.9,5.5,2.5,7.6   l10.5,16.5L53.5,181.1z"
				id="path309" />
		<radialGradient
				id="SVGID_30_"
				cx="41.8441"
				cy="-149.3733"
				r="60.872"
				gradientTransform="matrix(1 0 0 -1.0718 0 -12.7267)"
				gradientUnits="userSpaceOnUse">
		<stop
				offset="0"
				style="stop-color:#FFFFFF;stop-opacity:0"
				id="stop311" />
			<stop
					offset="1"
					style="stop-color:#FFFFFF"
					id="stop313" />
	</radialGradient>
		<path
				class="st29"
				d="M51.7,181.1c1.5-1.9,2.3-4.4,2.3-7.1c0-6.3-4.7-11.4-10.6-11.4s-10.6,5.1-10.6,11.4c0,2.5,0.8,4.8,2.1,6.7   l8.6,14.5L51.7,181.1z"
				id="path316" />
</g>

	<g
			transform="translate(29.192506,32.421414)"
			id="c_alencon"><circle
     class="point"
     cx="204.89999"
     cy="165"
     r="12"
     id="circle179-8" /><circle
			class="st3"
			cx="204.89999"
			cy="165"
			r="5"
			id="circle181-2"
			style="fill:#818181" /></g><g
			transform="translate(29.192506,32.421414)"
			id="p_alencon"><linearGradient
     id="linearGradient424"
     gradientUnits="userSpaceOnUse"
     x1="204.39999"
     y1="226.74159"
     x2="204.39999"
     y2="154.6248"
     gradientTransform="matrix(1,0,0,-1,0,360.7874)"><stop
       offset="0"
       style="stop-color:#FF0000"
       id="stop420" /><stop
			offset="1"
			style="stop-color:#C20000"
			id="stop422" /></linearGradient><path
			inkscape:connector-curvature="0"
			class="st18"
			d="m 214.5,148.6 c 1.8,-2.2 2.8,-5 2.8,-8.1 0,-7.1 -5.8,-12.9 -12.9,-12.9 -7.1,0 -12.9,5.8 -12.9,12.9 0,2.9 0.9,5.5 2.5,7.6 l 10.5,16.5 z"
			id="path189-5"
			style="fill:url(#linearGradient476)" /><radialGradient
			id="radialGradient431"
			cx="202.8441"
			cy="282.14279"
			r="60.872002"
			gradientTransform="matrix(1,0,0,-1.0718,0,417.2733)"
			gradientUnits="userSpaceOnUse"><stop
       offset="0"
       style="stop-color:#FFFFFF;stop-opacity:0"
       id="stop427" /><stop
			offset="1"
			style="stop-color:#FFFFFF"
			id="stop429" /></radialGradient><path
			inkscape:connector-curvature="0"
			class="st19"
			d="m 212.7,148.6 c 1.5,-1.9 2.3,-4.4 2.3,-7.1 0,-6.3 -4.7,-11.4 -10.6,-11.4 -5.9,0 -10.6,5.1 -10.6,11.4 0,2.5 0.8,4.8 2.1,6.7 l 8.6,14.5 z"
			id="path196-0"
			style="fill:url(#radialGradient478)" /></g><g
			transform="translate(-26.081453,35.40034)"
			id="c_nantes"><circle
     class="point"
     cx="153.89999"
     cy="213.5"
     r="12"
     id="circle199-2" /><circle
			class="st3"
			cx="153.89999"
			cy="213.5"
			r="5"
			id="circle201-5"
			style="fill:#818181" /></g>

	<g
			transform="translate(-25.58146,37.042141)"
			id="p_nantes"><linearGradient
     id="linearGradient4180"
     gradientUnits="userSpaceOnUse"
     x1="153.39999"
     y1="178.24159"
     x2="153.39999"
     y2="106.1248"
     gradientTransform="matrix(1,0,0,-1,0,360.7874)"><stop
       offset="0"
       style="stop-color:#FF0000"
       id="stop4176" /><stop
			offset="1"
			style="stop-color:#C20000"
			id="stop4178" /></linearGradient><path
			inkscape:connector-curvature="0"
			class="st20"
			d="m 163.5,197.1 c 1.8,-2.2 2.8,-5 2.8,-8.1 0,-7.1 -5.8,-12.9 -12.9,-12.9 -7.1,0 -12.9,5.8 -12.9,12.9 0,2.9 0.9,5.5 2.5,7.6 l 10.5,16.5 z"
			id="path209-2"
			style="fill:url(#linearGradient4180)" /><radialGradient
			id="radialGradient4187"
			cx="151.8441"
			cy="236.8918"
			r="60.872002"
			gradientTransform="matrix(1,0,0,-1.0718,0,417.2733)"
			gradientUnits="userSpaceOnUse"><stop
       offset="0"
       style="stop-color:#FFFFFF;stop-opacity:0"
       id="stop4183" /><stop
			offset="1"
			style="stop-color:#FFFFFF"
			id="stop4185" /></radialGradient><path
			inkscape:connector-curvature="0"
			class="st21"
			d="m 161.7,197.1 c 1.5,-1.9 2.3,-4.4 2.3,-7.1 0,-6.3 -4.7,-11.4 -10.6,-11.4 -5.9,0 -10.6,5.1 -10.6,11.4 0,2.5 0.8,4.8 2.1,6.7 l 8.6,14.5 z"
			id="path216-2"
			style="fill:url(#radialGradient4187)" /></g>


   </svg>