<?xml version="1.0" encoding="utf-8"?>
<!-- Generator: Adobe Illustrator 26.2.1, SVG Export Plug-In . SVG Version: 6.00 Build 0)  -->
<svg version="1.1" id="icons" xmlns="http://www.w3.org/2000/svg" xmlns:xlink="http://www.w3.org/1999/xlink" x="0px" y="0px"
	 viewBox="0 0 288 288" style="enable-background:new 0 0 288 288;" xml:space="preserve">
<style type="text/css">
	.st0{fill:#575756;}
	.st1{fill-rule:evenodd;clip-rule:evenodd;fill:#575756;}
	.st2{opacity:0.2;}
	.st3{fill:#1D1D1B;}
	.st4{fill:#FFFFFF;}
	.st5{opacity:0.6;clip-path:url(#SVGID_00000031887260487447043510000008861638923439823036_);}
	.st6{fill:#E42222;}
</style>
<g>
	<path class="st4" d="M30.63,146.98l-0.15,0.63c-0.34,1.54,0.34,1.65,2.82,1.65c2.44,0,2.87-0.43,3.21-1.99
		c0.43-1.92-0.69-1.66-2.76-1.77c-2.97-0.18-5.39-0.07-4.51-3.97c0.8-3.69,3.26-3.79,6.62-3.79c2.85,0,5.17,0.09,4.38,3.62
		l-0.09,0.43h-2.69l0.09-0.43c0.32-1.45-0.28-1.5-2.16-1.5c-2.67,0-3.15,0.25-3.47,1.68c-0.37,1.65-0.04,1.7,2.67,1.86
		c4.25,0.25,5.37,0.47,4.61,3.88c-0.82,3.78-2.76,4.1-6.36,4.1c-3.1,0-5.87,0.09-5.04-3.76l0.15-0.63H30.63z"/>
	<path class="st4" d="M43.36,148.71l-1.44,2.54h-2.78l7.61-13.42h3.95l1.77,13.42h-2.72l-0.35-2.54H43.36z M48.38,139.8h-0.04
		l-3.94,6.96h4.83L48.38,139.8z"/>
	<path class="st4" d="M57.1,149.05h6.53l-0.48,2.2h-9.21l2.97-13.42h2.69L57.1,149.05z"/>
	<path class="st4" d="M78.03,142.63l-0.78,3.62c-0.95,4.3-2.87,5.12-7.11,5.12c-4.33,0-5.76-0.72-4.77-5.12l0.78-3.62
		c0.93-4.17,2.57-4.9,7.01-4.9C77.19,137.73,79,138.32,78.03,142.63z M68.83,142.63l-0.78,3.62c-0.6,2.67-0.11,2.92,2.57,2.92
		c2.44,0,3.36-0.32,3.94-2.92l0.78-3.62c0.62-2.52-0.28-2.7-2.67-2.7C69.78,139.93,69.37,140.5,68.83,142.63z"/>
	<path class="st4" d="M91.6,137.83h2.69l-2.97,13.42h-4.46l-3.47-11.22H83.3l-2.26,11.22h-2.69l2.97-13.42h4.44l3.51,11.22h0.07
		L91.6,137.83z"/>
</g>
<g>
	<g>
		<path class="st1" d="M261,237.26c-13.76-21.21-90.8-44.56-90.8-44.56v-22.12c20.66-21.6,34.95-65.06,34.95-98.09
			c0-45.72-27.38-63.32-61.16-63.32c-33.78,0-61.16,17.59-61.16,63.32c0,33.03,14.29,76.5,34.95,98.09v22.12
			c0,0-76.9,23.31-90.69,44.56c-7.07,10.81-5.42,51.57-5.42,51.57h244.64C266.31,288.83,268.05,248.07,261,237.26z"/>
	</g>
</g>
</svg>
