<?xml version="1.0" encoding="utf-8"?>
<!-- Generator: Adobe Illustrator 26.2.1, SVG Export Plug-In . SVG Version: 6.00 Build 0)  -->
<svg version="1.1" id="icons" xmlns="http://www.w3.org/2000/svg" xmlns:xlink="http://www.w3.org/1999/xlink" x="0px" y="0px"
	 viewBox="0 0 288 288" style="enable-background:new 0 0 288 288;" xml:space="preserve">
<style type="text/css">
	.st0{fill:#575756;}
	.st1{fill-rule:evenodd;clip-rule:evenodd;fill:#575756;}
	.st2{opacity:0.2;}
	.st3{fill:#1D1D1B;}
	.st4{fill:#FFFFFF;}
	.st5{opacity:0.6;clip-path:url(#SVGID_00000128445568739788380370000008807907458389148061_);}
	.st6{fill:#E42222;}
</style>
<path class="st0" d="M233.39,94.98c0-49.37-40.02-89.39-89.39-89.39S54.61,45.61,54.61,94.98c0,11.2,2.08,21.92,5.84,31.8
	l-0.18,0.08c0,0,0.74,1.61,2.08,4.49c0.46,1.04,0.94,2.07,1.44,3.09c12.12,25.94,52.75,111.43,77.98,146.32
	c0.32,0.94,1.18,1.63,2.23,1.63s1.91-0.69,2.23-1.63c25.23-34.89,65.86-120.38,77.98-146.32c0.5-1.02,0.98-2.05,1.44-3.09
	c1.34-2.88,2.08-4.49,2.08-4.49l-0.18-0.08C231.31,116.9,233.39,106.19,233.39,94.98z M143.7,139.38c-24.68,0-44.7-20.01-44.7-44.7
	s20.01-44.7,44.7-44.7s44.7,20.01,44.7,44.7S168.39,139.38,143.7,139.38z"/>
</svg>
