<?xml version="1.0" encoding="utf-8"?>
<!-- Generator: Adobe Illustrator 26.2.1, SVG Export Plug-In . SVG Version: 6.00 Build 0)  -->
<svg version="1.1" id="icons" xmlns="http://www.w3.org/2000/svg" xmlns:xlink="http://www.w3.org/1999/xlink" x="0px" y="0px"
	 viewBox="0 0 288 288" style="enable-background:new 0 0 288 288;" xml:space="preserve">
<style type="text/css">
	.st0{fill:#575756;}
	.st1{fill-rule:evenodd;clip-rule:evenodd;fill:#575756;}
	.st2{opacity:0.2;}
	.st3{fill:#1D1D1B;}
	.st4{fill:#FFFFFF;}
	.st5{opacity:0.6;clip-path:url(#SVGID_00000035513046057099437900000002097730580725166738_);}
	.st6{fill:#E42222;}
</style>
<path class="st0" d="M278.26,86.64c-5.63-25.08-23.49-45.42-47.78-54.42c-28.91-10.71-56.41-5.3-79.55,15.62
	c-1.96,1.77-3.64,3.57-5.26,5.31c-0.57,0.61-1.13,1.21-1.67,1.78c-0.55-0.57-1.1-1.17-1.68-1.79c-1.62-1.74-3.3-3.54-5.25-5.31
	c-23.14-20.93-50.65-26.34-79.55-15.62c-24.28,9-42.15,29.34-47.78,54.42c-5.71,25.41,1.91,51.85,20.38,70.73
	c21.26,21.74,43.17,43.5,64.36,64.54c9.46,9.4,18.92,18.79,28.35,28.2l0.38,0.38c0.58,0.59,1.17,1.18,1.78,1.73
	c4.19,3.76,9.87,8.09,17.21,8.79c0.55,0.08,1.1,0.12,1.66,0.12c0.05,0,0.1,0,0.15,0c0.61,0.01,1.19-0.03,1.77-0.11
	c7.35-0.7,13.05-5.03,17.24-8.79c0.62-0.55,1.2-1.14,1.79-1.73l0.37-0.38c9.4-9.39,18.84-18.76,28.27-28.12
	c21.22-21.07,43.15-42.85,64.45-64.62C276.35,138.49,283.97,112.05,278.26,86.64z M231.04,131.61
	c-21.61,21.96-43.86,44.08-65.37,65.47c-7.23,7.19-14.46,14.38-21.68,21.57c-7.18-7.16-14.37-14.3-21.56-21.45
	c-21.55-21.43-43.83-43.58-65.48-65.59c-8.6-8.74-12.86-19.72-11.98-30.91c0.89-11.31,6.88-21.62,16.88-29.02
	c7.04-5.21,15.05-7.79,23-7.79c9.08,0,18.09,3.37,25.52,10.03c2.52,2.26,4.96,4.73,7.54,7.36c2.14,2.18,4.36,4.43,6.71,6.64
	c3.93,3.69,10.02,8.56,18.09,9.03c0.42,0.04,0.86,0.05,1.29,0.05c0.46,0,0.85-0.01,1.26-0.05c8.08-0.47,14.17-5.34,18.1-9.03
	c2.34-2.2,4.56-4.45,6.7-6.63c2.58-2.62,5.02-5.1,7.55-7.37c13.94-12.5,33.44-13.39,48.52-2.24c10,7.4,16,17.7,16.88,29.02
	C243.9,111.89,239.65,122.86,231.04,131.61z"/>
</svg>
