<?xml version="1.0" encoding="utf-8"?>
<!-- Generator: Adobe Illustrator 26.2.1, SVG Export Plug-In . SVG Version: 6.00 Build 0)  -->
<svg version="1.1" id="icons" xmlns="http://www.w3.org/2000/svg" xmlns:xlink="http://www.w3.org/1999/xlink" x="0px" y="0px"
	 viewBox="0 0 288 288" style="enable-background:new 0 0 288 288;" xml:space="preserve">
<style type="text/css">
	.st0{fill:#575756;}
	.st1{fill-rule:evenodd;clip-rule:evenodd;fill:#575756;}
	.st2{clip-path:url(#SVGID_00000066506801926829800840000009813498603407222711_);fill:#575756;}
	.st3{clip-path:url(#SVGID_00000101071345733733360220000014467778220868309669_);fill:#575756;}
	.st4{clip-path:url(#SVGID_00000000182017959017272200000008163547053954432648_);fill:#575756;}
	.st5{opacity:0.2;}
	.st6{fill:#1D1D1B;}
	.st7{fill:#FFFFFF;}
	.st8{opacity:0.6;clip-path:url(#SVGID_00000049211157174347648480000011009357630588149649_);}
	.st9{fill:#E42222;}
</style>
<g>
	<path class="st0" d="M176.62,63.29l-65.25,0c-26.52,0-48.09,21.57-48.09,48.09v65.25c0,26.51,21.57,48.09,48.09,48.09l65.25,0
		c26.51,0,48.09-21.57,48.09-48.09v-65.25C224.71,84.86,203.14,63.29,176.62,63.29z M208.47,176.62c0,17.59-14.26,31.85-31.85,31.85
		h-65.25c-17.59,0-31.85-14.26-31.85-31.85v-65.25c0-17.59,14.26-31.85,31.85-31.85h65.25c17.59,0,31.85,14.26,31.85,31.85V176.62z"
		/>
	<path class="st0" d="M144,102.25c-23.02,0-41.75,18.73-41.75,41.75c0,23.02,18.73,41.75,41.75,41.75
		c23.02,0,41.75-18.73,41.75-41.75C185.75,120.98,167.02,102.25,144,102.25z M144,169.51c-14.09,0-25.51-11.42-25.51-25.51
		c0-14.09,11.42-25.51,25.51-25.51c14.09,0,25.51,11.42,25.51,25.51C169.51,158.09,158.09,169.51,144,169.51z"/>
	<path class="st0" d="M195.83,102.56c0,5.52-4.48,10-10,10c-5.53,0-10-4.48-10-10c0-5.53,4.48-10,10-10
		C191.36,92.56,195.83,97.04,195.83,102.56L195.83,102.56z"/>
</g>
</svg>
