<?xml version="1.0" encoding="utf-8"?>
<!-- Generator: Adobe Illustrator 26.2.1, SVG Export Plug-In . SVG Version: 6.00 Build 0)  -->
<svg version="1.1" id="icons" xmlns="http://www.w3.org/2000/svg" xmlns:xlink="http://www.w3.org/1999/xlink" x="0px" y="0px"
	 viewBox="0 0 288 288" style="enable-background:new 0 0 288 288;" xml:space="preserve">
<style type="text/css">
	.st0{fill:#575756;}
	.st1{fill-rule:evenodd;clip-rule:evenodd;fill:#575756;}
	.st2{clip-path:url(#SVGID_00000081639634400028992390000013659837712890099080_);fill:#575756;}
	.st3{clip-path:url(#SVGID_00000114046726682136319490000016510750061877386150_);fill:#575756;}
	.st4{clip-path:url(#SVGID_00000086653443712660164370000002922602730959227807_);fill:#575756;}
	.st5{opacity:0.2;}
	.st6{fill:#1D1D1B;}
	.st7{fill:#FFFFFF;}
	.st8{opacity:0.6;clip-path:url(#SVGID_00000167375578194553957010000009562843000931030942_);}
	.st9{fill:#E42222;}
</style>
<g>
	<g>
		<g>
			<g>
				<defs>
					<path id="SVGID_1_" d="M92.06,189.36H29.1c-1.61,0-2.89-1.37-2.77-2.98l8.08-112.06c0.1-1.45,1.31-2.58,2.77-2.58h25.64
						c1.61,0,2.89,1.37,2.77,2.98l-6.36,88.93c-0.12,1.61,1.16,2.98,2.77,2.98h31.34c1.62,0,2.89,1.37,2.77,2.99l-1.28,17.17
						C94.72,188.24,93.52,189.36,92.06,189.36z"/>
				</defs>
				<use xlink:href="#SVGID_1_"  style="overflow:visible;fill:#575756;"/>
				<clipPath id="SVGID_00000066505435605746721580000010308577313931338382_">
					<use xlink:href="#SVGID_1_"  style="overflow:visible;"/>
				</clipPath>
				<polygon style="clip-path:url(#SVGID_00000066505435605746721580000010308577313931338382_);fill:#575756;" points="
					26.21,188.15 38.02,189.36 26.21,189.36 				"/>
				<polygon style="clip-path:url(#SVGID_00000066505435605746721580000010308577313931338382_);fill:#575756;" points="
					26.21,186.08 58.22,189.36 38.02,189.36 26.21,188.15 				"/>
				<polygon style="clip-path:url(#SVGID_00000066505435605746721580000010308577313931338382_);fill:#575756;" points="
					26.21,184.02 78.42,189.36 58.22,189.36 26.21,186.08 				"/>
				<polygon style="clip-path:url(#SVGID_00000066505435605746721580000010308577313931338382_);fill:#575756;" points="
					26.21,181.95 96.23,189.11 96.23,189.36 78.42,189.36 26.21,184.02 				"/>
				<polygon style="clip-path:url(#SVGID_00000066505435605746721580000010308577313931338382_);fill:#575756;" points="
					26.21,179.89 96.23,187.05 96.23,189.11 26.21,181.95 				"/>
				<polygon style="clip-path:url(#SVGID_00000066505435605746721580000010308577313931338382_);fill:#575756;" points="
					26.21,177.82 96.23,184.98 96.23,187.05 26.21,179.89 				"/>
				<polygon style="clip-path:url(#SVGID_00000066505435605746721580000010308577313931338382_);fill:#575756;" points="
					26.21,175.75 96.23,182.92 96.23,184.98 26.21,177.82 				"/>
				<polygon style="clip-path:url(#SVGID_00000066505435605746721580000010308577313931338382_);fill:#575756;" points="
					26.21,173.69 96.23,180.85 96.23,182.92 26.21,175.75 				"/>
				<polygon style="clip-path:url(#SVGID_00000066505435605746721580000010308577313931338382_);fill:#575756;" points="
					26.21,171.62 96.23,178.78 96.23,180.85 26.21,173.69 				"/>
				<polygon style="clip-path:url(#SVGID_00000066505435605746721580000010308577313931338382_);fill:#575756;" points="
					26.21,169.56 96.23,176.72 96.23,178.78 26.21,171.62 				"/>
				<polygon style="clip-path:url(#SVGID_00000066505435605746721580000010308577313931338382_);fill:#575756;" points="
					26.21,167.49 96.23,174.65 96.23,176.72 26.21,169.56 				"/>
				<polygon style="clip-path:url(#SVGID_00000066505435605746721580000010308577313931338382_);fill:#575756;" points="
					26.21,165.42 96.23,172.59 96.23,174.65 26.21,167.49 				"/>
				<polygon style="clip-path:url(#SVGID_00000066505435605746721580000010308577313931338382_);fill:#575756;" points="
					26.21,163.36 96.23,170.52 96.23,172.59 26.21,165.42 				"/>
				<polygon style="clip-path:url(#SVGID_00000066505435605746721580000010308577313931338382_);fill:#575756;" points="
					26.21,161.29 96.23,168.45 96.23,170.52 26.21,163.36 				"/>
				<polygon style="clip-path:url(#SVGID_00000066505435605746721580000010308577313931338382_);fill:#575756;" points="
					26.21,159.23 96.23,166.39 96.23,168.45 26.21,161.29 				"/>
				<polygon style="clip-path:url(#SVGID_00000066505435605746721580000010308577313931338382_);fill:#575756;" points="
					26.21,157.16 96.23,164.32 96.23,166.39 26.21,159.23 				"/>
				<polygon style="clip-path:url(#SVGID_00000066505435605746721580000010308577313931338382_);fill:#575756;" points="
					26.21,155.09 96.23,162.26 96.23,164.32 26.21,157.16 				"/>
				<polygon style="clip-path:url(#SVGID_00000066505435605746721580000010308577313931338382_);fill:#575756;" points="
					26.21,153.03 96.23,160.19 96.23,162.26 26.21,155.09 				"/>
				<polygon style="clip-path:url(#SVGID_00000066505435605746721580000010308577313931338382_);fill:#575756;" points="
					26.21,150.96 96.23,158.12 96.23,160.19 26.21,153.03 				"/>
				<polygon style="clip-path:url(#SVGID_00000066505435605746721580000010308577313931338382_);fill:#575756;" points="
					26.21,148.9 96.23,156.06 96.23,158.12 26.21,150.96 				"/>
				<polygon style="clip-path:url(#SVGID_00000066505435605746721580000010308577313931338382_);fill:#575756;" points="
					26.21,146.83 96.23,153.99 96.23,156.06 26.21,148.9 				"/>
				<polygon style="clip-path:url(#SVGID_00000066505435605746721580000010308577313931338382_);fill:#575756;" points="
					26.21,144.76 96.23,151.93 96.23,153.99 26.21,146.83 				"/>
				<polygon style="clip-path:url(#SVGID_00000066505435605746721580000010308577313931338382_);fill:#575756;" points="
					26.21,142.7 96.23,149.86 96.23,151.93 26.21,144.76 				"/>
				<polygon style="clip-path:url(#SVGID_00000066505435605746721580000010308577313931338382_);fill:#575756;" points="
					26.21,140.63 96.23,147.79 96.23,149.86 26.21,142.7 				"/>
				<polygon style="clip-path:url(#SVGID_00000066505435605746721580000010308577313931338382_);fill:#575756;" points="
					26.21,138.57 96.23,145.73 96.23,147.79 26.21,140.63 				"/>
				<polygon style="clip-path:url(#SVGID_00000066505435605746721580000010308577313931338382_);fill:#575756;" points="
					26.21,136.5 96.23,143.66 96.23,145.73 26.21,138.57 				"/>
				<polygon style="clip-path:url(#SVGID_00000066505435605746721580000010308577313931338382_);fill:#575756;" points="
					26.21,134.43 96.23,141.6 96.23,143.66 26.21,136.5 				"/>
				<polygon style="clip-path:url(#SVGID_00000066505435605746721580000010308577313931338382_);fill:#575756;" points="
					26.21,132.37 96.23,139.53 96.23,141.6 26.21,134.43 				"/>
				<polygon style="clip-path:url(#SVGID_00000066505435605746721580000010308577313931338382_);fill:#575756;" points="
					26.21,130.3 96.23,137.46 96.23,139.53 26.21,132.37 				"/>
				<polygon style="clip-path:url(#SVGID_00000066505435605746721580000010308577313931338382_);fill:#575756;" points="
					26.21,128.24 96.23,135.4 96.23,137.46 26.21,130.3 				"/>
				<polygon style="clip-path:url(#SVGID_00000066505435605746721580000010308577313931338382_);fill:#575756;" points="
					26.21,126.17 96.23,133.33 96.23,135.4 26.21,128.24 				"/>
				<polygon style="clip-path:url(#SVGID_00000066505435605746721580000010308577313931338382_);fill:#575756;" points="
					26.21,124.88 26.29,124.11 96.23,131.27 96.23,133.33 26.21,126.17 				"/>
				<polygon style="clip-path:url(#SVGID_00000066505435605746721580000010308577313931338382_);fill:#575756;" points="
					26.29,124.11 26.5,122.07 96.23,129.2 96.23,131.27 				"/>
				<polygon style="clip-path:url(#SVGID_00000066505435605746721580000010308577313931338382_);fill:#575756;" points="
					26.5,122.07 26.71,120.02 96.23,127.13 96.23,129.2 				"/>
				<polygon style="clip-path:url(#SVGID_00000066505435605746721580000010308577313931338382_);fill:#575756;" points="
					26.71,120.02 26.92,117.98 96.23,125.07 96.23,127.13 				"/>
				<polygon style="clip-path:url(#SVGID_00000066505435605746721580000010308577313931338382_);fill:#575756;" points="
					26.92,117.98 27.13,115.93 96.23,123 96.23,125.07 				"/>
				<polygon style="clip-path:url(#SVGID_00000066505435605746721580000010308577313931338382_);fill:#575756;" points="
					27.13,115.93 27.34,113.89 96.23,120.94 96.23,123 				"/>
				<polygon style="clip-path:url(#SVGID_00000066505435605746721580000010308577313931338382_);fill:#575756;" points="
					27.34,113.89 27.55,111.85 96.23,118.87 96.23,120.94 				"/>
				<polygon style="clip-path:url(#SVGID_00000066505435605746721580000010308577313931338382_);fill:#575756;" points="
					27.55,111.85 27.76,109.8 96.23,116.8 96.23,118.87 				"/>
				<polygon style="clip-path:url(#SVGID_00000066505435605746721580000010308577313931338382_);fill:#575756;" points="
					27.76,109.8 27.96,107.76 96.23,114.74 96.23,116.8 				"/>
				<polygon style="clip-path:url(#SVGID_00000066505435605746721580000010308577313931338382_);fill:#575756;" points="
					27.96,107.76 28.17,105.71 96.23,112.67 96.23,114.74 				"/>
				<polygon style="clip-path:url(#SVGID_00000066505435605746721580000010308577313931338382_);fill:#575756;" points="
					28.17,105.71 28.38,103.67 96.23,110.61 96.23,112.67 				"/>
				<polygon style="clip-path:url(#SVGID_00000066505435605746721580000010308577313931338382_);fill:#575756;" points="
					28.38,103.67 28.59,101.62 96.23,108.54 96.23,110.61 				"/>
				<polygon style="clip-path:url(#SVGID_00000066505435605746721580000010308577313931338382_);fill:#575756;" points="
					28.59,101.62 28.8,99.58 96.23,106.47 96.23,108.54 				"/>
				<polygon style="clip-path:url(#SVGID_00000066505435605746721580000010308577313931338382_);fill:#575756;" points="28.8,99.58 
					29.01,97.53 96.23,104.41 96.23,106.47 				"/>
				<polygon style="clip-path:url(#SVGID_00000066505435605746721580000010308577313931338382_);fill:#575756;" points="
					29.01,97.53 29.22,95.49 96.23,102.34 96.23,104.41 				"/>
				<polygon style="clip-path:url(#SVGID_00000066505435605746721580000010308577313931338382_);fill:#575756;" points="
					29.22,95.49 29.43,93.44 96.23,100.28 96.23,102.34 				"/>
				<polygon style="clip-path:url(#SVGID_00000066505435605746721580000010308577313931338382_);fill:#575756;" points="
					29.43,93.44 29.64,91.4 96.23,98.21 96.23,100.28 				"/>
				<polygon style="clip-path:url(#SVGID_00000066505435605746721580000010308577313931338382_);fill:#575756;" points="29.64,91.4 
					29.85,89.35 96.23,96.14 96.23,98.21 				"/>
				<polygon style="clip-path:url(#SVGID_00000066505435605746721580000010308577313931338382_);fill:#575756;" points="
					29.85,89.35 30.06,87.31 96.23,94.08 96.23,96.14 				"/>
				<polygon style="clip-path:url(#SVGID_00000066505435605746721580000010308577313931338382_);fill:#575756;" points="
					30.06,87.31 30.26,85.27 96.23,92.01 96.23,94.08 				"/>
				<polygon style="clip-path:url(#SVGID_00000066505435605746721580000010308577313931338382_);fill:#575756;" points="
					30.26,85.27 30.47,83.22 96.23,89.95 96.23,92.01 				"/>
				<polygon style="clip-path:url(#SVGID_00000066505435605746721580000010308577313931338382_);fill:#575756;" points="
					30.47,83.22 30.68,81.18 96.23,87.88 96.23,89.95 				"/>
				<polygon style="clip-path:url(#SVGID_00000066505435605746721580000010308577313931338382_);fill:#575756;" points="
					30.68,81.18 30.89,79.13 96.23,85.81 96.23,87.88 				"/>
				<polygon style="clip-path:url(#SVGID_00000066505435605746721580000010308577313931338382_);fill:#575756;" points="
					30.89,79.13 31.1,77.09 96.23,83.75 96.23,85.81 				"/>
				<polygon style="clip-path:url(#SVGID_00000066505435605746721580000010308577313931338382_);fill:#575756;" points="31.1,77.09 
					31.31,75.04 96.23,81.68 96.23,83.75 				"/>
				<polygon style="clip-path:url(#SVGID_00000066505435605746721580000010308577313931338382_);fill:#575756;" points="
					31.31,75.04 31.52,73 96.23,79.62 96.23,81.68 				"/>
				<polygon style="clip-path:url(#SVGID_00000066505435605746721580000010308577313931338382_);fill:#575756;" points="31.52,73 
					31.65,71.74 39.4,71.74 96.23,77.55 96.23,79.62 				"/>
				<polygon style="clip-path:url(#SVGID_00000066505435605746721580000010308577313931338382_);fill:#575756;" points="59.6,71.74 
					96.23,75.48 96.23,77.55 39.4,71.74 				"/>
				<polygon style="clip-path:url(#SVGID_00000066505435605746721580000010308577313931338382_);fill:#575756;" points="79.8,71.74 
					96.23,73.42 96.23,75.48 59.6,71.74 				"/>
				<polygon style="clip-path:url(#SVGID_00000066505435605746721580000010308577313931338382_);fill:#575756;" points="
					96.23,73.42 79.8,71.74 96.23,71.74 				"/>
			</g>
		</g>
		<g>
			<g>
				<defs>
					<path id="SVGID_00000137839289951795651610000003166667692116753033_" d="M255.56,189.36h-24.62c-1.61,0-2.89-1.37-2.77-2.98
						l6.67-78.35c0.47-6.55-0.75-7.99-3.71-7.99c-0.28,0-4.9,0-4.9,0l-6.92,86.73c-0.1,1.46-1.31,2.59-2.77,2.59h-23.55
						c-1.63,0-2.91-1.39-2.77-3.01l8.07-83.38c0.14-1.62-1.14-3.01-2.77-3.01h-5.95l-8.21,86.85c-0.12,1.44-1.32,2.55-2.77,2.55
						h-24.64c-1.61,0-2.89-1.37-2.77-2.98l9.15-112.24c0.1-1.45,1.31-2.58,2.77-2.58h84.09c12.32,0,18.49,8.47,18.49,25.4
						c0,1.65-0.06,3.41-0.17,5.28l-7.16,84.53C258.23,188.23,257.02,189.36,255.56,189.36z"/>
				</defs>
				<use xlink:href="#SVGID_00000137839289951795651610000003166667692116753033_"  style="overflow:visible;fill:#575756;"/>
				<clipPath id="SVGID_00000023270090604091635240000012513676437191533745_">
					<use xlink:href="#SVGID_00000137839289951795651610000003166667692116753033_"  style="overflow:visible;"/>
				</clipPath>
				<polygon style="clip-path:url(#SVGID_00000023270090604091635240000012513676437191533745_);fill:#575756;" points="
					151.05,188.52 159.22,189.36 151.05,189.36 				"/>
				<polygon style="clip-path:url(#SVGID_00000023270090604091635240000012513676437191533745_);fill:#575756;" points="
					151.05,186.46 179.42,189.36 159.22,189.36 151.05,188.52 				"/>
				<polygon style="clip-path:url(#SVGID_00000023270090604091635240000012513676437191533745_);fill:#575756;" points="
					151.05,184.39 199.62,189.36 179.42,189.36 151.05,186.46 				"/>
				<polygon style="clip-path:url(#SVGID_00000023270090604091635240000012513676437191533745_);fill:#575756;" points="
					151.05,182.32 219.82,189.36 199.62,189.36 151.05,184.39 				"/>
				<polygon style="clip-path:url(#SVGID_00000023270090604091635240000012513676437191533745_);fill:#575756;" points="
					151.05,180.26 240.02,189.36 219.82,189.36 151.05,182.32 				"/>
				<polygon style="clip-path:url(#SVGID_00000023270090604091635240000012513676437191533745_);fill:#575756;" points="
					151.05,178.19 260.23,189.36 240.02,189.36 151.05,180.26 				"/>
				<polygon style="clip-path:url(#SVGID_00000023270090604091635240000012513676437191533745_);fill:#575756;" points="
					151.05,176.13 261.29,187.4 261.09,189.36 260.23,189.36 151.05,178.19 				"/>
				<polygon style="clip-path:url(#SVGID_00000023270090604091635240000012513676437191533745_);fill:#575756;" points="
					151.05,174.06 261.5,185.36 261.29,187.4 151.05,176.13 				"/>
				<polygon style="clip-path:url(#SVGID_00000023270090604091635240000012513676437191533745_);fill:#575756;" points="
					151.05,171.99 261.71,183.31 261.5,185.36 151.05,174.06 				"/>
				<polygon style="clip-path:url(#SVGID_00000023270090604091635240000012513676437191533745_);fill:#575756;" points="
					151.05,169.93 261.92,181.27 261.71,183.31 151.05,171.99 				"/>
				<polygon style="clip-path:url(#SVGID_00000023270090604091635240000012513676437191533745_);fill:#575756;" points="
					151.05,167.86 262.13,179.22 261.92,181.27 151.05,169.93 				"/>
				<polygon style="clip-path:url(#SVGID_00000023270090604091635240000012513676437191533745_);fill:#575756;" points="
					151.05,165.8 262.34,177.18 262.13,179.22 151.05,167.86 				"/>
				<polygon style="clip-path:url(#SVGID_00000023270090604091635240000012513676437191533745_);fill:#575756;" points="
					151.05,163.73 262.55,175.13 262.34,177.18 151.05,165.8 				"/>
				<polygon style="clip-path:url(#SVGID_00000023270090604091635240000012513676437191533745_);fill:#575756;" points="
					151.05,161.66 262.76,173.09 262.55,175.13 151.05,163.73 				"/>
				<polygon style="clip-path:url(#SVGID_00000023270090604091635240000012513676437191533745_);fill:#575756;" points="
					151.05,159.6 262.97,171.04 262.76,173.09 151.05,161.66 				"/>
				<polygon style="clip-path:url(#SVGID_00000023270090604091635240000012513676437191533745_);fill:#575756;" points="
					151.05,157.53 263.17,169 262.97,171.04 151.05,159.6 				"/>
				<polygon style="clip-path:url(#SVGID_00000023270090604091635240000012513676437191533745_);fill:#575756;" points="
					151.05,155.47 263.38,166.95 263.17,169 151.05,157.53 				"/>
				<polygon style="clip-path:url(#SVGID_00000023270090604091635240000012513676437191533745_);fill:#575756;" points="
					151.05,153.4 263.59,164.91 263.38,166.95 151.05,155.47 				"/>
				<polygon style="clip-path:url(#SVGID_00000023270090604091635240000012513676437191533745_);fill:#575756;" points="
					151.05,151.33 263.8,162.87 263.59,164.91 151.05,153.4 				"/>
				<polygon style="clip-path:url(#SVGID_00000023270090604091635240000012513676437191533745_);fill:#575756;" points="
					151.05,149.27 264.01,160.82 263.8,162.87 151.05,151.33 				"/>
				<polygon style="clip-path:url(#SVGID_00000023270090604091635240000012513676437191533745_);fill:#575756;" points="
					151.05,147.2 264.22,158.78 264.01,160.82 151.05,149.27 				"/>
				<polygon style="clip-path:url(#SVGID_00000023270090604091635240000012513676437191533745_);fill:#575756;" points="
					151.05,145.14 264.43,156.73 264.22,158.78 151.05,147.2 				"/>
				<polygon style="clip-path:url(#SVGID_00000023270090604091635240000012513676437191533745_);fill:#575756;" points="
					151.05,143.07 264.64,154.69 264.43,156.73 151.05,145.14 				"/>
				<polygon style="clip-path:url(#SVGID_00000023270090604091635240000012513676437191533745_);fill:#575756;" points="151.05,141 
					264.85,152.64 264.64,154.69 151.05,143.07 				"/>
				<polygon style="clip-path:url(#SVGID_00000023270090604091635240000012513676437191533745_);fill:#575756;" points="
					151.05,138.94 265.06,150.6 264.85,152.64 151.05,141 				"/>
				<polygon style="clip-path:url(#SVGID_00000023270090604091635240000012513676437191533745_);fill:#575756;" points="
					151.05,136.87 265.27,148.55 265.06,150.6 151.05,138.94 				"/>
				<polygon style="clip-path:url(#SVGID_00000023270090604091635240000012513676437191533745_);fill:#575756;" points="
					151.05,135.19 151.09,134.81 265.47,146.51 265.27,148.55 151.05,136.87 				"/>
				<polygon style="clip-path:url(#SVGID_00000023270090604091635240000012513676437191533745_);fill:#575756;" points="
					151.09,134.81 151.3,132.77 265.66,144.46 265.66,144.67 265.47,146.51 				"/>
				<polygon style="clip-path:url(#SVGID_00000023270090604091635240000012513676437191533745_);fill:#575756;" points="
					151.3,132.77 151.51,130.72 265.66,142.4 265.66,144.46 				"/>
				<polygon style="clip-path:url(#SVGID_00000023270090604091635240000012513676437191533745_);fill:#575756;" points="
					151.51,130.72 151.72,128.68 265.66,140.33 265.66,142.4 				"/>
				<polygon style="clip-path:url(#SVGID_00000023270090604091635240000012513676437191533745_);fill:#575756;" points="
					151.72,128.68 151.92,126.63 265.66,138.26 265.66,140.33 				"/>
				<polygon style="clip-path:url(#SVGID_00000023270090604091635240000012513676437191533745_);fill:#575756;" points="
					151.92,126.63 152.13,124.59 265.66,136.2 265.66,138.26 				"/>
				<polygon style="clip-path:url(#SVGID_00000023270090604091635240000012513676437191533745_);fill:#575756;" points="
					152.13,124.59 152.34,122.54 265.66,134.13 265.66,136.2 				"/>
				<polygon style="clip-path:url(#SVGID_00000023270090604091635240000012513676437191533745_);fill:#575756;" points="
					152.34,122.54 152.55,120.5 265.66,132.07 265.66,134.13 				"/>
				<polygon style="clip-path:url(#SVGID_00000023270090604091635240000012513676437191533745_);fill:#575756;" points="
					152.55,120.5 152.76,118.45 265.66,130 265.66,132.07 				"/>
				<polygon style="clip-path:url(#SVGID_00000023270090604091635240000012513676437191533745_);fill:#575756;" points="
					152.76,118.45 152.97,116.41 265.66,127.93 265.66,130 				"/>
				<polygon style="clip-path:url(#SVGID_00000023270090604091635240000012513676437191533745_);fill:#575756;" points="
					152.97,116.41 153.18,114.36 265.66,125.87 265.66,127.93 				"/>
				<polygon style="clip-path:url(#SVGID_00000023270090604091635240000012513676437191533745_);fill:#575756;" points="
					153.18,114.36 153.39,112.32 265.66,123.8 265.66,125.87 				"/>
				<polygon style="clip-path:url(#SVGID_00000023270090604091635240000012513676437191533745_);fill:#575756;" points="
					153.39,112.32 153.6,110.27 265.66,121.74 265.66,123.8 				"/>
				<polygon style="clip-path:url(#SVGID_00000023270090604091635240000012513676437191533745_);fill:#575756;" points="
					153.6,110.27 153.81,108.23 265.66,119.67 265.66,121.74 				"/>
				<polygon style="clip-path:url(#SVGID_00000023270090604091635240000012513676437191533745_);fill:#575756;" points="
					153.81,108.23 154.02,106.19 265.66,117.6 265.66,119.67 				"/>
				<polygon style="clip-path:url(#SVGID_00000023270090604091635240000012513676437191533745_);fill:#575756;" points="
					154.02,106.19 154.22,104.14 265.66,115.54 265.66,117.6 				"/>
				<polygon style="clip-path:url(#SVGID_00000023270090604091635240000012513676437191533745_);fill:#575756;" points="
					154.22,104.14 154.43,102.1 265.66,113.47 265.66,115.54 				"/>
				<polygon style="clip-path:url(#SVGID_00000023270090604091635240000012513676437191533745_);fill:#575756;" points="
					154.43,102.1 154.64,100.05 265.66,111.41 265.66,113.47 				"/>
				<polygon style="clip-path:url(#SVGID_00000023270090604091635240000012513676437191533745_);fill:#575756;" points="
					154.64,100.05 154.85,98.01 265.66,109.34 265.66,111.41 				"/>
				<polygon style="clip-path:url(#SVGID_00000023270090604091635240000012513676437191533745_);fill:#575756;" points="
					154.85,98.01 155.06,95.96 265.66,107.27 265.66,109.34 				"/>
				<polygon style="clip-path:url(#SVGID_00000023270090604091635240000012513676437191533745_);fill:#575756;" points="
					155.06,95.96 155.27,93.92 265.66,105.21 265.66,107.27 				"/>
				<polygon style="clip-path:url(#SVGID_00000023270090604091635240000012513676437191533745_);fill:#575756;" points="
					155.27,93.92 155.48,91.87 265.66,103.14 265.66,105.21 				"/>
				<polygon style="clip-path:url(#SVGID_00000023270090604091635240000012513676437191533745_);fill:#575756;" points="
					155.48,91.87 155.69,89.83 265.66,101.08 265.66,103.14 				"/>
				<polygon style="clip-path:url(#SVGID_00000023270090604091635240000012513676437191533745_);fill:#575756;" points="
					155.69,89.83 155.9,87.78 265.66,99.01 265.66,101.08 				"/>
				<polygon style="clip-path:url(#SVGID_00000023270090604091635240000012513676437191533745_);fill:#575756;" points="
					155.9,87.78 156.11,85.74 265.66,96.94 265.66,99.01 				"/>
				<polygon style="clip-path:url(#SVGID_00000023270090604091635240000012513676437191533745_);fill:#575756;" points="
					156.11,85.74 156.32,83.7 265.66,94.88 265.66,96.94 				"/>
				<polygon style="clip-path:url(#SVGID_00000023270090604091635240000012513676437191533745_);fill:#575756;" points="
					156.32,83.7 156.52,81.65 265.66,92.81 265.66,94.88 				"/>
				<polygon style="clip-path:url(#SVGID_00000023270090604091635240000012513676437191533745_);fill:#575756;" points="
					156.52,81.65 156.73,79.61 265.66,90.75 265.66,92.81 				"/>
				<polygon style="clip-path:url(#SVGID_00000023270090604091635240000012513676437191533745_);fill:#575756;" points="
					156.73,79.61 156.94,77.56 265.66,88.68 265.66,90.75 				"/>
				<polygon style="clip-path:url(#SVGID_00000023270090604091635240000012513676437191533745_);fill:#575756;" points="
					156.94,77.56 157.15,75.52 265.66,86.61 265.66,88.68 				"/>
				<polygon style="clip-path:url(#SVGID_00000023270090604091635240000012513676437191533745_);fill:#575756;" points="
					157.15,75.52 157.36,73.47 265.66,84.55 265.66,86.61 				"/>
				<polygon style="clip-path:url(#SVGID_00000023270090604091635240000012513676437191533745_);fill:#575756;" points="
					157.36,73.47 157.56,71.56 158.9,71.56 265.66,82.48 265.66,84.55 				"/>
				<polygon style="clip-path:url(#SVGID_00000023270090604091635240000012513676437191533745_);fill:#575756;" points="
					179.1,71.56 265.66,80.42 265.66,82.48 158.9,71.56 				"/>
				<polygon style="clip-path:url(#SVGID_00000023270090604091635240000012513676437191533745_);fill:#575756;" points="
					199.3,71.56 265.66,78.35 265.66,80.42 179.1,71.56 				"/>
				<polygon style="clip-path:url(#SVGID_00000023270090604091635240000012513676437191533745_);fill:#575756;" points="
					219.5,71.56 265.66,76.28 265.66,78.35 199.3,71.56 				"/>
				<polygon style="clip-path:url(#SVGID_00000023270090604091635240000012513676437191533745_);fill:#575756;" points="
					229.03,71.56 265.66,75.31 265.66,76.28 219.5,71.56 				"/>
				<polygon style="clip-path:url(#SVGID_00000023270090604091635240000012513676437191533745_);fill:#575756;" points="
					238.56,71.56 265.66,74.34 265.66,75.31 229.03,71.56 				"/>
				<polygon style="clip-path:url(#SVGID_00000023270090604091635240000012513676437191533745_);fill:#575756;" points="
					248.09,71.56 265.66,73.36 265.66,74.34 238.56,71.56 				"/>
				<polygon style="clip-path:url(#SVGID_00000023270090604091635240000012513676437191533745_);fill:#575756;" points="
					257.62,71.56 265.66,72.39 265.66,73.36 248.09,71.56 				"/>
				<polygon style="clip-path:url(#SVGID_00000023270090604091635240000012513676437191533745_);fill:#575756;" points="
					265.66,72.39 257.62,71.56 265.66,71.56 				"/>
			</g>
		</g>
		<g>
			<g>
				<defs>
					<path id="SVGID_00000067213315322920516670000016923914116146868631_" d="M144.1,129.03l-1.87,0l3.91-54.34
						c0.12-1.61-1.16-2.98-2.77-2.98h-24.63c-1.45,0-2.66,1.12-2.77,2.56l-4.26,54.54l-2.55-0.01h-4.28c-1.61,0-2.89-1.37-2.77-2.98
						l4.2-58.57c0.11-1.61-1.16-2.99-2.78-2.98c-7.44,0.04-15.97,0.76-21.01,5.31c-4.29,3.88-6.54,10.27-6.54,14.86l-4.7,67.86
						c-0.11,1.61,1.16,2.97,2.77,2.97h33.06c1.61,0,2.88,1.37,2.77,2.97l-1.96,28.16c-0.11,1.61,1.16,2.97,2.77,2.97h24.63
						c1.46,0,2.67-1.13,2.77-2.58l2.27-31.62h2.12c1.46,0,2.67-1.13,2.77-2.58l1.62-20.57C146.98,130.4,145.71,129.04,144.1,129.03z
						"/>
				</defs>
				<use xlink:href="#SVGID_00000067213315322920516670000016923914116146868631_"  style="overflow:visible;fill:#575756;"/>
				<clipPath id="SVGID_00000158750511843290941530000004277175804803013282_">
					<use xlink:href="#SVGID_00000067213315322920516670000016923914116146868631_"  style="overflow:visible;"/>
				</clipPath>
				<polygon style="clip-path:url(#SVGID_00000158750511843290941530000004277175804803013282_);fill:#575756;" points="
					71.15,185.98 126.36,189.36 71.15,189.36 				"/>
				<polygon style="clip-path:url(#SVGID_00000158750511843290941530000004277175804803013282_);fill:#575756;" points="
					71.15,184.4 146.37,189 146.35,189.36 126.36,189.36 71.15,185.98 				"/>
				<polygon style="clip-path:url(#SVGID_00000158750511843290941530000004277175804803013282_);fill:#575756;" points="
					71.15,182.82 146.46,187.43 146.37,189 71.15,184.4 				"/>
				<polygon style="clip-path:url(#SVGID_00000158750511843290941530000004277175804803013282_);fill:#575756;" points="
					71.15,181.25 146.56,185.85 146.46,187.43 71.15,182.82 				"/>
				<polygon style="clip-path:url(#SVGID_00000158750511843290941530000004277175804803013282_);fill:#575756;" points="
					71.15,179.67 146.66,184.28 146.56,185.85 71.15,181.25 				"/>
				<polygon style="clip-path:url(#SVGID_00000158750511843290941530000004277175804803013282_);fill:#575756;" points="
					71.15,178.09 146.75,182.71 146.66,184.28 71.15,179.67 				"/>
				<polygon style="clip-path:url(#SVGID_00000158750511843290941530000004277175804803013282_);fill:#575756;" points="
					71.15,176.51 146.85,181.13 146.75,182.71 71.15,178.09 				"/>
				<polygon style="clip-path:url(#SVGID_00000158750511843290941530000004277175804803013282_);fill:#575756;" points="
					71.15,174.93 146.94,179.56 146.85,181.13 71.15,176.51 				"/>
				<polygon style="clip-path:url(#SVGID_00000158750511843290941530000004277175804803013282_);fill:#575756;" points="
					71.15,173.35 146.98,177.98 146.98,179 146.94,179.56 71.15,174.93 				"/>
				<polygon style="clip-path:url(#SVGID_00000158750511843290941530000004277175804803013282_);fill:#575756;" points="
					71.15,171.77 146.98,176.41 146.98,177.98 71.15,173.35 				"/>
				<polygon style="clip-path:url(#SVGID_00000158750511843290941530000004277175804803013282_);fill:#575756;" points="
					71.15,170.19 146.98,174.83 146.98,176.41 71.15,171.77 				"/>
				<polygon style="clip-path:url(#SVGID_00000158750511843290941530000004277175804803013282_);fill:#575756;" points="
					71.15,168.61 146.98,173.25 146.98,174.83 71.15,170.19 				"/>
				<polygon style="clip-path:url(#SVGID_00000158750511843290941530000004277175804803013282_);fill:#575756;" points="
					71.15,167.03 146.98,171.67 146.98,173.25 71.15,168.61 				"/>
				<polygon style="clip-path:url(#SVGID_00000158750511843290941530000004277175804803013282_);fill:#575756;" points="
					71.15,165.45 146.98,170.09 146.98,171.67 71.15,167.03 				"/>
				<polygon style="clip-path:url(#SVGID_00000158750511843290941530000004277175804803013282_);fill:#575756;" points="
					71.15,163.87 146.98,168.51 146.98,170.09 71.15,165.45 				"/>
				<polygon style="clip-path:url(#SVGID_00000158750511843290941530000004277175804803013282_);fill:#575756;" points="
					71.15,162.3 146.98,166.93 146.98,168.51 71.15,163.87 				"/>
				<polygon style="clip-path:url(#SVGID_00000158750511843290941530000004277175804803013282_);fill:#575756;" points="
					71.15,160.72 146.98,165.35 146.98,166.93 71.15,162.3 				"/>
				<polygon style="clip-path:url(#SVGID_00000158750511843290941530000004277175804803013282_);fill:#575756;" points="
					71.15,159.14 146.98,163.77 146.98,165.35 71.15,160.72 				"/>
				<polygon style="clip-path:url(#SVGID_00000158750511843290941530000004277175804803013282_);fill:#575756;" points="
					71.15,157.56 146.98,162.19 146.98,163.77 71.15,159.14 				"/>
				<polygon style="clip-path:url(#SVGID_00000158750511843290941530000004277175804803013282_);fill:#575756;" points="
					71.15,155.98 146.98,160.61 146.98,162.19 71.15,157.56 				"/>
				<polygon style="clip-path:url(#SVGID_00000158750511843290941530000004277175804803013282_);fill:#575756;" points="
					71.15,154.4 146.98,159.03 146.98,160.61 71.15,155.98 				"/>
				<polygon style="clip-path:url(#SVGID_00000158750511843290941530000004277175804803013282_);fill:#575756;" points="
					71.15,152.82 146.98,157.46 146.98,159.03 71.15,154.4 				"/>
				<polygon style="clip-path:url(#SVGID_00000158750511843290941530000004277175804803013282_);fill:#575756;" points="
					71.15,151.24 146.98,155.88 146.98,157.46 71.15,152.82 				"/>
				<polygon style="clip-path:url(#SVGID_00000158750511843290941530000004277175804803013282_);fill:#575756;" points="
					71.15,149.66 146.98,154.3 146.98,155.88 71.15,151.24 				"/>
				<polygon style="clip-path:url(#SVGID_00000158750511843290941530000004277175804803013282_);fill:#575756;" points="
					71.15,148.08 146.98,152.72 146.98,154.3 71.15,149.66 				"/>
				<polygon style="clip-path:url(#SVGID_00000158750511843290941530000004277175804803013282_);fill:#575756;" points="
					71.15,146.5 146.98,151.14 146.98,152.72 71.15,148.08 				"/>
				<polygon style="clip-path:url(#SVGID_00000158750511843290941530000004277175804803013282_);fill:#575756;" points="
					71.15,144.92 146.98,149.56 146.98,151.14 71.15,146.5 				"/>
				<polygon style="clip-path:url(#SVGID_00000158750511843290941530000004277175804803013282_);fill:#575756;" points="
					71.15,143.35 146.98,147.98 146.98,149.56 71.15,144.92 				"/>
				<polygon style="clip-path:url(#SVGID_00000158750511843290941530000004277175804803013282_);fill:#575756;" points="
					71.15,141.77 146.98,146.4 146.98,147.98 71.15,143.35 				"/>
				<polygon style="clip-path:url(#SVGID_00000158750511843290941530000004277175804803013282_);fill:#575756;" points="
					71.15,140.19 146.98,144.82 146.98,146.4 71.15,141.77 				"/>
				<polygon style="clip-path:url(#SVGID_00000158750511843290941530000004277175804803013282_);fill:#575756;" points="
					71.15,138.61 146.98,143.24 146.98,144.82 71.15,140.19 				"/>
				<polygon style="clip-path:url(#SVGID_00000158750511843290941530000004277175804803013282_);fill:#575756;" points="
					71.15,137.03 146.98,141.66 146.98,143.24 71.15,138.61 				"/>
				<polygon style="clip-path:url(#SVGID_00000158750511843290941530000004277175804803013282_);fill:#575756;" points="
					71.15,135.45 146.98,140.08 146.98,141.66 71.15,137.03 				"/>
				<polygon style="clip-path:url(#SVGID_00000158750511843290941530000004277175804803013282_);fill:#575756;" points="
					71.15,133.87 146.98,138.51 146.98,140.08 71.15,135.45 				"/>
				<polygon style="clip-path:url(#SVGID_00000158750511843290941530000004277175804803013282_);fill:#575756;" points="
					71.15,132.29 146.98,136.93 146.98,138.51 71.15,133.87 				"/>
				<polygon style="clip-path:url(#SVGID_00000158750511843290941530000004277175804803013282_);fill:#575756;" points="
					71.15,130.71 146.98,135.35 146.98,136.93 71.15,132.29 				"/>
				<polygon style="clip-path:url(#SVGID_00000158750511843290941530000004277175804803013282_);fill:#575756;" points="
					71.15,129.13 146.98,133.77 146.98,135.35 71.15,130.71 				"/>
				<polygon style="clip-path:url(#SVGID_00000158750511843290941530000004277175804803013282_);fill:#575756;" points="
					71.15,127.55 146.98,132.19 146.98,133.77 71.15,129.13 				"/>
				<polygon style="clip-path:url(#SVGID_00000158750511843290941530000004277175804803013282_);fill:#575756;" points="
					71.15,125.98 146.98,130.61 146.98,132.19 71.15,127.55 				"/>
				<polygon style="clip-path:url(#SVGID_00000158750511843290941530000004277175804803013282_);fill:#575756;" points="
					71.15,124.4 146.98,129.03 146.98,130.61 71.15,125.98 				"/>
				<polygon style="clip-path:url(#SVGID_00000158750511843290941530000004277175804803013282_);fill:#575756;" points="
					71.15,122.82 146.98,127.45 146.98,129.03 71.15,124.4 				"/>
				<polygon style="clip-path:url(#SVGID_00000158750511843290941530000004277175804803013282_);fill:#575756;" points="
					71.15,121.24 146.98,125.87 146.98,127.45 71.15,122.82 				"/>
				<polygon style="clip-path:url(#SVGID_00000158750511843290941530000004277175804803013282_);fill:#575756;" points="
					71.15,119.66 146.98,124.29 146.98,125.87 71.15,121.24 				"/>
				<polygon style="clip-path:url(#SVGID_00000158750511843290941530000004277175804803013282_);fill:#575756;" points="
					71.15,118.08 146.98,122.71 146.98,124.29 71.15,119.66 				"/>
				<polygon style="clip-path:url(#SVGID_00000158750511843290941530000004277175804803013282_);fill:#575756;" points="
					71.15,116.5 146.98,121.13 146.98,122.71 71.15,118.08 				"/>
				<polygon style="clip-path:url(#SVGID_00000158750511843290941530000004277175804803013282_);fill:#575756;" points="
					71.15,114.92 146.98,119.56 146.98,121.13 71.15,116.5 				"/>
				<polygon style="clip-path:url(#SVGID_00000158750511843290941530000004277175804803013282_);fill:#575756;" points="
					71.15,113.34 146.98,117.98 146.98,119.56 71.15,114.92 				"/>
				<polygon style="clip-path:url(#SVGID_00000158750511843290941530000004277175804803013282_);fill:#575756;" points="
					71.15,111.76 146.98,116.4 146.98,117.98 71.15,113.34 				"/>
				<polygon style="clip-path:url(#SVGID_00000158750511843290941530000004277175804803013282_);fill:#575756;" points="
					71.15,110.18 146.98,114.82 146.98,116.4 71.15,111.76 				"/>
				<polygon style="clip-path:url(#SVGID_00000158750511843290941530000004277175804803013282_);fill:#575756;" points="
					71.15,108.6 146.98,113.24 146.98,114.82 71.15,110.18 				"/>
				<polygon style="clip-path:url(#SVGID_00000158750511843290941530000004277175804803013282_);fill:#575756;" points="
					71.15,107.03 146.98,111.66 146.98,113.24 71.15,108.6 				"/>
				<polygon style="clip-path:url(#SVGID_00000158750511843290941530000004277175804803013282_);fill:#575756;" points="
					71.15,105.45 146.98,110.08 146.98,111.66 71.15,107.03 				"/>
				<polygon style="clip-path:url(#SVGID_00000158750511843290941530000004277175804803013282_);fill:#575756;" points="
					71.15,105.3 71.24,103.87 146.98,108.5 146.98,110.08 71.15,105.45 				"/>
				<polygon style="clip-path:url(#SVGID_00000158750511843290941530000004277175804803013282_);fill:#575756;" points="
					71.24,103.87 71.34,102.3 146.98,106.92 146.98,108.5 				"/>
				<polygon style="clip-path:url(#SVGID_00000158750511843290941530000004277175804803013282_);fill:#575756;" points="
					71.34,102.3 71.43,100.73 146.98,105.34 146.98,106.92 				"/>
				<polygon style="clip-path:url(#SVGID_00000158750511843290941530000004277175804803013282_);fill:#575756;" points="
					71.43,100.73 71.53,99.15 146.98,103.76 146.98,105.34 				"/>
				<polygon style="clip-path:url(#SVGID_00000158750511843290941530000004277175804803013282_);fill:#575756;" points="
					71.53,99.15 71.63,97.58 146.98,102.19 146.98,103.76 				"/>
				<polygon style="clip-path:url(#SVGID_00000158750511843290941530000004277175804803013282_);fill:#575756;" points="
					71.63,97.58 71.72,96.01 146.98,100.61 146.98,102.19 				"/>
				<polygon style="clip-path:url(#SVGID_00000158750511843290941530000004277175804803013282_);fill:#575756;" points="
					71.72,96.01 71.82,94.43 146.98,99.03 146.98,100.61 				"/>
				<polygon style="clip-path:url(#SVGID_00000158750511843290941530000004277175804803013282_);fill:#575756;" points="
					71.82,94.43 71.91,92.86 146.98,97.45 146.98,99.03 				"/>
				<polygon style="clip-path:url(#SVGID_00000158750511843290941530000004277175804803013282_);fill:#575756;" points="
					71.91,92.86 72.01,91.29 146.98,95.87 146.98,97.45 				"/>
				<polygon style="clip-path:url(#SVGID_00000158750511843290941530000004277175804803013282_);fill:#575756;" points="
					72.01,91.29 72.11,89.71 146.98,94.29 146.98,95.87 				"/>
				<polygon style="clip-path:url(#SVGID_00000158750511843290941530000004277175804803013282_);fill:#575756;" points="
					72.11,89.71 72.2,88.14 146.98,92.71 146.98,94.29 				"/>
				<polygon style="clip-path:url(#SVGID_00000158750511843290941530000004277175804803013282_);fill:#575756;" points="72.2,88.14 
					72.3,86.57 146.98,91.13 146.98,92.71 				"/>
				<polygon style="clip-path:url(#SVGID_00000158750511843290941530000004277175804803013282_);fill:#575756;" points="72.3,86.57 
					72.4,84.99 146.98,89.55 146.98,91.13 				"/>
				<polygon style="clip-path:url(#SVGID_00000158750511843290941530000004277175804803013282_);fill:#575756;" points="72.4,84.99 
					72.49,83.42 146.98,87.97 146.98,89.55 				"/>
				<polygon style="clip-path:url(#SVGID_00000158750511843290941530000004277175804803013282_);fill:#575756;" points="
					72.49,83.42 72.59,81.85 146.98,86.39 146.98,87.97 				"/>
				<polygon style="clip-path:url(#SVGID_00000158750511843290941530000004277175804803013282_);fill:#575756;" points="
					72.59,81.85 72.68,80.27 146.98,84.81 146.98,86.39 				"/>
				<polygon style="clip-path:url(#SVGID_00000158750511843290941530000004277175804803013282_);fill:#575756;" points="
					72.68,80.27 72.78,78.7 146.98,83.24 146.98,84.81 				"/>
				<polygon style="clip-path:url(#SVGID_00000158750511843290941530000004277175804803013282_);fill:#575756;" points="72.78,78.7 
					72.88,77.13 146.98,81.66 146.98,83.24 				"/>
				<polygon style="clip-path:url(#SVGID_00000158750511843290941530000004277175804803013282_);fill:#575756;" points="
					72.88,77.13 72.97,75.55 146.98,80.08 146.98,81.66 				"/>
				<polygon style="clip-path:url(#SVGID_00000158750511843290941530000004277175804803013282_);fill:#575756;" points="
					72.97,75.55 73.07,73.98 146.98,78.5 146.98,80.08 				"/>
				<polygon style="clip-path:url(#SVGID_00000158750511843290941530000004277175804803013282_);fill:#575756;" points="
					73.07,73.98 73.16,72.41 146.98,76.92 146.98,78.5 				"/>
				<polygon style="clip-path:url(#SVGID_00000158750511843290941530000004277175804803013282_);fill:#575756;" points="
					73.16,72.41 73.26,70.83 146.98,75.34 146.98,76.92 				"/>
				<polygon style="clip-path:url(#SVGID_00000158750511843290941530000004277175804803013282_);fill:#575756;" points="
					73.26,70.83 73.36,69.26 146.98,73.76 146.98,75.34 				"/>
				<polygon style="clip-path:url(#SVGID_00000158750511843290941530000004277175804803013282_);fill:#575756;" points="
					73.36,69.26 73.4,68.52 146.98,73.02 146.98,73.76 				"/>
				<polygon style="clip-path:url(#SVGID_00000158750511843290941530000004277175804803013282_);fill:#575756;" points="73.4,68.52 
					73.45,67.78 146.98,72.27 146.98,73.02 				"/>
				<polygon style="clip-path:url(#SVGID_00000158750511843290941530000004277175804803013282_);fill:#575756;" points="
					73.45,67.78 73.49,67.03 146.98,71.53 146.98,72.27 				"/>
				<polygon style="clip-path:url(#SVGID_00000158750511843290941530000004277175804803013282_);fill:#575756;" points="
					73.49,67.03 73.54,66.29 146.98,70.78 146.98,71.53 				"/>
				<polygon style="clip-path:url(#SVGID_00000158750511843290941530000004277175804803013282_);fill:#575756;" points="
					73.54,66.29 73.58,65.55 146.98,70.04 146.98,70.78 				"/>
				<polygon style="clip-path:url(#SVGID_00000158750511843290941530000004277175804803013282_);fill:#575756;" points="
					73.58,65.55 73.63,64.81 146.98,69.29 146.98,70.04 				"/>
				<polygon style="clip-path:url(#SVGID_00000158750511843290941530000004277175804803013282_);fill:#575756;" points="
					73.63,64.81 73.66,64.26 76.8,64.26 146.98,68.55 146.98,69.29 				"/>
				<polygon style="clip-path:url(#SVGID_00000158750511843290941530000004277175804803013282_);fill:#575756;" points="
					88.98,64.26 146.98,67.8 146.98,68.55 76.8,64.26 				"/>
				<polygon style="clip-path:url(#SVGID_00000158750511843290941530000004277175804803013282_);fill:#575756;" points="
					101.17,64.26 146.98,67.06 146.98,67.8 88.98,64.26 				"/>
				<polygon style="clip-path:url(#SVGID_00000158750511843290941530000004277175804803013282_);fill:#575756;" points="
					113.35,64.26 146.98,66.31 146.98,67.06 101.17,64.26 				"/>
				<polygon style="clip-path:url(#SVGID_00000158750511843290941530000004277175804803013282_);fill:#575756;" points="
					125.54,64.26 146.98,65.57 146.98,66.31 113.35,64.26 				"/>
				<polygon style="clip-path:url(#SVGID_00000158750511843290941530000004277175804803013282_);fill:#575756;" points="
					137.72,64.26 146.98,64.82 146.98,65.57 125.54,64.26 				"/>
				<polygon style="clip-path:url(#SVGID_00000158750511843290941530000004277175804803013282_);fill:#575756;" points="
					146.98,64.82 137.72,64.26 146.98,64.26 				"/>
			</g>
		</g>
	</g>
	<g>
		<path class="st0" d="M33.35,198.79c-3.98,0-8.54,1.91-9.15,6.12l-1.81,12.45c-0.22,1.5,0.15,2.86,1.08,3.92
			c1.31,1.52,3.65,2.39,6.43,2.39c4,0,8.58-1.92,9.19-6.15l1.81-12.45c0.21-1.48-0.16-2.82-1.07-3.87
			C38.53,199.69,36.11,198.79,33.35,198.79z M30.31,219.79c-1.36,0-2.55-0.4-3.11-1.05c-0.3-0.35-0.41-0.75-0.34-1.22l1.81-12.45
			c0.23-1.55,2.38-2.39,4.29-2.39c1.35,0,2.53,0.4,3.08,1.04c0.3,0.34,0.41,0.73,0.34,1.2l-1.81,12.45
			C34.33,218.95,32.25,219.79,30.31,219.79z"/>
		<path class="st0" d="M55.3,198.96h-5.63c-1.87,0-3.33,1.1-3.56,2.68l-3.17,21.83h4.48l1.28-8.81h3.74c1.13,0,2.39,0.51,2.99,1.2
			c0.28,0.32,0.4,0.66,0.35,1l-0.96,6.61h4.52l0.94-6.45c0.14-0.99-0.23-2.17-0.96-3.1c-0.39-0.49-0.87-0.89-1.42-1.19
			c1.92-0.92,3.3-2.83,3.49-4.15l0.5-3.47c0.22-1.52-0.17-2.9-1.12-4C59.57,199.72,57.63,198.96,55.3,198.96z M57.39,204.94
			l-0.5,3.47c-0.18,1.25-2.41,2.36-4.04,2.36h-3.58l1.15-7.93h4.48c0.89,0,1.66,0.3,2.11,0.82
			C57.33,204.02,57.46,204.47,57.39,204.94z"/>
		<path class="st0" d="M75.46,198.69c-3.98,0-8.54,1.92-9.15,6.15l-1.81,12.45c-0.22,1.51,0.16,2.88,1.09,3.96
			c1.33,1.53,3.69,2.41,6.49,2.41c4,0,8.58-1.9,9.18-6.08l0.82-5.68c0.1-0.67-0.08-1.31-0.5-1.79c-0.53-0.61-1.39-0.95-2.44-0.95
			H73.2l-0.56,3.85h4.72l-0.64,4.39c-0.26,1.56-2.34,2.37-4.25,2.37c-1.36,0-2.56-0.41-3.13-1.07c-0.31-0.36-0.43-0.77-0.36-1.26
			L70.8,205c0.23-1.59,2.32-2.43,4.26-2.43c1.14,0,2.12,0.38,2.7,1.05c0.48,0.56,0.66,1.28,0.53,2.16l-0.09,0.64h4.6l0.07-0.48
			c0.25-1.88-0.2-3.55-1.31-4.83C80.22,199.57,77.99,198.69,75.46,198.69z"/>
		<path class="st0" d="M96.97,198.73c-1.39,0-2.81,0.87-3.55,2.19l-10.39,22.55h4.83l0.15-0.33c0.44-0.98,1.02-2.23,2.41-5.24
			l1.12-2.41h6.13l1.41,7.98h4.81l-3.94-22.5C99.66,199.58,98.18,198.73,96.97,198.73z M97.04,211.64h-3.79
			c0.43-1.01,0.83-2.05,1.24-3.1c0.55-1.41,1.12-2.86,1.75-4.28L97.04,211.64z"/>
		<path class="st0" d="M120.68,215.37l-4.29-14.63l0-0.01c-0.12-1.15-1.52-1.83-2.8-1.83c-1.4,0-2.98,0.86-3.15,2.45l-3.21,22.13
			h4.65l2.14-15.92c0.08,0.35,0.16,0.67,0.25,0.95c0.61,1.85,1.19,3.74,1.76,5.6c0.84,2.76,1.64,5.36,2.52,7.82
			c0.42,1,1.7,1.54,2.7,1.54c1.29,0,2.78-0.74,3.02-2.38l3.21-22.1h-4.56L120.68,215.37z"/>
		<polygon class="st0" points="129.36,223.47 133.92,223.47 137.47,198.99 132.91,198.99 		"/>
		<path class="st0" d="M149.36,209.08c-2.72-0.46-3.92-1.15-3.77-2.17l0.28-1.94c0.22-1.53,2.29-2.36,4.12-2.36
			c1.08,0,2.03,0.37,2.59,1.02c0.48,0.55,0.65,1.26,0.53,2.11l-0.09,0.64h4.52l0.07-0.48c0.27-1.86-0.17-3.51-1.27-4.78
			c-1.32-1.52-3.48-2.39-5.95-2.39c-3.9,0-8.37,1.9-8.98,6.08l-0.28,1.94c-0.67,4.94,3.73,5.64,6.95,6.16
			c1.4,0.19,2.95,0.46,3.49,1.18c0.19,0.25,0.25,0.54,0.19,0.93l-0.35,2.4c-0.22,1.53-2.29,2.36-4.12,2.36c-1.1,0-2.05-0.37-2.6-1
			c-0.47-0.54-0.64-1.26-0.52-2.13l0.09-0.64h-4.47l-0.07,0.47c-0.3,1.91,0.12,3.59,1.22,4.86c1.28,1.5,3.45,2.36,5.95,2.36
			c4.04,0,8.44-2.1,9.02-6.12l0.35-2.4C156.96,210.4,152.2,209.57,149.36,209.08z"/>
		<path class="st0" d="M171.22,198.73c-1.39,0-2.81,0.87-3.55,2.19l-10.39,22.55h4.83l0.15-0.33c0.44-0.99,1.03-2.26,2.46-5.33
			l1.07-2.32h6.13l1.41,7.98h4.81l-3.94-22.5C173.91,199.58,172.43,198.73,171.22,198.73z M171.29,211.64h-3.79
			c0.42-1.01,0.83-2.05,1.24-3.09c0.55-1.41,1.12-2.86,1.75-4.29L171.29,211.64z"/>
		<polygon class="st0" points="179.61,202.87 186.23,202.87 183.24,223.47 187.76,223.47 190.75,202.87 197.53,202.87 198.1,198.99 
			180.18,198.99 		"/>
		<path class="st0" d="M201.56,201.64l-2.27,15.62c-0.2,1.41,0.22,2.8,1.2,3.93c1.25,1.45,3.23,2.28,5.41,2.28h6.77l0.56-3.88h-6.93
			c-0.86,0-1.61-0.31-2.07-0.84c-0.33-0.39-0.47-0.85-0.4-1.33l0.66-4.53h9.31l0.56-3.88h-9.31l0.88-6.07l9.73-0.07l0.56-3.88H205.2
			C203.63,198.99,201.8,200,201.56,201.64z"/>
		<path class="st0" d="M229.35,217.43c-0.23,1.59-2.3,2.43-4.21,2.43c-1.2,0-2.37-0.43-3-1.09c-0.35-0.37-0.51-0.78-0.49-1.18
			l2.7-18.59h-4.48l-2.68,18.43c-0.22,1.5,0.15,2.86,1.08,3.92c1.31,1.52,3.66,2.39,6.43,2.39c4,0,8.58-1.92,9.19-6.15l2.7-18.59
			h-4.56L229.35,217.43z"/>
		<path class="st0" d="M255.56,201.1c-1.2-1.38-3.14-2.15-5.46-2.15h-5.63c-1.87,0-3.33,1.1-3.56,2.68l-3.17,21.83h4.48l1.28-8.81
			h3.74c1.13,0,2.39,0.51,2.99,1.2c0.28,0.32,0.4,0.66,0.35,1l-0.96,6.61h4.52l0.94-6.45c0.14-0.98-0.23-2.17-0.96-3.1
			c-0.39-0.49-0.87-0.9-1.42-1.19c1.92-0.92,3.3-2.83,3.49-4.15l0.51-3.47C256.9,203.59,256.51,202.2,255.56,201.1z M252.19,204.94
			l-0.51,3.47c-0.18,1.25-2.41,2.36-4.04,2.36h-3.58l1.15-7.93h4.48c0.89,0,1.66,0.3,2.11,0.82
			C252.13,204.02,252.26,204.47,252.19,204.94z"/>
	</g>
</g>
</svg>
