<?xml version="1.0" encoding="utf-8"?>
<!-- Generator: Adobe Illustrator 26.2.1, SVG Export Plug-In . SVG Version: 6.00 Build 0)  -->
<svg version="1.1" id="icons" xmlns="http://www.w3.org/2000/svg" xmlns:xlink="http://www.w3.org/1999/xlink" x="0px" y="0px"
	 viewBox="0 0 288 288" style="enable-background:new 0 0 288 288;" xml:space="preserve">
<style type="text/css">
	.st0{fill:#575756;}
	.st1{fill-rule:evenodd;clip-rule:evenodd;fill:#575756;}
	.st2{clip-path:url(#SVGID_00000005248376714715667570000009629048186789933743_);fill:#575756;}
	.st3{clip-path:url(#SVGID_00000085209082918384754190000006864792687732902030_);fill:#575756;}
	.st4{clip-path:url(#SVGID_00000121254788208752004210000010726943066004315803_);fill:#575756;}
	.st5{opacity:0.2;}
	.st6{fill:#1D1D1B;}
	.st7{fill:#FFFFFF;}
	.st8{opacity:0.6;clip-path:url(#SVGID_00000072275056605565120720000005314320346079509139_);}
	.st9{fill:#E42222;}
</style>
<g>
	<path class="st1" d="M97.1,226.12V115.3H60.27v110.81H97.1L97.1,226.12z M78.68,100.18c12.84,0,20.84-8.52,20.84-19.15
		c-0.24-10.87-8-19.15-20.59-19.15c-12.6,0-20.84,8.28-20.84,19.15c0,10.63,7.99,19.15,20.35,19.15H78.68L78.68,100.18z"/>
	<path class="st1" d="M117.48,226.12h36.83v-61.88c0-3.31,0.24-6.62,1.21-8.99c2.66-6.62,8.72-13.47,18.9-13.47
		c13.33,0,18.66,10.17,18.66,25.06v59.28h36.83v-63.54c0-34.04-18.17-49.87-42.4-49.87c-19.87,0-28.59,11.11-33.44,18.67h0.24V115.3
		h-36.83C117.96,125.7,117.48,226.12,117.48,226.12L117.48,226.12z"/>
</g>
</svg>
