<?xml version="1.0" encoding="utf-8"?>
<!-- Generator: Adobe Illustrator 23.0.3, SVG Export Plug-In . SVG Version: 6.00 Build 0)  -->
<svg version="1.1" id="Calque_1" xmlns="http://www.w3.org/2000/svg" xmlns:xlink="http://www.w3.org/1999/xlink" x="0px" y="0px"
	 viewBox="0 0 750.57 728.85" style="enable-background:new 0 0 750.57 728.85;" xml:space="preserve">
<style type="text/css">
	.st0{fill:#FFFFFF;}
</style>
<g>
	<path class="st0" d="M298.53,347.67h138.81v52.99h78.58v-52.99v-70.81V80.88h-99.03L276.99,312.26L298.53,347.67z M439.38,150.89
		c0.87-0.96,1.39-1.46,1.39-1.46s0.52,0.51,1.39,1.46c0.83,0.96,12.34,112.27,11.78,112.97c-1.01,1.39-1.96,2.71-2.86,3.95
		c-1.88,2.49-3.6,4.65-5.14,6.43c-1.49,1.78-2.87,3.18-3.73,4.14c-0.89,0.95-1.44,1.46-1.44,1.46s-0.55-0.51-1.44-1.46
		c-0.86-0.96-2.25-2.36-3.74-4.14c-1.53-1.79-3.26-3.95-5.14-6.43c-0.9-1.24-1.85-2.56-2.86-3.95
		C427.03,263.17,438.55,151.85,439.38,150.89z M359.79,280.19c0.56-0.88,64.42-12.52,64.85-12.78c0.43-0.28,0.85-0.38,1.25,0.22
		c0.82,1.07,1.59,2.08,2.32,3.04c1.45,1.96,2.72,3.91,3.76,5.52c1.04,1.52,1.86,3.03,2.42,3.94c0.56,0.95,0.86,1.53,0.86,1.53
		s-0.3,0.59-0.86,1.54c-0.56,0.91-1.38,2.42-2.42,3.94c-1.04,1.6-2.31,3.56-3.76,5.52c-0.73,0.96-1.5,1.97-2.32,3.05
		c-0.41,0.6-0.83,0.5-1.25,0.22c-0.43-0.25-64.3-11.89-64.85-12.78c-0.56-0.97-0.86-1.48-0.86-1.48S359.24,281.16,359.79,280.19z"/>
	<polygon class="st0" points="587.4,350.27 629.48,350.05 629.48,398.41 677.01,398.41 677.01,256.51 629.48,256.51 629.48,307.34 
		587.4,307.34 587.4,256.51 538.84,256.51 538.84,398.41 587.4,398.41 	"/>
	<g>
		<polygon class="st0" points="158.72,449.36 158.73,421.87 74.13,421.87 73.95,546.01 158.54,546.01 158.65,518.16 106.51,518.16 
			106.57,498.13 155.87,498.13 155.82,470.29 106.51,470.29 106.59,449.36 		"/>
		<polygon class="st0" points="271.86,546.01 305.19,546.01 305.39,421.87 272.24,421.87 241.77,466.91 211.23,421.87 
			178.06,421.87 177.87,546.01 211.21,546.01 211.3,494.58 207.6,470.29 208.66,470.29 219.9,491.04 236.96,515.69 246.18,515.69 
			263.03,491.21 274.24,470.11 275.31,470.11 271.98,494.76 		"/>
		<path class="st0" d="M325.44,421.87l-0.2,124.14h33.7l0.08-36.17c6.21,0,12.24,0,18.44,0c26.95,0,42.65-16.85,42.1-43.45
			c-0.49-21.1-8.64-44.52-44.11-44.52H325.44z M375.43,482.88h-16.31l0.07-33.17h16.32C393.07,449.71,390.51,482.88,375.43,482.88z"
			/>
		<polygon class="st0" points="432.56,421.87 432.37,546.01 516.06,546.01 516.15,516.93 466.13,516.93 466.25,421.87 		"/>
		<path class="st0" d="M629.59,468.69c-5.22-29.97-23.26-50.02-52.87-50.02c-42.92,0-61.1,35.12-53.32,79.8
			c5.28,30.33,23.7,50.55,52.96,50.55C618.57,549.02,637.56,514.45,629.59,468.69z M575.11,519.41c-12.12-0.35-17.4-11.35-19.25-25
			c-4.32-30.86,5.82-47,22.26-46.28c15.19,0.71,17.55,15.25,19.08,26.07C600.02,494.4,595.06,519.94,575.11,519.41z"/>
		<polygon class="st0" points="643.41,546.01 676.75,546.01 676.95,421.87 643.61,421.87 		"/>
	</g>
	<g>
		<polygon class="st0" points="127.45,585.42 127.41,567.89 74.13,567.89 74.01,646.07 95.12,646.07 95.14,616.7 124.96,616.7 
			125.03,599.16 95.21,599.16 95.28,585.42 		"/>
		<path class="st0" d="M167.49,565.88c-27.03,0-38.48,22.11-33.58,50.26c3.33,19.1,14.93,31.83,33.35,31.83
			c26.58,0,38.54-21.78,33.52-50.59C197.5,578.5,186.14,565.88,167.49,565.88z M166.48,629.33c-7.63-0.23-10.96-7.15-12.13-15.75
			c-2.71-19.43,3.67-29.6,14.02-29.15c9.57,0.45,11.06,9.61,12.02,16.42C182.16,613.57,179.05,629.66,166.48,629.33z"/>
		<path class="st0" d="M255.91,617.59c11.64-4.36,17.61-15.64,15.39-28.37c-1.9-10.95-9.63-21.33-28.29-21.33h-31.38l-0.12,78.18
			h21.56l0.02-26.13h3.8l14.6,26.13h21.11l-0.01-1.34L255.91,617.59z M243.09,602.96H232.7l0.07-17.54h10.28
			C253.66,585.42,252.02,602.96,243.09,602.96z"/>
		<polygon class="st0" points="321.34,596.26 302.1,567.89 281.21,567.89 281.09,646.07 302.09,646.07 302.15,613.68 299.82,598.38 
			300.48,598.38 307.57,611.45 318.31,626.98 324.12,626.98 334.73,611.56 341.79,598.27 342.46,598.27 340.36,613.8 340.29,646.07 
			361.28,646.07 361.41,567.89 340.52,567.89 		"/>
		<path class="st0" d="M414.22,567.11h-18.43l-29.04,76.96l0.02,2.01h21.22l4.31-11.84h25.69l4.3,11.84h20.66l-0.01-2.01
			L414.22,567.11z M398.19,616.81l3.96-13.17l2.91-12.17l2.81,12.28l4.18,13.07H398.19z"/>
		<polygon class="st0" points="433.94,585.42 454.16,585.42 454,646.07 474.99,646.07 475.15,585.42 495.49,585.42 495.56,567.89 
			434.02,567.89 		"/>
		<polygon class="st0" points="503.47,646.07 524.47,646.07 524.6,567.89 503.6,567.89 		"/>
		<path class="st0" d="M566.91,565.88c-27.03,0-38.48,22.11-33.58,50.26c3.33,19.1,14.93,31.83,33.36,31.83
			c26.58,0,38.54-21.78,33.52-50.59C596.93,578.5,585.57,565.88,566.91,565.88z M565.9,629.33c-7.64-0.23-10.97-7.15-12.13-15.75
			c-2.71-19.43,3.67-29.6,14.02-29.15c9.57,0.45,11.06,9.61,12.02,16.42C581.59,613.57,578.47,629.66,565.9,629.33z"/>
		<polygon class="st0" points="655.69,593.36 657.53,617.38 657.08,617.38 645.75,592.69 632.05,567.89 610.27,567.89 
			610.15,646.07 631.14,646.07 631.17,625.08 629.06,599.5 629.62,599.5 639.84,621.62 655.15,646.07 676.82,646.07 676.95,567.89 
			655.72,567.89 		"/>
	</g>
	<g>
		<path class="st0" d="M172.26,330.55l78.15-59.84c82.62-63.42,60.29-190.25-64.31-189.8c-60.74,0-108.08,33.05-108.08,107.18h79.05
			c0-50.02,59.4-42.42,59.4-5.8c0,15.63-5.36,25.9-16.97,36.17L73.57,328.76v71.9h222.94v-17.21l-32.11-52.9H172.26z"/>
	</g>
</g>
</svg>
