<?xml version="1.0" encoding="utf-8"?>
<!-- Generator: Adobe Illustrator 23.0.3, SVG Export Plug-In . SVG Version: 6.00 Build 0)  -->
<svg version="1.1" id="Calque_1" xmlns="http://www.w3.org/2000/svg" xmlns:xlink="http://www.w3.org/1999/xlink" x="0px" y="0px"
	 viewBox="0 0 750.6 728.8" style="enable-background:new 0 0 750.6 728.8;" xml:space="preserve">
<style type="text/css">
	.st0{fill:#FFFFFF;}
</style>
<path class="st0" d="M58.6,346.5h138.8v53H276v-53v-70.8v-196h-99L37,311.1L58.6,346.5z M199.4,149.7c0.9-1,1.4-1.5,1.4-1.5
	s0.5,0.5,1.4,1.5c0.8,1,12.3,112.3,11.8,113c-1,1.4-2,2.7-2.9,4c-1.9,2.5-3.6,4.6-5.1,6.4c-1.5,1.8-2.9,3.2-3.7,4.1
	c-0.9,1-1.4,1.5-1.4,1.5s-0.5-0.5-1.4-1.5c-0.9-1-2.2-2.4-3.7-4.1c-1.5-1.8-3.3-3.9-5.1-6.4c-0.9-1.2-1.9-2.6-2.9-4
	C187.1,262,198.6,150.7,199.4,149.7z M119.8,279c0.6-0.9,64.4-12.5,64.9-12.8c0.4-0.3,0.8-0.4,1.3,0.2c0.8,1.1,1.6,2.1,2.3,3
	c1.5,2,2.7,3.9,3.8,5.5c1,1.5,1.9,3,2.4,3.9c0.6,1,0.9,1.5,0.9,1.5s-0.3,0.6-0.9,1.5c-0.6,0.9-1.4,2.4-2.4,3.9
	c-1,1.6-2.3,3.6-3.8,5.5c-0.7,1-1.5,2-2.3,3c-0.4,0.6-0.8,0.5-1.3,0.2c-0.4-0.3-64.3-11.9-64.9-12.8c-0.6-1-0.9-1.5-0.9-1.5
	S119.3,280,119.8,279z"/>
<polygon class="st0" points="587.5,349.1 629.5,348.9 629.5,397.3 677.1,397.3 677.1,255.4 629.5,255.4 629.5,306.2 587.5,306.2 
	587.5,255.4 538.9,255.4 538.9,397.3 587.5,397.3 "/>
<g>
	<polygon class="st0" points="158.8,448.2 158.8,420.7 74.2,420.7 74,544.8 158.6,544.8 158.7,517 106.6,517 106.6,497 155.9,497 
		155.9,469.1 106.6,469.1 106.6,448.2 	"/>
	<polygon class="st0" points="271.9,544.8 305.2,544.8 305.4,420.7 272.3,420.7 241.8,465.8 211.3,420.7 178.1,420.7 177.9,544.8 
		211.3,544.8 211.3,493.4 207.7,469.1 208.7,469.1 219.9,489.9 237,514.5 246.2,514.5 263.1,490.1 274.3,469 275.4,469 272,493.6 	
		"/>
	<path class="st0" d="M325.5,420.7l-0.2,124.1H359l0.1-36.2c6.2,0,12.2,0,18.4,0c27,0,42.7-16.8,42.1-43.4
		c-0.5-21.1-8.6-44.5-44.1-44.5H325.5z M375.5,481.7h-16.3l0.1-33.2h16.3C393.1,448.6,390.6,481.7,375.5,481.7z"/>
	<polygon class="st0" points="432.6,420.7 432.4,544.8 516.1,544.8 516.2,515.8 466.2,515.8 466.3,420.7 	"/>
	<path class="st0" d="M629.6,467.5c-5.2-30-23.3-50-52.9-50c-42.9,0-61.1,35.1-53.3,79.8c5.3,30.3,23.7,50.5,53,50.5
		C618.6,547.9,637.6,513.3,629.6,467.5z M575.2,518.3c-12.1-0.4-17.4-11.3-19.2-25c-4.3-30.9,5.8-47,22.3-46.3
		c15.2,0.7,17.6,15.3,19.1,26.1C600.1,493.2,595.1,518.8,575.2,518.3z"/>
	<polygon class="st0" points="643.5,544.8 676.8,544.8 677,420.7 643.7,420.7 	"/>
</g>
<g>
	<polygon class="st0" points="127.5,584.3 127.5,566.7 74.2,566.7 74.1,644.9 95.2,644.9 95.2,615.5 125,615.5 125.1,598 95.3,598 
		95.3,584.3 	"/>
	<path class="st0" d="M167.5,564.7c-27,0-38.5,22.1-33.6,50.3c3.3,19.1,14.9,31.8,33.4,31.8c26.6,0,38.5-21.8,33.5-50.6
		C197.6,577.3,186.2,564.7,167.5,564.7z M166.5,628.2c-7.6-0.2-11-7.2-12.1-15.8c-2.7-19.4,3.7-29.6,14-29.2
		c9.6,0.4,11.1,9.6,12,16.4C182.2,612.4,179.1,628.5,166.5,628.2z"/>
	<path class="st0" d="M256,616.4c11.6-4.4,17.6-15.6,15.4-28.4c-1.9-10.9-9.6-21.3-28.3-21.3h-31.4l-0.1,78.2h21.6l0-26.1h3.8
		l14.6,26.1h21.1l0-1.3L256,616.4z M243.1,601.8h-10.4l0.1-17.5h10.3C253.7,584.3,252.1,601.8,243.1,601.8z"/>
	<polygon class="st0" points="321.4,595.1 302.2,566.7 281.3,566.7 281.1,644.9 302.1,644.9 302.2,612.5 299.9,597.2 300.5,597.2 
		307.6,610.3 318.4,625.8 324.2,625.8 334.8,610.4 341.8,597.1 342.5,597.1 340.4,612.6 340.3,644.9 361.3,644.9 361.5,566.7 
		340.6,566.7 	"/>
	<path class="st0" d="M414.3,566h-18.4l-29,77l0,2H388l4.3-11.8H418l4.3,11.8H443l0-2L414.3,566z M398.2,615.7l4-13.2l2.9-12.2
		l2.8,12.3l4.2,13.1H398.2z"/>
	<polygon class="st0" points="434,584.3 454.2,584.3 454,644.9 475,644.9 475.2,584.3 495.5,584.3 495.6,566.7 434.1,566.7 	"/>
	<polygon class="st0" points="503.5,644.9 524.5,644.9 524.6,566.7 503.7,566.7 	"/>
	<path class="st0" d="M567,564.7c-27,0-38.5,22.1-33.6,50.3c3.3,19.1,14.9,31.8,33.4,31.8c26.6,0,38.5-21.8,33.5-50.6
		C597,577.3,585.6,564.7,567,564.7z M566,628.2c-7.6-0.2-11-7.2-12.1-15.8c-2.7-19.4,3.7-29.6,14-29.2c9.6,0.4,11.1,9.6,12,16.4
		C581.6,612.4,578.5,628.5,566,628.2z"/>
	<polygon class="st0" points="655.7,592.2 657.6,616.2 657.1,616.2 645.8,591.5 632.1,566.7 610.3,566.7 610.2,644.9 631.2,644.9 
		631.2,623.9 629.1,598.3 629.7,598.3 639.9,620.5 655.2,644.9 676.9,644.9 677,566.7 655.8,566.7 	"/>
</g>
<g>
	<path class="st0" d="M481.3,232c23.7-11,35.1-31.1,35.5-57c1.3-63.1-41.6-96-109.1-96c-67.5,0-110.4,32.9-109.1,96
		c0.4,24.1,11.8,46,35.5,57c-29.8,13.6-45.1,37.7-45.1,71c0,71,50.8,96.8,118.7,96.8c67.5,0,118.3-25.9,118.3-96.8
		C526,269.7,511.1,245.6,481.3,232z M408.6,361c0,0-16.9-117.4-16.2-118.2c1.2-1.5,2.4-3,3.5-4.3c2.3-2.7,4.4-5.1,6.3-7
		c1.8-1.9,3.5-3.5,4.6-4.5c1.1-1,1.8-1.6,1.8-1.6s0.7,0.6,1.8,1.6c1.1,1,2.8,2.6,4.6,4.5c1.9,1.9,4,4.3,6.3,7
		c1.1,1.4,2.3,2.8,3.5,4.3C425.6,243.6,408.6,361,408.6,361z M408.6,132.5c0,0,16.9,70.5,16.2,71.2c-1.2,1.5-2.4,3-3.5,4.3
		c-2.3,2.7-4.4,5.1-6.3,7c-1.8,1.9-3.5,3.5-4.6,4.5c-1.1,1-1.8,1.6-1.8,1.6s-0.7-0.6-1.8-1.6c-1.1-1-2.8-2.6-4.6-4.5
		c-1.9-1.9-4-4.3-6.3-7c-1.1-1.4-2.3-2.8-3.5-4.3C391.7,203,408.6,132.5,408.6,132.5z"/>
</g>
<g>
	<path class="st0" d="M83.2,381.7c-4.4-0.3-4.8-0.4-4.8-3c0-2.3,0.7-2.7,4.9-2.7c3,0,3.9,0.1,3.9,2.4v0.8h4.6v-0.8
		c0-6.2-4.1-6.2-8.5-6.2c-5.1,0-9.4,0-9.4,6.5c0,6.3,3.5,6.5,8,6.7c0.3,0,0.5,0,0.8,0c0.4,0,0.8,0,1.2,0c2.6,0.1,3.7,0.1,3.7,2.8
		c0,2.6-0.5,3.2-4.3,3.2c-4.1,0-5-0.2-5-2.6v-1.2h-4.6v1.2c0,2.9,0.9,4.7,2.8,5.6c1.6,0.8,3.8,0.8,6.1,0.8c0.1,0,0.2,0,0.3,0h0.3
		c6.1,0,8.9-0.7,8.9-7C92.2,382.5,90.2,382.1,83.2,381.7z"/>
	<path class="st0" d="M100.3,372.4l-7.6,22.7h4.7l1.4-4.3h9.5l1.5,4.3h4.6l-7.7-22.7H100.3z M107.4,387.4H100l3.7-11.2L107.4,387.4z
		"/>
	<polygon class="st0" points="120.7,372.4 116.2,372.4 116.2,395.2 131.2,395.2 131.2,391.2 120.7,391.2 	"/>
	<path class="st0" d="M141.9,372.2c-7.1,0-9.6,1.3-9.6,8.3v6.1c0,7.4,2.5,8.7,9.6,8.7c6.7,0,9.7-1.3,9.7-8.7v-6.1
		C151.7,373.4,148.7,372.2,141.9,372.2z M136.9,380.6c0.1-3.6,0.6-4.4,5.1-4.4c2,0,3.5,0.1,4.3,0.9c0.6,0.6,0.9,1.7,0.8,3.5v6.1
		c0,4.1-1.2,4.8-5.2,4.8c-4.2,0-5.1-0.4-5.1-4.8V380.6z"/>
	<polygon class="st0" points="171.1,372.4 171.4,391.1 161.9,372.5 161.9,372.4 154.6,372.4 154.6,395.2 159.1,395.2 158.8,376.5 
		168.3,395.1 168.3,395.2 175.7,395.2 175.7,372.4 	"/>
</g>
</svg>
