<?xml version="1.0" encoding="utf-8"?>
<!-- Generator: $$$/GeneralStr/196=Adobe Illustrator 27.6.0, SVG Export Plug-In . SVG Version: 6.00 Build 0)  -->
<svg version="1.1" xmlns="http://www.w3.org/2000/svg" xmlns:xlink="http://www.w3.org/1999/xlink" x="0px" y="0px"
	 viewBox="0 160 541.71 250" style="enable-background:new 0 0 541.71 541.71;" xml:space="preserve">
<style type="text/css">
	.st0{fill:#575756}
</style>
<g id="Textes">
</g>
<g id="Calque_2">
	<g>
		<g>
			<g>
				<path class="st0" d="M94.95,172.61h9.32v1.08c-0.4,0.21-0.84,0.38-1.32,0.53c-0.48,0.14-0.95,0.24-1.41,0.3v16.19h5.48l1.9-5.1
					h1.16c0.08,0.44,0.15,0.95,0.21,1.54c0.07,0.59,0.12,1.21,0.16,1.85s0.07,1.28,0.09,1.91c0.02,0.63,0.02,1.18,0,1.65H94.95
					v-1.08c0.44-0.23,0.85-0.41,1.24-0.54c0.39-0.13,0.75-0.23,1.09-0.29v-16.14c-0.93-0.15-1.7-0.43-2.33-0.83V172.61z"/>
				<path class="st0" d="M134.96,172.61c-0.04,0.86-0.1,1.74-0.2,2.65c-0.1,0.91-0.22,1.77-0.37,2.57h-1.17l-1.31-3.36h-5.31v6.99
					h3.46l1.25-2.2h0.91c0.09,0.93,0.14,1.97,0.14,3.11c0,1.14-0.05,2.21-0.14,3.19h-0.91l-1.25-2.25h-3.46v7.41h5.54l1.51-3.62
					h1.17c0.07,0.36,0.15,0.77,0.23,1.23c0.08,0.46,0.14,0.93,0.19,1.41c0.05,0.48,0.09,0.97,0.11,1.47
					c0.03,0.5,0.04,0.95,0.04,1.37h-15.36v-1.08c0.32-0.17,0.68-0.33,1.08-0.48s0.81-0.27,1.25-0.34v-16.14
					c-0.38-0.08-0.78-0.19-1.21-0.33c-0.43-0.14-0.8-0.31-1.12-0.5v-1.08H134.96z"/>
				<path class="st0" d="M168.48,190.66c0.44,0.09,0.82,0.22,1.16,0.37c0.34,0.15,0.67,0.3,0.99,0.45v1.08h-8.75v-1.08
					c0.42-0.23,0.81-0.4,1.19-0.53c0.38-0.12,0.76-0.22,1.14-0.3v-16.14c-0.95-0.21-1.72-0.48-2.33-0.83v-1.08h3.01
					c0.38,0,0.81-0.01,1.29-0.03c0.48-0.02,0.99-0.04,1.52-0.07c0.53-0.03,1.07-0.06,1.62-0.09c0.55-0.03,1.08-0.04,1.59-0.04
					c1.04,0,2,0.12,2.88,0.36c0.88,0.24,1.64,0.6,2.27,1.07c0.63,0.48,1.13,1.07,1.48,1.79c0.35,0.72,0.53,1.55,0.53,2.51
					c0,1.37-0.33,2.5-0.99,3.38c-0.66,0.88-1.57,1.54-2.73,1.98c0.76,1.19,1.56,2.4,2.41,3.64c0.85,1.24,1.75,2.43,2.7,3.58
					l1.36,0.91v0.97h-4.74l-1.22-0.94c-0.87-1.04-1.64-2.24-2.32-3.61c-0.67-1.37-1.26-2.72-1.77-4.04h-2.3V190.66z M169.91,174.23
					c-0.59,0-1.07,0.06-1.43,0.17v7.95h1.68c0.97,0,1.8-0.35,2.49-1.04c0.69-0.69,1.03-1.73,1.03-3.09c0-0.7-0.1-1.31-0.29-1.81
					c-0.19-0.5-0.46-0.92-0.8-1.24c-0.34-0.32-0.74-0.56-1.2-0.71C170.94,174.31,170.44,174.23,169.91,174.23z"/>
				<path class="st0" d="M205.15,172.61c-0.04,0.86-0.1,1.74-0.2,2.65c-0.1,0.91-0.22,1.77-0.37,2.57h-1.17l-1.31-3.36h-5.31v6.99
					h3.46l1.25-2.2h0.91c0.09,0.93,0.14,1.97,0.14,3.11c0,1.14-0.05,2.21-0.14,3.19h-0.91l-1.25-2.25h-3.46v7.41h5.54l1.51-3.62
					h1.17c0.07,0.36,0.15,0.77,0.23,1.23c0.08,0.46,0.14,0.93,0.19,1.41c0.05,0.48,0.09,0.97,0.11,1.47
					c0.03,0.5,0.04,0.95,0.04,1.37h-15.36v-1.08c0.32-0.17,0.68-0.33,1.08-0.48c0.4-0.15,0.81-0.27,1.25-0.34v-16.14
					c-0.38-0.08-0.78-0.19-1.21-0.33c-0.43-0.14-0.8-0.31-1.12-0.5v-1.08H205.15z"/>
				<path class="st0" d="M229.23,172.61h7.04v1.11c-0.36,0.29-0.76,0.54-1.19,0.76s-0.84,0.38-1.22,0.5v17.94h-2.41l-10.03-14.54
					l-1.14-2.2h-0.09l0.26,2.28v11.89c0.38,0.09,0.8,0.25,1.26,0.47s0.86,0.44,1.18,0.67v1.08h-7.02v-1.08
					c0.34-0.23,0.71-0.44,1.12-0.64c0.41-0.2,0.83-0.37,1.26-0.5V174.8c-0.38-0.15-0.76-0.32-1.14-0.51
					c-0.38-0.19-0.72-0.39-1.02-0.6v-1.08h6.13l8.15,11.86l1.31,2.45h0.11l-0.14-2.45v-9.5c-0.45-0.15-0.89-0.34-1.32-0.56
					s-0.8-0.45-1.12-0.7V172.61z"/>
				<path class="st0" d="M245.93,192.56v-1.08c0.32-0.19,0.68-0.36,1.08-0.5c0.4-0.14,0.81-0.25,1.25-0.33v-16.14
					c-0.44-0.1-0.86-0.21-1.26-0.36c-0.41-0.14-0.76-0.3-1.07-0.47v-1.08h3.29c0.32,0,0.72-0.01,1.19-0.03
					c0.47-0.02,0.97-0.04,1.48-0.07c0.51-0.03,1.01-0.06,1.49-0.09c0.48-0.03,0.89-0.04,1.24-0.04c1.65,0,3.12,0.22,4.42,0.66
					c1.3,0.44,2.4,1.07,3.29,1.91c0.9,0.84,1.59,1.87,2.07,3.11s0.72,2.66,0.72,4.28c0,1.58-0.23,3.01-0.68,4.3
					c-0.45,1.29-1.14,2.4-2.04,3.31c-0.91,0.91-2.06,1.62-3.45,2.12c-1.39,0.5-3.03,0.76-4.9,0.76c-0.25,0-0.58-0.01-0.99-0.04
					c-0.42-0.03-0.86-0.06-1.34-0.09c-0.47-0.03-0.95-0.06-1.42-0.09c-0.47-0.03-0.89-0.04-1.25-0.04H245.93z M254.25,174.23
					c-0.34,0-0.68,0.01-1.02,0.03c-0.34,0.02-0.64,0.05-0.88,0.09v16.51c0.08,0.02,0.21,0.03,0.4,0.04
					c0.19,0.01,0.38,0.02,0.58,0.03c0.2,0.01,0.39,0.02,0.58,0.03c0.19,0.01,0.33,0.01,0.43,0.01c1.1,0,2.03-0.23,2.8-0.69
					c0.77-0.45,1.4-1.07,1.89-1.85c0.49-0.78,0.85-1.69,1.08-2.74c0.23-1.04,0.34-2.16,0.34-3.33c0-1.05-0.12-2.05-0.36-3.02
					c-0.24-0.97-0.6-1.83-1.09-2.6c-0.49-0.76-1.13-1.37-1.92-1.82C256.3,174.46,255.35,174.23,254.25,174.23z"/>
				<path class="st0" d="M290.3,172.61c-0.04,0.86-0.1,1.74-0.2,2.65c-0.1,0.91-0.22,1.77-0.37,2.57h-1.17l-1.31-3.36h-5.31v6.99
					h3.46l1.25-2.2h0.91c0.09,0.93,0.14,1.97,0.14,3.11c0,1.14-0.05,2.21-0.14,3.19h-0.91l-1.25-2.25h-3.46v7.41h5.54l1.51-3.62
					h1.17c0.07,0.36,0.15,0.77,0.23,1.23c0.08,0.46,0.14,0.93,0.19,1.41c0.05,0.48,0.09,0.97,0.11,1.47
					c0.03,0.5,0.04,0.95,0.04,1.37h-15.36v-1.08c0.32-0.17,0.68-0.33,1.08-0.48c0.4-0.15,0.81-0.27,1.25-0.34v-16.14
					c-0.38-0.08-0.78-0.19-1.21-0.33c-0.43-0.14-0.8-0.31-1.12-0.5v-1.08H290.3z"/>
				<path class="st0" d="M315.72,186.55h1.19c0.07,0.4,0.15,0.85,0.21,1.35c0.07,0.5,0.13,1.03,0.19,1.57
					c0.06,0.54,0.1,1.08,0.13,1.61c0.03,0.53,0.04,1.03,0.04,1.48h-16.02v-1.85l11.02-16.25h-7.04l-1.68,4.08h-1.19
					c-0.1-0.42-0.18-0.89-0.26-1.43c-0.08-0.53-0.14-1.07-0.2-1.61c-0.06-0.54-0.09-1.06-0.11-1.57c-0.02-0.5-0.03-0.95-0.03-1.33
					h15.17v1.85l-10.96,16.25h7.78L315.72,186.55z"/>
				<path class="st0" d="M328.1,183.24h8.01v2.57h-8.01V183.24z"/>
				<path class="st0" d="M360.62,174.52c-0.45-0.1-0.89-0.22-1.29-0.37c-0.41-0.15-0.77-0.3-1.09-0.46v-1.08h7.21v1.08
					c-0.23,0.15-0.53,0.31-0.89,0.46c-0.37,0.15-0.75,0.28-1.15,0.37l-6.53,18.05l-2.81,0.34l-7.33-18.39
					c-0.38-0.1-0.76-0.21-1.14-0.36c-0.38-0.14-0.71-0.3-0.99-0.47v-1.08h9.46v1.08c-0.32,0.15-0.68,0.31-1.08,0.46
					c-0.4,0.15-0.81,0.28-1.25,0.37l3.98,11.23l0.65,2.68h0.06l0.63-2.74L360.62,174.52z"/>
				<path class="st0" d="M373.83,182.58c0-1.48,0.21-2.86,0.63-4.12c0.42-1.26,1.03-2.36,1.85-3.28s1.82-1.64,3.01-2.15
					c1.19-0.51,2.57-0.77,4.12-0.77s2.92,0.26,4.12,0.77c1.19,0.51,2.19,1.23,3,2.15c0.8,0.92,1.42,2.01,1.83,3.28
					c0.42,1.26,0.63,2.64,0.63,4.12s-0.21,2.86-0.63,4.12c-0.42,1.26-1.03,2.36-1.83,3.28c-0.8,0.92-1.8,1.64-3,2.15
					c-1.19,0.51-2.57,0.77-4.12,0.77s-2.92-0.26-4.12-0.77c-1.19-0.51-2.2-1.23-3.01-2.15c-0.81-0.92-1.43-2.01-1.85-3.28
					C374.04,185.44,373.83,184.07,373.83,182.58z M378.66,182.58c0,1.22,0.09,2.34,0.28,3.38c0.19,1.04,0.49,1.93,0.89,2.68
					c0.41,0.75,0.93,1.34,1.56,1.77s1.4,0.64,2.29,0.64c0.81,0,1.51-0.21,2.07-0.64c0.57-0.43,1.03-1.02,1.39-1.77
					c0.36-0.75,0.62-1.64,0.78-2.68c0.16-1.04,0.24-2.16,0.24-3.38s-0.09-2.34-0.27-3.38c-0.18-1.04-0.46-1.93-0.85-2.68
					c-0.39-0.75-0.9-1.34-1.53-1.77c-0.63-0.43-1.4-0.64-2.31-0.64c-0.87,0-1.6,0.21-2.19,0.64c-0.59,0.43-1.05,1.02-1.4,1.77
					c-0.35,0.75-0.6,1.64-0.74,2.68C378.73,180.24,378.66,181.37,378.66,182.58z"/>
				<path class="st0" d="M402.85,172.61h8.75v1.08c-0.63,0.4-1.35,0.67-2.16,0.83v10.98c0,0.93,0.1,1.71,0.31,2.34
					c0.21,0.63,0.51,1.14,0.91,1.52c0.4,0.39,0.88,0.67,1.43,0.84c0.56,0.17,1.19,0.26,1.89,0.26c0.62,0,1.2-0.09,1.72-0.27
					c0.52-0.18,0.98-0.47,1.36-0.87c0.39-0.4,0.69-0.92,0.89-1.57c0.21-0.64,0.31-1.44,0.31-2.39v-10.69
					c-0.44-0.09-0.88-0.23-1.35-0.4c-0.47-0.17-0.85-0.36-1.15-0.57v-1.08h7.04v1.08c-0.34,0.25-0.72,0.45-1.14,0.6
					c-0.42,0.15-0.82,0.28-1.22,0.37v10.72c0,2.43-0.64,4.28-1.92,5.54c-1.28,1.26-3.08,1.9-5.41,1.9c-2.54,0-4.5-0.57-5.88-1.71
					c-1.38-1.14-2.07-2.97-2.07-5.47v-11.12c-0.38-0.06-0.78-0.16-1.19-0.3c-0.42-0.14-0.79-0.32-1.14-0.53V172.61z"/>
				<path class="st0" d="M435.94,190.2c0.21,0.21,0.5,0.4,0.88,0.58c0.38,0.18,0.88,0.27,1.51,0.27c1.04,0,1.91-0.27,2.6-0.81
					c0.69-0.54,1.04-1.3,1.04-2.27c0-0.7-0.22-1.29-0.67-1.77c-0.44-0.47-1.01-0.91-1.69-1.31c-0.68-0.4-1.41-0.79-2.19-1.18
					c-0.78-0.39-1.51-0.85-2.19-1.38c-0.68-0.53-1.24-1.17-1.69-1.9c-0.44-0.73-0.67-1.64-0.67-2.72c0-0.93,0.17-1.74,0.51-2.42
					c0.34-0.68,0.81-1.25,1.41-1.7c0.6-0.45,1.3-0.78,2.12-1c0.81-0.22,1.7-0.33,2.64-0.33c1.15,0,2.23,0.08,3.22,0.24
					c0.99,0.16,1.89,0.41,2.68,0.76c-0.02,0.38-0.05,0.82-0.1,1.31c-0.05,0.49-0.11,0.98-0.19,1.47c-0.07,0.48-0.16,0.94-0.24,1.37
					s-0.17,0.78-0.24,1.07h-1.17l-1.31-3.91c-0.23-0.11-0.57-0.22-1.01-0.31c-0.45-0.09-0.91-0.14-1.38-0.14
					c-0.8,0-1.48,0.21-2.03,0.63c-0.55,0.42-0.83,1.03-0.83,1.83c0,0.72,0.23,1.34,0.68,1.84c0.45,0.5,1.02,0.96,1.71,1.38
					c0.69,0.42,1.43,0.83,2.24,1.24c0.81,0.41,1.55,0.88,2.24,1.41c0.68,0.53,1.25,1.15,1.71,1.87c0.45,0.71,0.68,1.59,0.68,2.64
					c0,1.9-0.64,3.37-1.92,4.4c-1.28,1.04-3.16,1.55-5.64,1.55c-0.61,0-1.22-0.04-1.83-0.12c-0.62-0.07-1.2-0.18-1.75-0.31
					c-0.55-0.13-1.04-0.28-1.46-0.43c-0.42-0.15-0.74-0.31-0.95-0.48c0.02-0.44,0.07-0.91,0.14-1.41c0.08-0.5,0.16-1.01,0.24-1.51
					c0.09-0.5,0.18-0.98,0.27-1.44s0.19-0.85,0.28-1.2h1.16L435.94,190.2z"/>
			</g>
		</g>
		<g>
			<path class="st0" d="M62.11,248.72c5.33-1.15,8.35-4.28,8.96-9.3l0.24-2.07l-0.01-9.86l-0.24-1.95
				c-0.62-5.01-3.66-8.13-9.25-9.31l-28.24-0.13v56.02h9.48v-23.25h8.26l10.19,23.25h10.36l-10.23-23.36L62.11,248.72z
				 M43.06,225.61l16.67-0.01l0.93,0.11c0.48,0.22,0.79,0.56,0.95,0.92l0.22,0.89l0.02,9.59l-0.19,0.94
				c-0.22,0.56-0.58,0.92-0.96,1.09l-0.86,0.22H43.06V225.61z"/>
			<polygon class="st0" points="115.82,262.61 87.45,262.61 87.45,248.87 108.3,248.87 108.3,239.36 87.45,239.36 87.45,225.61 
				115.82,225.61 115.82,216.1 77.96,216.1 77.96,272.12 115.82,272.12 			"/>
			<path class="st0" d="M132,272.12h14.73l2.15-0.25c2.28-0.27,4.32-1.32,6.07-3.1c1.73-1.76,2.84-3.78,3.31-6.21v-7.25h-9.48
				l0,5.08l-0.1,1.07c-0.27,0.5-0.61,0.81-0.91,0.92l-1.02,0.23l-14.63,0.02l-1.13-0.23c-0.48-0.15-0.79-0.43-1-0.9l-0.11-33.77
				l0.11-0.94c0.22-0.48,0.56-0.8,0.9-0.95l1.02-0.22l14.64-0.02l1.01,0.18c0.46,0.21,0.83,0.56,1.12,1.07l0.09,5.96h9.48
				l-0.02-7.41c-0.45-2.21-1.56-4.21-3.29-5.96c-1.76-1.78-3.8-2.81-6.07-3.08l-2.21-0.25l-14.79,0.01l-2.08,0.24
				c-2.28,0.27-4.32,1.31-6.08,3.1c-1.73,1.76-2.84,3.78-3.3,6.2v34.86l0.02,2.27c0.44,2.21,1.55,4.23,3.29,5.99
				c1.76,1.79,3.81,2.83,6.08,3.09L132,272.12z"/>
			<path class="st0" d="M201.14,272.12l-10.24-23.36l0.47-0.04c5.33-1.15,8.35-4.28,8.96-9.3l0.24-2.07l-0.01-9.86l-0.24-1.95
				c-0.62-5.01-3.66-8.13-9.25-9.31l-28.24-0.13v56.02h9.48v-23.25h8.26l10.19,23.25H201.14z M172.33,225.61l16.67-0.01l0.93,0.11
				c0.48,0.22,0.79,0.56,0.95,0.92l0.22,0.89l0.02,9.59l-0.19,0.94c-0.22,0.56-0.58,0.92-0.96,1.09l-0.86,0.22h-16.79V225.61z"/>
			<path class="st0" d="M245.22,216.1h-9.48l0,44.28l-0.11,1.09c-0.22,0.44-0.56,0.74-0.9,0.9l-1.02,0.23l-14.63,0.02l-1.04-0.2
				c-0.52-0.21-0.87-0.52-1.1-0.96l-0.1-45.37h-9.48v44.41l0.02,2.26c0.44,2.3,1.52,4.32,3.21,6.01c1.69,1.69,3.73,2.76,6.23,3.22
				l16.89,0.12l2.24-0.14c2.31-0.44,4.34-1.51,6.03-3.2c1.69-1.68,2.77-3.7,3.24-6.2V216.1z"/>
			<polygon class="st0" points="266.54,272.12 276.02,272.12 276.02,225.61 290.21,225.61 290.21,216.1 252.35,216.1 252.35,225.61 
				266.54,225.61 			"/>
			<polygon class="st0" points="333.38,262.61 305,262.61 305,248.87 325.86,248.87 325.86,239.36 305,239.36 305,225.61 
				333.38,225.61 333.38,216.1 295.52,216.1 295.52,272.12 333.38,272.12 			"/>
			<polygon class="st0" points="366.22,272.12 375.7,272.12 375.7,216.1 366.59,216.1 356.76,244.59 347.03,216.1 337.84,216.1 
				337.84,272.12 347.33,272.12 347.33,246.31 356.71,273.8 366.22,246.25 			"/>
			<polygon class="st0" points="420.82,262.61 392.44,262.61 392.44,248.87 413.3,248.87 413.3,239.36 392.44,239.36 392.44,225.61 
				420.82,225.61 420.82,216.1 382.96,216.1 382.96,272.12 420.82,272.12 			"/>
			<polygon class="st0" points="434.76,236.74 454.01,272.12 463.02,272.12 463.02,216.1 453.54,216.1 453.54,251.4 434.34,216.1 
				425.28,216.1 425.28,272.12 434.76,272.12 			"/>
			<polygon class="st0" points="470.27,216.1 470.27,225.61 484.46,225.61 484.46,272.12 493.94,272.12 493.94,225.61 
				508.13,225.61 508.13,216.1 			"/>
		</g>
		<g>
			<polygon class="st0" points="74.63,369.45 124.24,369.45 124.24,357.5 86.54,357.5 86.54,338.55 114.25,338.55 114.25,326.6 
				86.54,326.6 86.54,307.67 124.24,307.67 124.24,295.72 74.63,295.72 			"/>
			<polygon class="st0" points="167.75,295.72 155.75,319.68 143.57,295.72 130.2,295.72 148.89,332.49 130.29,369.45 
				143.66,369.45 155.75,345.65 167.67,369.45 181.04,369.45 162.25,332.49 181.14,295.72 			"/>
			<path class="st0" d="M237.81,307.95c-0.35-2.93-1.69-5.56-4-7.82c-2.27-2.24-4.89-3.66-7.96-4.26l-37.17-0.16v73.73h11.91v-30.73
				l23.1-0.01l2.46-0.33c2.84-0.57,5.43-2,7.69-4.25c2.28-2.26,3.62-4.89,3.96-7.81l0.33-2.72l-0.01-12.9L237.81,307.95z
				 M200.6,307.67l22.52-0.01l1.3,0.15c0.73,0.34,1.24,0.88,1.5,1.48l0.3,1.44l0.02,12.75l-0.33,1.5c-0.09,0.45-0.35,1.1-1.46,1.48
				l-1.21,0.31H200.6V307.67z"/>
			<polygon class="st0" points="244.92,369.45 294.53,369.45 294.53,357.5 256.84,357.5 256.84,338.55 284.54,338.55 284.54,326.6 
				256.84,326.6 256.84,307.67 294.53,307.67 294.53,295.72 244.92,295.72 			"/>
			<path class="st0" d="M338.63,338.37c6.92-1.5,10.84-5.55,11.64-12.05l0.33-2.72l-0.01-13.07l-0.32-2.59
				c-0.81-6.49-4.76-10.55-11.95-12.07l-37.17-0.16v73.73h11.91v-30.89h11.55l13.53,30.89h13.01l-13.58-31L338.63,338.37z
				 M313.06,307.67l22.52-0.01l1.3,0.15c0.73,0.33,1.25,0.86,1.51,1.49l0.29,1.25l0.02,12.82l-0.27,1.31
				c-0.33,0.81-0.87,1.37-1.51,1.65l-1.22,0.3h-22.64V307.67z"/>
			<polygon class="st0" points="359.95,307.67 378.8,307.67 378.8,369.45 390.71,369.45 390.71,307.67 409.56,307.67 409.56,295.72 
				359.95,295.72 			"/>
			<path class="st0" d="M467.08,314.13l-0.02-6.38c-0.58-2.86-2.02-5.46-4.27-7.73c-2.28-2.3-4.93-3.64-7.87-3.99l-2.89-0.33
				l-19.62,0.01l-2.77,0.32c-2.96,0.35-5.6,1.71-7.87,4.03c-2.25,2.29-3.69,4.91-4.29,8l0.02,18.31c0.58,3,1.98,5.63,4.17,7.82
				c2.2,2.19,4.83,3.6,8.03,4.19l22.13-0.02l1.46,0.26c0.74,0.33,1.32,0.9,1.76,1.72l0.14,1.21v12.67l-0.14,1.49
				c-0.41,0.78-0.93,1.26-1.47,1.46l-1.42,0.32l-19.51,0.02l-1.51-0.3c-0.67-0.23-1.19-0.72-1.6-1.5l-0.14-1.38v-3.95h-11.91
				l0.02,6.9c1.39,7.04,5.45,11.02,12.09,11.83l2.88,0.33h19.69l2.82-0.33c6.51-0.81,10.59-4.79,12.11-12.03l-0.02-18.48
				c-0.58-2.88-2.01-5.5-4.26-7.8c-2.27-2.32-4.92-3.68-7.83-4.03l-2.57-0.33l-19.79,0.02l-1.44-0.27
				c-0.77-0.31-1.31-0.82-1.65-1.56l-0.14-1.19l-0.01-12.66l0.15-1.28c0.41-0.83,0.92-1.34,1.47-1.53l1.42-0.3l19.53-0.02l1.44,0.27
				c0.77,0.31,1.32,0.82,1.65,1.56l0.14,1.19v3.47H467.08z"/>
		</g>
	</g>
</g>
</svg>
