<svg id="Calque_1" xmlns="http://www.w3.org/2000/svg" viewBox="0 0 283.46 283.46"><path class="st0" d="M214.73 131.84l-.57 4.94c-.14 1 .67 1.7 1.7 1.7l7.71.09c1.02 0 1.83.8 1.75 1.74l-.52 6.02c-.07.84-.83 1.48-1.75 1.48h-8.19c-.91 0-1.67.64-1.75 1.48l-1.29 13.55c-.07.84-.83 1.48-1.75 1.48H199.2c-1.02 0-1.83-.8-1.75-1.74l2.89-31.59c.5-3.66 1.13-12.82 11.98-12.82l15.76-.01c.84.07 1.48.83 1.48 1.75l-.73 8.32c-.18 1.15-.99 1.74-1.75 1.74l-9.84.05c-.01-.01-2.01-.49-2.51 1.82zM66.47 164.24H22.38a1.95 1.95 0 0 1-1.94-2.09l5.66-78.48a1.94 1.94 0 0 1 1.94-1.81h17.95c1.13 0 2.02.96 1.94 2.09l-4.45 62.28a1.95 1.95 0 0 0 1.94 2.09h21.95c1.13 0 2.03.96 1.94 2.09l-.9 12.03a1.94 1.94 0 0 1-1.94 1.8zM180.98 164.24h-17.24a1.94 1.94 0 0 1-1.94-2.08l4.67-54.87c.33-4.59-.52-5.6-2.6-5.6h-3.43l-4.84 60.74a1.95 1.95 0 0 1-1.94 1.82h-16.5a1.95 1.95 0 0 1-1.94-2.11l5.65-58.39c.1-1.14-.8-2.11-1.94-2.11h-4.17l-5.75 60.82a1.95 1.95 0 0 1-1.94 1.79h-17.26a1.95 1.95 0 0 1-1.94-2.09l6.41-78.6a1.94 1.94 0 0 1 1.94-1.81h58.89c8.63 0 12.95 5.93 12.95 17.79 0 1.15-.04 2.39-.12 3.7l-5.01 59.2a1.97 1.97 0 0 1-1.95 1.8zM187.51 156.73l-.52 6.83c-.02.3.22.56.52.56h3.88c.77 0 1.41-.59 1.47-1.36l.52-6.83a.53.53 0 0 0-.52-.56h-3.88c-.77 0-1.41.59-1.47 1.36zM25.51 184.39h-7.48l1.58-13.27h7.48l-.26 2.15H22l-.37 3.12h4.42l-.26 2.16h-4.42l-.44 3.69h4.83l-.25 2.15zM41.13 176.11l.16-1.22.16-1.03-.31.8-.34.85-.33.79c-.11.25-.21.47-.31.65l-3.91 7.46h-2.37l-2.09-7.46a6.42 6.42 0 0 1-.16-.66c-.06-.25-.1-.51-.15-.79l-.12-.84-.11-.79-.09 1.07c-.03.4-.08.79-.12 1.16l-.99 8.31h-2.4l1.58-13.27h3.41l2.6 9.19a6.68 6.68 0 0 1 .2 1.24l.26-.69c.07-.2.15-.38.24-.55l4.78-9.19h3.41l-1.58 13.27h-2.4l.98-8.3zM48.7 179.2l-.62 5.19h-2.66L47 171.12h4.9c1.28 0 2.21.35 2.8 1.06.58.7.8 1.65.66 2.84-.07.6-.22 1.16-.45 1.67s-.53.94-.9 1.32c-.38.37-.83.66-1.35.87-.52.21-1.1.32-1.76.32h-2.2zm1.91-2.15c.55 0 1.01-.16 1.38-.47.37-.32.6-.81.68-1.49.07-.61-.04-1.07-.34-1.36-.3-.3-.72-.45-1.27-.45h-1.65l-.45 3.77h1.65zM57.89 171.13h2.66l-1.32 11.11h4.84l-.26 2.15h-7.5l1.58-13.26zM72.66 170.94c.66 0 1.23.09 1.73.28.49.19.9.45 1.22.78.32.33.55.73.69 1.18.13.46.17.95.11 1.47l-.75 6.27a3.96 3.96 0 0 1-1.43 2.65c-.4.33-.87.59-1.41.78-.55.19-1.14.28-1.8.28H69.4c-.66 0-1.23-.1-1.73-.28a3.06 3.06 0 0 1-1.91-1.96 3.77 3.77 0 0 1-.11-1.47l.75-6.27a3.9 3.9 0 0 1 1.43-2.65c.39-.33.87-.59 1.41-.78a5.38 5.38 0 0 1 1.79-.28h1.63zm-1.83 2.15c-.46 0-.85.16-1.18.47a2.1 2.1 0 0 0-.59 1.35l-.68 5.73c-.07.59.02 1.05.27 1.35.25.32.61.47 1.07.47h1.52c.46 0 .85-.16 1.18-.47.33-.31.53-.76.59-1.35l.68-5.73c.07-.59-.02-1.04-.27-1.35-.25-.32-.61-.47-1.07-.47h-1.52zM77.98 184.39l1.58-13.27h2.66l-1.58 13.27h-2.66zM88.33 184.39l1.58-13.27h1.5l-1.58 13.27h-1.5zM98.13 174.26a3.44 3.44 0 0 1 1.37-2.39c.39-.3.85-.53 1.38-.69a5.8 5.8 0 0 1 1.78-.25h.5c1.15 0 2.04.28 2.65.84.62.56.97 1.44 1.07 2.64l-2.68.35a2.85 2.85 0 0 0-.13-.87 1.19 1.19 0 0 0-.33-.51.9.9 0 0 0-.46-.25 2.43 2.43 0 0 0-.55-.07h-.33c-.41 0-.77.1-1.09.32-.31.21-.5.56-.56 1.05l-.02.19a1.16 1.16 0 0 0 .32.98 2.33 2.33 0 0 0 .77.48l2.08.75c.83.3 1.48.72 1.91 1.28.44.56.61 1.28.5 2.19l-.1.9a3.55 3.55 0 0 1-1.41 2.43 5.46 5.46 0 0 1-3.17 1h-.61c-.89 0-1.69-.1-2.41-.31-.72-.2-1.3-.55-1.74-1.04l.32-2.66a4.13 4.13 0 0 0 1.79 1.39c.73.31 1.53.46 2.37.46h.27c.54 0 .98-.13 1.33-.38.36-.26.56-.62.61-1.08l.03-.27c.06-.45-.01-.8-.2-1.05a1.93 1.93 0 0 0-.97-.6l-1.6-.5a7 7 0 0 1-1.23-.59 3.69 3.69 0 0 1-.94-.8 2.67 2.67 0 0 1-.53-1.08c-.1-.41-.13-.88-.07-1.4l.08-.46zM111.21 173.28h-3.44l.26-2.15h9.53l-.26 2.15h-3.44l-1.32 11.11h-2.65l1.32-11.11zM123.35 181.03h-4.4l-1.36 3.36h-2.69l5.72-13.27h3.42l2.56 13.27h-2.69l-.56-3.36zm-.33-2.16l-.49-2.96-.16-.96a38.19 38.19 0 0 1-.3-1.72l-.33.86-.36.88-.39.96-1.19 2.94h3.22zM133.28 182.47a4.77 4.77 0 0 0 1.83-.38l.31-2.62h-1.64l.26-2.14h4.14l-.72 6.06c-.62.37-1.33.67-2.11.89a8.4 8.4 0 0 1-2.38.34h-.96c-.66 0-1.24-.1-1.74-.28-.5-.18-.92-.44-1.25-.78a2.84 2.84 0 0 1-.7-1.18 3.42 3.42 0 0 1-.12-1.47l.75-6.27a3.9 3.9 0 0 1 1.43-2.65c.4-.33.87-.59 1.41-.78a5.38 5.38 0 0 1 1.79-.28h1.08c.64 0 1.18.09 1.63.27a2.94 2.94 0 0 1 1.79 1.83c.15.42.24.88.29 1.38l-2.68.35c-.01-.56-.15-.99-.43-1.26a1.3 1.3 0 0 0-.97-.41h-.79c-.53 0-.95.16-1.29.47-.33.31-.53.77-.6 1.35l-.62 5.25c-.03.31-.03.6.01.89.04.28.13.53.28.73.14.21.33.38.57.5a2 2 0 0 0 .9.18h.53zM147.47 184.39h-7.48l1.58-13.27h7.48l-.26 2.15h-4.83l-.37 3.12h4.42l-.26 2.16h-4.42l-.44 3.69h4.83l-.25 2.15zM154.43 184.39l1.58-13.27h1.5l-1.58 13.27h-1.5zM163.63 184.39l1.58-13.27h7.48l-.26 2.15h-4.83l-.46 3.88h4.43l-.26 2.15h-4.42l-.6 5.08h-2.66zM180.4 170.94c.66 0 1.23.09 1.73.28.49.19.9.45 1.22.78.32.33.55.73.69 1.18.13.46.17.95.11 1.47l-.75 6.27a3.93 3.93 0 0 1-1.43 2.65c-.4.33-.87.59-1.41.78-.55.19-1.14.28-1.8.28h-1.63c-.66 0-1.23-.1-1.73-.28a3.06 3.06 0 0 1-1.91-1.96 3.77 3.77 0 0 1-.11-1.47l.75-6.27a3.9 3.9 0 0 1 1.43-2.65c.39-.33.87-.59 1.41-.78a5.38 5.38 0 0 1 1.79-.28h1.64zm-1.83 2.15c-.46 0-.85.16-1.18.47a2.1 2.1 0 0 0-.59 1.35l-.68 5.73c-.07.59.02 1.05.27 1.35.25.32.61.47 1.07.47h1.52c.46 0 .85-.16 1.18-.47.33-.31.53-.76.59-1.35l.68-5.73c.07-.59-.02-1.04-.27-1.35-.25-.32-.61-.47-1.07-.47h-1.52zM192.18 184.39l-1.92-5.19h-1.27l-.62 5.19h-2.66l1.58-13.27H192c1.44 0 2.47.33 3.1 1 .63.67.88 1.61.73 2.81a4.98 4.98 0 0 1-1.03 2.69 4.17 4.17 0 0 1-1.98 1.29l2.3 5.48h-2.94zm-.91-7.34c.56 0 .99-.16 1.29-.46.3-.31.49-.84.59-1.6.07-.58-.01-1-.26-1.28-.23-.28-.65-.43-1.23-.43h-1.96l-.45 3.77h2.02zM210.53 176.11l.16-1.22.16-1.03-.31.8-.34.85-.33.79c-.11.25-.21.47-.31.65l-3.91 7.46h-2.37l-2.09-7.46a6.42 6.42 0 0 1-.16-.66c-.06-.25-.1-.51-.15-.79l-.12-.84-.11-.79-.09 1.07c-.03.4-.08.79-.12 1.16l-.99 8.31h-2.4l1.58-13.27h3.41l2.6 9.19a6.68 6.68 0 0 1 .2 1.24l.26-.69c.07-.2.15-.38.24-.55l4.78-9.19h3.41l-1.58 13.27h-2.4l.98-8.3zM221.85 181.03h-4.4l-1.37 3.36h-2.69l5.72-13.27h3.42l2.56 13.27h-2.69l-.55-3.36zm-.34-2.16l-.49-2.96-.16-.96-.15-.87-.15-.85-.33.86-.36.88-.39.96-1.19 2.94h3.22zM228.77 173.28h-3.44l.26-2.15h9.53l-.26 2.15h-3.44l-1.32 11.11h-2.65l1.32-11.11zM235.02 184.39l1.58-13.27h2.66l-1.58 13.27h-2.66zM247.83 170.94c.66 0 1.23.09 1.73.28.49.19.9.45 1.22.78.32.33.55.73.69 1.18.13.46.17.95.11 1.47l-.75 6.27a3.93 3.93 0 0 1-1.43 2.65c-.4.33-.87.59-1.41.78-.55.19-1.14.28-1.8.28h-1.63c-.66 0-1.23-.1-1.73-.28a3.06 3.06 0 0 1-1.91-1.96 3.77 3.77 0 0 1-.11-1.47l.75-6.27a3.9 3.9 0 0 1 1.43-2.65c.39-.33.87-.59 1.41-.78a5.38 5.38 0 0 1 1.79-.28h1.64zm-1.83 2.15c-.46 0-.85.16-1.18.47a2.1 2.1 0 0 0-.59 1.35l-.68 5.73c-.07.59.02 1.05.27 1.35.25.32.61.47 1.07.47h1.52c.46 0 .85-.16 1.18-.47.33-.31.53-.76.59-1.35l.68-5.73c.07-.59-.02-1.04-.27-1.35-.25-.32-.61-.47-1.07-.47H246zM263.3 171.13h2.54l-1.58 13.27h-2.9l-4.64-9.57-.07 1.15c-.01.32-.03.66-.07 1.01l-.1.92-.77 6.5h-2.56l1.58-13.27h2.9l4.65 9.57.06-.98a21 21 0 0 1 .17-1.86l.79-6.74z"/><g><path class="st0" d="M25.51 184.39h-7.48l1.58-13.27h7.48l-.26 2.15H22l-.37 3.12h4.42l-.26 2.16h-4.42l-.44 3.69h4.83l-.25 2.15zM41.13 176.11l.16-1.22.16-1.03-.31.8-.34.85-.33.79c-.11.25-.21.47-.31.65l-3.91 7.46h-2.37l-2.09-7.46a6.42 6.42 0 0 1-.16-.66c-.06-.25-.1-.51-.15-.79l-.12-.84-.11-.79-.09 1.07c-.03.4-.08.79-.12 1.16l-.99 8.31h-2.4l1.58-13.27h3.41l2.6 9.19a6.68 6.68 0 0 1 .2 1.24l.26-.69c.07-.2.15-.38.24-.55l4.78-9.19h3.41l-1.58 13.27h-2.4l.98-8.3zM48.7 179.2l-.62 5.19h-2.66L47 171.12h4.9c1.28 0 2.21.35 2.8 1.06.58.7.8 1.65.66 2.84-.07.6-.22 1.16-.45 1.67s-.53.94-.9 1.32c-.38.37-.83.66-1.35.87-.52.21-1.1.32-1.76.32h-2.2zm1.91-2.15c.55 0 1.01-.16 1.38-.47.37-.32.6-.81.68-1.49.07-.61-.04-1.07-.34-1.36-.3-.3-.72-.45-1.27-.45h-1.65l-.45 3.77h1.65zM57.89 171.13h2.66l-1.32 11.11h4.84l-.26 2.15h-7.5l1.58-13.26zM72.66 170.94c.66 0 1.23.09 1.73.28.49.19.9.45 1.22.78.32.33.55.73.69 1.18.13.46.17.95.11 1.47l-.75 6.27a3.96 3.96 0 0 1-1.43 2.65c-.4.33-.87.59-1.41.78-.55.19-1.14.28-1.8.28H69.4c-.66 0-1.23-.1-1.73-.28a3.06 3.06 0 0 1-1.91-1.96 3.77 3.77 0 0 1-.11-1.47l.75-6.27a3.9 3.9 0 0 1 1.43-2.65c.39-.33.87-.59 1.41-.78a5.38 5.38 0 0 1 1.79-.28h1.63zm-1.83 2.15c-.46 0-.85.16-1.18.47a2.1 2.1 0 0 0-.59 1.35l-.68 5.73c-.07.59.02 1.05.27 1.35.25.32.61.47 1.07.47h1.52c.46 0 .85-.16 1.18-.47.33-.31.53-.76.59-1.35l.68-5.73c.07-.59-.02-1.04-.27-1.35-.25-.32-.61-.47-1.07-.47h-1.52zM77.98 184.39l1.58-13.27h2.66l-1.58 13.27h-2.66z"/><path class="st1" d="M88.33 184.39l1.58-13.27h1.5l-1.58 13.27h-1.5z"/><path class="st0" d="M98.13 174.26a3.44 3.44 0 0 1 1.37-2.39c.39-.3.85-.53 1.38-.69a5.8 5.8 0 0 1 1.78-.25h.5c1.15 0 2.04.28 2.65.84.62.56.97 1.44 1.07 2.64l-2.68.35a2.85 2.85 0 0 0-.13-.87 1.19 1.19 0 0 0-.33-.51.9.9 0 0 0-.46-.25 2.43 2.43 0 0 0-.55-.07h-.33c-.41 0-.77.1-1.09.32-.31.21-.5.56-.56 1.05l-.02.19a1.16 1.16 0 0 0 .32.98 2.33 2.33 0 0 0 .77.48l2.08.75c.83.3 1.48.72 1.91 1.28.44.56.61 1.28.5 2.19l-.1.9a3.55 3.55 0 0 1-1.41 2.43 5.46 5.46 0 0 1-3.17 1h-.61c-.89 0-1.69-.1-2.41-.31-.72-.2-1.3-.55-1.74-1.04l.32-2.66a4.13 4.13 0 0 0 1.79 1.39c.73.31 1.53.46 2.37.46h.27c.54 0 .98-.13 1.33-.38.36-.26.56-.62.61-1.08l.03-.27c.06-.45-.01-.8-.2-1.05a1.93 1.93 0 0 0-.97-.6l-1.6-.5a7 7 0 0 1-1.23-.59 3.69 3.69 0 0 1-.94-.8 2.67 2.67 0 0 1-.53-1.08c-.1-.41-.13-.88-.07-1.4l.08-.46zM111.21 173.28h-3.44l.26-2.15h9.53l-.26 2.15h-3.44l-1.32 11.11h-2.65l1.32-11.11zM123.35 181.03h-4.4l-1.36 3.36h-2.69l5.72-13.27h3.42l2.56 13.27h-2.69l-.56-3.36zm-.33-2.16l-.49-2.96-.16-.96a38.19 38.19 0 0 1-.3-1.72l-.33.86-.36.88-.39.96-1.19 2.94h3.22zM133.28 182.47a4.77 4.77 0 0 0 1.83-.38l.31-2.62h-1.64l.26-2.14h4.14l-.72 6.06c-.62.37-1.33.67-2.11.89a8.4 8.4 0 0 1-2.38.34h-.96c-.66 0-1.24-.1-1.74-.28-.5-.18-.92-.44-1.25-.78a2.84 2.84 0 0 1-.7-1.18 3.42 3.42 0 0 1-.12-1.47l.75-6.27a3.9 3.9 0 0 1 1.43-2.65c.4-.33.87-.59 1.41-.78a5.38 5.38 0 0 1 1.79-.28h1.08c.64 0 1.18.09 1.63.27a2.94 2.94 0 0 1 1.79 1.83c.15.42.24.88.29 1.38l-2.68.35c-.01-.56-.15-.99-.43-1.26a1.3 1.3 0 0 0-.97-.41h-.79c-.53 0-.95.16-1.29.47-.33.31-.53.77-.6 1.35l-.62 5.25c-.03.31-.03.6.01.89.04.28.13.53.28.73.14.21.33.38.57.5a2 2 0 0 0 .9.18h.53zM147.47 184.39h-7.48l1.58-13.27h7.48l-.26 2.15h-4.83l-.37 3.12h4.42l-.26 2.16h-4.42l-.44 3.69h4.83l-.25 2.15z"/><path class="st1" d="M154.43 184.39l1.58-13.27h1.5l-1.58 13.27h-1.5z"/><path class="st0" d="M163.63 184.39l1.58-13.27h7.48l-.26 2.15h-4.83l-.46 3.88h4.43l-.26 2.15h-4.42l-.6 5.08h-2.66zM180.4 170.94c.66 0 1.23.09 1.73.28.49.19.9.45 1.22.78.32.33.55.73.69 1.18.13.46.17.95.11 1.47l-.75 6.27a3.93 3.93 0 0 1-1.43 2.65c-.4.33-.87.59-1.41.78-.55.19-1.14.28-1.8.28h-1.63c-.66 0-1.23-.1-1.73-.28a3.06 3.06 0 0 1-1.91-1.96 3.77 3.77 0 0 1-.11-1.47l.75-6.27a3.9 3.9 0 0 1 1.43-2.65c.39-.33.87-.59 1.41-.78a5.38 5.38 0 0 1 1.79-.28h1.64zm-1.83 2.15c-.46 0-.85.16-1.18.47a2.1 2.1 0 0 0-.59 1.35l-.68 5.73c-.07.59.02 1.05.27 1.35.25.32.61.47 1.07.47h1.52c.46 0 .85-.16 1.18-.47.33-.31.53-.76.59-1.35l.68-5.73c.07-.59-.02-1.04-.27-1.35-.25-.32-.61-.47-1.07-.47h-1.52zM192.18 184.39l-1.92-5.19h-1.27l-.62 5.19h-2.66l1.58-13.27H192c1.44 0 2.47.33 3.1 1 .63.67.88 1.61.73 2.81a4.98 4.98 0 0 1-1.03 2.69 4.17 4.17 0 0 1-1.98 1.29l2.3 5.48h-2.94zm-.91-7.34c.56 0 .99-.16 1.29-.46.3-.31.49-.84.59-1.6.07-.58-.01-1-.26-1.28-.23-.28-.65-.43-1.23-.43h-1.96l-.45 3.77h2.02zM210.53 176.11l.16-1.22.16-1.03-.31.8-.34.85-.33.79c-.11.25-.21.47-.31.65l-3.91 7.46h-2.37l-2.09-7.46a6.42 6.42 0 0 1-.16-.66c-.06-.25-.1-.51-.15-.79l-.12-.84-.11-.79-.09 1.07c-.03.4-.08.79-.12 1.16l-.99 8.31h-2.4l1.58-13.27h3.41l2.6 9.19a6.68 6.68 0 0 1 .2 1.24l.26-.69c.07-.2.15-.38.24-.55l4.78-9.19h3.41l-1.58 13.27h-2.4l.98-8.3zM221.85 181.03h-4.4l-1.37 3.36h-2.69l5.72-13.27h3.42l2.56 13.27h-2.69l-.55-3.36zm-.34-2.16l-.49-2.96-.16-.96-.15-.87-.15-.85-.33.86-.36.88-.39.96-1.19 2.94h3.22zM228.77 173.28h-3.44l.26-2.15h9.53l-.26 2.15h-3.44l-1.32 11.11h-2.65l1.32-11.11zM235.02 184.39l1.58-13.27h2.66l-1.58 13.27h-2.66zM247.83 170.94c.66 0 1.23.09 1.73.28.49.19.9.45 1.22.78.32.33.55.73.69 1.18.13.46.17.95.11 1.47l-.75 6.27a3.93 3.93 0 0 1-1.43 2.65c-.4.33-.87.59-1.41.78-.55.19-1.14.28-1.8.28h-1.63c-.66 0-1.23-.1-1.73-.28a3.06 3.06 0 0 1-1.91-1.96 3.77 3.77 0 0 1-.11-1.47l.75-6.27a3.9 3.9 0 0 1 1.43-2.65c.39-.33.87-.59 1.41-.78a5.38 5.38 0 0 1 1.79-.28h1.64zm-1.83 2.15c-.46 0-.85.16-1.18.47a2.1 2.1 0 0 0-.59 1.35l-.68 5.73c-.07.59.02 1.05.27 1.35.25.32.61.47 1.07.47h1.52c.46 0 .85-.16 1.18-.47.33-.31.53-.76.59-1.35l.68-5.73c.07-.59-.02-1.04-.27-1.35-.25-.32-.61-.47-1.07-.47H246zM263.3 171.13h2.54l-1.58 13.27h-2.9l-4.64-9.57-.07 1.15c-.01.32-.03.66-.07 1.01l-.1.92-.77 6.5h-2.56l1.58-13.27h2.9l4.65 9.57.06-.98a21 21 0 0 1 .17-1.86l.79-6.74z"/></g><path class="st0" d="M102.92 122h-1.31l2.74-38.06a1.95 1.95 0 0 0-1.94-2.09H85.15c-1.02 0-1.86.78-1.94 1.79l-2.99 38.19-1.79-.01h-3a1.94 1.94 0 0 1-1.94-2.08l2.94-41.02a1.95 1.95 0 0 0-1.95-2.09c-5.21.02-11.19.53-14.71 3.72-3.01 2.72-4.58 7.19-4.58 10.41l-3.29 47.52a1.95 1.95 0 0 0 1.94 2.08H77c1.13 0 2.02.96 1.94 2.08l-1.37 19.72a1.94 1.94 0 0 0 1.94 2.08h17.25c1.02 0 1.87-.79 1.94-1.81l1.59-22.14h1.49c1.02 0 1.87-.79 1.94-1.81l1.14-14.41a1.95 1.95 0 0 0-1.94-2.07zM264.45 162.12l-6.41-14.21a14.57 14.57 0 0 0 5.42-8.92c.11-.54.21-1.13.29-1.75 0 0 .5-6.02.5-6.56 0-4.55-1.67-7.91-5.01-10.08-2.65-1.75-6.15-2.63-10.5-2.63h-14.66c-1.15 0-2.12.81-2.21 1.87l-2.92 28.66-.16 1.34c-.01.04.01.07.01.11l-1.24 12.18c-.11 1.19.91 2.2 2.21 2.2h9.71c1.15 0 2.12-.81 2.21-1.87l1.14-10.75h2.27l5.23 10.75c.56 1.17 1.06 1.87 2.21 1.87h9.71c1.29-.01 2.63-.93 2.2-2.21zm-19.3-34.71h2.94c2.07 0 3 1.17 2.81 3.5l-.67 7.4c-.28 2.2-1.38 3.32-3.23 3.45l-3.25.03 1.4-14.38z"/><g><path class="st0" d="M27.84 196.53h-7.8v-7.44h-2.67v17.74h2.67v-8h7.8v8h2.67v-17.74h-2.67zM41.47 189.09l-7 17.74h2.76l2.03-5.12h6.96l2 5.12h2.76l-7-17.74h-2.51zm1.26 3.3l.14.38 2.51 6.63h-5.32l1.64-4.23a248.68 248.68 0 0 0 1.03-2.78zM65.87 201.6c0 .49-.06.93-.18 1.31-.12.37-.32.67-.63.94-.31.26-.74.47-1.28.61-.55.14-1.27.22-2.13.22-1.54 0-2.65-.28-3.31-.84a2.75 2.75 0 0 1-.97-2.23v-12.52h-2.69v12.52c0 .78.14 1.51.41 2.18.27.67.7 1.27 1.28 1.76.57.49 1.3.87 2.17 1.14.86.26 1.89.4 3.06.4 1.19 0 2.23-.13 3.1-.4a5.98 5.98 0 0 0 2.19-1.14c.57-.49 1-1.08 1.28-1.76.27-.67.41-1.4.41-2.18v-12.52h-2.69v12.51zM72.9 191.39h5.52v15.44h2.67v-15.44h5.52v-2.3H72.9zM98.34 197.09l-3.02-.87a7.35 7.35 0 0 1-.85-.32 4.63 4.63 0 0 1-.81-.47c-.24-.18-.45-.4-.6-.66a1.66 1.66 0 0 1-.23-.89v-.38c0-.43.08-.79.22-1.09.15-.3.35-.54.62-.73.27-.2.59-.34.94-.44.37-.09.78-.14 1.22-.14h.67c.35 0 .71.03 1.06.08.33.05.64.15.91.3.27.14.5.34.7.6.2.25.34.59.42 1.02l.05.25 2.64-.56-.07-.25a4.5 4.5 0 0 0-1.94-2.82 7.06 7.06 0 0 0-3.77-.89h-.67c-.87 0-1.67.11-2.37.34-.7.23-1.31.54-1.79.95-.49.41-.87.89-1.12 1.45a4.45 4.45 0 0 0-.38 1.84v.6c0 .63.12 1.2.34 1.69.23.49.55.92.96 1.29.4.36.89.68 1.45.94.55.26 1.16.48 1.81.66l2.83.8c.79.22 1.35.51 1.69.86.32.33.48.83.48 1.47v.55c0 .87-.27 1.49-.84 1.88a4.2 4.2 0 0 1-2.44.62h-.53c-1.08 0-2.13-.2-3.12-.58a6.05 6.05 0 0 1-2.47-1.73l-.44-.51v3.15l.08.07a5.98 5.98 0 0 0 2.61 1.45c1.04.3 2.12.45 3.23.45h.8a7.5 7.5 0 0 0 2.39-.36 5.82 5.82 0 0 0 1.83-.99 4.31 4.31 0 0 0 1.59-3.35v-1c0-1.12-.38-2.04-1.13-2.73a7.3 7.3 0 0 0-2.95-1.55zM106.74 198.98h7v2.2h-7zM130.58 190.95a6.18 6.18 0 0 0-2.59-1.43c-1-.29-2.16-.43-3.46-.43h-6.16v17.74h6.08c2.65 0 4.71-.76 6.12-2.25 1.41-1.49 2.12-3.88 2.12-7.09 0-1.54-.18-2.85-.53-3.91a6 6 0 0 0-1.58-2.63zm-.61 6.51c0 1.37-.13 2.53-.39 3.44-.26.9-.62 1.63-1.09 2.15-.46.52-1.03.9-1.7 1.13-.68.23-1.46.35-2.32.35h-3.44v-13.14h3.41c.86 0 1.65.1 2.33.29a4 4 0 0 1 1.71.96c.47.45.83 1.07 1.09 1.83.27.79.4 1.79.4 2.99zM138.11 206.83h10.46v-2.3h-7.8v-5.8h7.22v-2.3h-7.22v-5.04h7.8v-2.3h-10.46zM152.52 198.98h7v2.2h-7zM164.15 206.83h2.66v-7.6h7.22v-2.3h-7.22v-5.54h7.81v-2.3h-10.47zM190.97 197.63a4.91 4.91 0 0 0 1.22-3.49 4.69 4.69 0 0 0-1.72-3.7 5.78 5.78 0 0 0-1.87-1 7.5 7.5 0 0 0-2.33-.35h-6.47v17.74h2.67v-7.25h2.91l4.28 7.25h3l-4.55-7.56a5.9 5.9 0 0 0 2.86-1.64zm-1.78-2.02a2.83 2.83 0 0 1-1.77 1.49c-.38.12-.77.18-1.17.18h-3.78v-5.9h3.78c.38 0 .78.05 1.17.15a3 3 0 0 1 1.04.48c.3.22.55.51.73.86.18.35.28.8.28 1.32 0 .56-.1 1.03-.28 1.42zM202.43 189.09l-7 17.74h2.76l2.03-5.12h6.96l2 5.12h2.76l-7-17.74h-2.51zm1.26 3.3l.14.38 2.51 6.63h-5.32l1.64-4.23c.17-.42.33-.84.47-1.26l.42-1.14.14-.38zM228.11 199.96a52.1 52.1 0 0 0 .05 2.43l.02.41-9.39-13.6-.08-.11h-2.82v17.74h2.67v-10.57l-.01-1.19-.04-1.32-.02-.65 9.45 13.62.07.11h2.77v-17.74h-2.67v10.87zM240.15 191.93a3.2 3.2 0 0 1 2.26-.8h.78c.77 0 1.45.17 2.03.5.56.32.91.81 1.06 1.48l.05.24 2.63-.55-.07-.25a4.4 4.4 0 0 0-.71-1.48 4.9 4.9 0 0 0-1.23-1.17 6.19 6.19 0 0 0-1.68-.77 7.3 7.3 0 0 0-2.1-.29h-.78c-.89 0-1.71.13-2.41.38a5.4 5.4 0 0 0-1.83 1.06c-.51.46-.9 1-1.17 1.62-.27.62-.41 1.3-.41 2.01v8.1a4.7 4.7 0 0 0 1.58 3.63c.5.45 1.12.81 1.83 1.06s1.52.38 2.41.38h1.03c.68 0 1.33-.07 1.92-.21.59-.14 1.12-.31 1.58-.5.47-.2.87-.42 1.2-.65.33-.23.58-.46.74-.66l.06-.07v-3.05l-.44.55a7.79 7.79 0 0 1-3.39 2.03c-.54.17-1.1.25-1.66.25h-1.03c-.93 0-1.69-.27-2.26-.79-.56-.52-.85-1.3-.85-2.33v-7.4c.01-1.03.29-1.79.86-2.32zM264.84 191.39v-2.3h-10.47v17.74h10.47v-2.3h-7.8v-5.8h7.22v-2.3h-7.22v-5.04z"/></g></svg>