<?xml version="1.0" encoding="UTF-8" standalone="no"?>
<!-- Generator: Adobe Illustrator 23.0.3, SVG Export Plug-In . SVG Version: 6.00 Build 0)  -->

<svg
   xmlns:dc="http://purl.org/dc/elements/1.1/"
   xmlns:cc="http://creativecommons.org/ns#"
   xmlns:rdf="http://www.w3.org/1999/02/22-rdf-syntax-ns#"
   xmlns:svg="http://www.w3.org/2000/svg"
   xmlns="http://www.w3.org/2000/svg"
   xmlns:sodipodi="http://sodipodi.sourceforge.net/DTD/sodipodi-0.dtd"
   xmlns:inkscape="http://www.inkscape.org/namespaces/inkscape"
   version="1.1"
   id="Calque_1"
   x="0px"
   y="0px"
   viewBox="0 0 566.09999 566.09999"
   xml:space="preserve"
   sodipodi:docname="logo_Experts.svg"
   width="566.09998"
   height="566.09998"
   inkscape:version="0.92.3 (2405546, 2018-03-11)"><metadata
   id="metadata105"><rdf:RDF><cc:Work
       rdf:about=""><dc:format>image/svg+xml</dc:format><dc:type
         rdf:resource="http://purl.org/dc/dcmitype/StillImage" /><dc:title></dc:title></cc:Work></rdf:RDF></metadata><defs
   id="defs103" /><sodipodi:namedview
   pagecolor="#ffffff"
   bordercolor="#666666"
   borderopacity="1"
   objecttolerance="10"
   gridtolerance="10"
   guidetolerance="10"
   inkscape:pageopacity="0"
   inkscape:pageshadow="2"
   inkscape:window-width="1920"
   inkscape:window-height="1017"
   id="namedview101"
   showgrid="false"
   inkscape:zoom="0.32381998"
   inkscape:cx="-114.90001"
   inkscape:cy="116.00005"
   inkscape:window-x="-8"
   inkscape:window-y="-8"
   inkscape:window-maximized="1"
   inkscape:current-layer="Calque_1"
   fit-margin-top="0"
   fit-margin-left="0"
   fit-margin-right="0"
   fit-margin-bottom="0" />
<style
   type="text/css"
   id="style2">
	.st0{fill:#FFFFFF;}
</style>
<g
   id="g98"
   transform="translate(-92.372883,-79.899992)">
	<g
   id="g74">
		<g
   id="g32">
			<g
   id="g30">
				<path
   class="st0"
   d="m 218.2,80.3 h 8.3 v 1 c -0.4,0.2 -0.7,0.3 -1.2,0.5 -0.4,0.1 -0.8,0.2 -1.3,0.3 v 14.5 h 4.9 l 1.7,-4.6 h 1 c 0.1,0.4 0.1,0.8 0.2,1.4 0.1,0.5 0.1,1.1 0.1,1.7 0,0.6 0.1,1.1 0.1,1.7 0,0.6 0,1.1 0,1.5 h -13.9 v -1 c 0.4,-0.2 0.8,-0.4 1.1,-0.5 0.3,-0.1 0.7,-0.2 1,-0.3 V 82 c -0.8,-0.1 -1.5,-0.4 -2.1,-0.7 v -1 z"
   id="path4"
   inkscape:connector-curvature="0"
   style="fill:#ffffff" />
				<path
   class="st0"
   d="m 253.9,80.3 c 0,0.8 -0.1,1.6 -0.2,2.4 -0.1,0.8 -0.2,1.6 -0.3,2.3 h -1 l -1.2,-3 h -4.7 v 6.2 h 3.1 l 1.1,-2 h 0.8 c 0.1,0.8 0.1,1.8 0.1,2.8 0,1 0,2 -0.1,2.9 h -0.8 l -1.1,-2 h -3.1 v 6.6 h 4.9 l 1.3,-3.2 h 1 c 0.1,0.3 0.1,0.7 0.2,1.1 0.1,0.4 0.1,0.8 0.2,1.3 0,0.4 0.1,0.9 0.1,1.3 0,0.4 0,0.8 0,1.2 h -13.7 v -1 c 0.3,-0.2 0.6,-0.3 1,-0.4 0.4,-0.1 0.7,-0.2 1.1,-0.3 V 82 c -0.3,-0.1 -0.7,-0.2 -1.1,-0.3 -0.4,-0.1 -0.7,-0.3 -1,-0.4 v -1 z"
   id="path6"
   inkscape:connector-curvature="0"
   style="fill:#ffffff" />
				<path
   class="st0"
   d="m 283.9,96.4 c 0.4,0.1 0.7,0.2 1,0.3 0.3,0.1 0.6,0.3 0.9,0.4 v 1 H 278 v -1 c 0.4,-0.2 0.7,-0.4 1.1,-0.5 0.3,-0.1 0.7,-0.2 1,-0.3 V 82 c -0.8,-0.2 -1.5,-0.4 -2.1,-0.7 v -1 h 2.7 c 0.3,0 0.7,0 1.2,0 0.4,0 0.9,0 1.4,-0.1 0.5,0 1,-0.1 1.4,-0.1 0.5,0 1,0 1.4,0 0.9,0 1.8,0.1 2.6,0.3 0.8,0.2 1.5,0.5 2,1 0.6,0.4 1,1 1.3,1.6 0.3,0.6 0.5,1.4 0.5,2.2 0,1.2 -0.3,2.2 -0.9,3 -0.6,0.8 -1.4,1.4 -2.4,1.8 0.7,1.1 1.4,2.1 2.2,3.3 0.8,1.1 1.6,2.2 2.4,3.2 l 1.2,0.8 v 0.9 h -4.2 l -1.1,-0.8 c -0.8,-0.9 -1.5,-2 -2.1,-3.2 C 287,93 286.5,91.8 286,90.6 h -2.1 z m 1.2,-14.6 c -0.5,0 -1,0.1 -1.3,0.2 v 7 h 1.5 c 0.9,0 1.6,-0.3 2.2,-0.9 0.6,-0.6 0.9,-1.5 0.9,-2.8 0,-0.6 -0.1,-1.2 -0.3,-1.6 -0.2,-0.4 -0.4,-0.8 -0.7,-1.1 -0.3,-0.3 -0.7,-0.5 -1.1,-0.6 -0.2,-0.2 -0.7,-0.2 -1.2,-0.2 z"
   id="path8"
   inkscape:connector-curvature="0"
   style="fill:#ffffff" />
				<path
   class="st0"
   d="m 316.6,80.3 c 0,0.8 -0.1,1.6 -0.2,2.4 -0.1,0.8 -0.2,1.6 -0.3,2.3 h -1 l -1.2,-3 h -4.7 v 6.2 h 3.1 l 1.1,-2 h 0.8 c 0.1,0.8 0.1,1.8 0.1,2.8 0,1 0,2 -0.1,2.9 h -0.8 l -1.1,-2 h -3.1 v 6.6 h 4.9 l 1.3,-3.2 h 1 c 0.1,0.3 0.1,0.7 0.2,1.1 0.1,0.4 0.1,0.8 0.2,1.3 0,0.4 0.1,0.9 0.1,1.3 0,0.4 0,0.8 0,1.2 h -13.7 v -1 c 0.3,-0.2 0.6,-0.3 1,-0.4 0.4,-0.1 0.7,-0.2 1.1,-0.3 V 82 c -0.3,-0.1 -0.7,-0.2 -1.1,-0.3 -0.4,-0.1 -0.7,-0.3 -1,-0.4 v -1 z"
   id="path10"
   inkscape:connector-curvature="0"
   style="fill:#ffffff" />
				<path
   class="st0"
   d="m 338.1,80.3 h 6.3 v 1 c -0.3,0.3 -0.7,0.5 -1.1,0.7 -0.4,0.2 -0.8,0.3 -1.1,0.4 v 16 H 340 l -9,-13 -1,-2 v 0 l 0.2,2 V 96 c 0.3,0.1 0.7,0.2 1.1,0.4 0.4,0.2 0.8,0.4 1.1,0.6 v 1 h -6.3 v -1 c 0.3,-0.2 0.6,-0.4 1,-0.6 0.4,-0.2 0.7,-0.3 1.1,-0.4 V 82.3 c -0.3,-0.1 -0.7,-0.3 -1,-0.5 -0.3,-0.2 -0.6,-0.3 -0.9,-0.5 v -1 h 5.5 l 7.3,10.6 1.2,2.2 h 0.1 l -0.1,-2.2 v -8.5 c -0.4,-0.1 -0.8,-0.3 -1.2,-0.5 -0.4,-0.2 -0.7,-0.4 -1,-0.6 z"
   id="path12"
   inkscape:connector-curvature="0"
   style="fill:#ffffff" />
				<path
   class="st0"
   d="m 353,98.1 v -1 c 0.3,-0.2 0.6,-0.3 1,-0.4 0.4,-0.1 0.7,-0.2 1.1,-0.3 V 82 c -0.4,-0.1 -0.8,-0.2 -1.1,-0.3 -0.4,-0.1 -0.7,-0.3 -1,-0.4 v -1 h 2.9 c 0.3,0 0.6,0 1.1,0 0.4,0 0.9,0 1.3,-0.1 0.5,0 0.9,-0.1 1.3,-0.1 0.4,0 0.8,0 1.1,0 1.5,0 2.8,0.2 3.9,0.6 1.2,0.4 2.1,1 2.9,1.7 0.8,0.7 1.4,1.7 1.9,2.8 0.5,1.1 0.6,2.4 0.6,3.8 0,1.4 -0.2,2.7 -0.6,3.8 -0.4,1.2 -1,2.1 -1.8,3 -0.8,0.8 -1.8,1.4 -3.1,1.9 -1.2,0.4 -2.7,0.7 -4.4,0.7 -0.2,0 -0.5,0 -0.9,0 -0.4,0 -0.8,-0.1 -1.2,-0.1 -0.4,0 -0.8,-0.1 -1.3,-0.1 -0.4,0 -0.8,0 -1.1,0 H 353 Z m 7.5,-16.3 c -0.3,0 -0.6,0 -0.9,0 -0.3,0 -0.6,0 -0.8,0.1 v 14.7 c 0.1,0 0.2,0 0.4,0 0.2,0 0.3,0 0.5,0 0.2,0 0.4,0 0.5,0 0.2,0 0.3,0 0.4,0 1,0 1.8,-0.2 2.5,-0.6 0.7,-0.4 1.2,-1 1.7,-1.7 0.4,-0.7 0.8,-1.5 1,-2.4 0.2,-0.9 0.3,-1.9 0.3,-3 0,-0.9 -0.1,-1.8 -0.3,-2.7 -0.2,-0.9 -0.5,-1.6 -1,-2.3 -0.4,-0.7 -1,-1.2 -1.7,-1.6 -0.7,-0.4 -1.7,-0.5 -2.6,-0.5 z"
   id="path14"
   inkscape:connector-curvature="0"
   style="fill:#ffffff" />
				<path
   class="st0"
   d="m 392.6,80.3 c 0,0.8 -0.1,1.6 -0.2,2.4 -0.1,0.8 -0.2,1.6 -0.3,2.3 h -1 l -1.2,-3 h -4.7 v 6.2 h 3.1 l 1.1,-2 h 0.8 c 0.1,0.8 0.1,1.8 0.1,2.8 0,1 0,2 -0.1,2.9 h -0.8 l -1.1,-2 h -3.1 v 6.6 h 4.9 l 1.3,-3.2 h 1 c 0.1,0.3 0.1,0.7 0.2,1.1 0.1,0.4 0.1,0.8 0.2,1.3 0,0.4 0.1,0.9 0.1,1.3 0,0.4 0,0.8 0,1.2 h -13.7 v -1 c 0.3,-0.2 0.6,-0.3 1,-0.4 0.4,-0.1 0.7,-0.2 1.1,-0.3 V 82 c -0.3,-0.1 -0.7,-0.2 -1.1,-0.3 -0.4,-0.1 -0.7,-0.3 -1,-0.4 v -1 z"
   id="path16"
   inkscape:connector-curvature="0"
   style="fill:#ffffff" />
				<path
   class="st0"
   d="m 415.3,92.8 h 1.1 c 0.1,0.4 0.1,0.8 0.2,1.2 0.1,0.5 0.1,0.9 0.2,1.4 0.1,0.5 0.1,1 0.1,1.4 0,0.5 0,0.9 0,1.3 h -14.3 v -1.7 l 9.8,-14.5 h -6.3 l -1.5,3.6 h -1.1 c -0.1,-0.4 -0.2,-0.8 -0.2,-1.3 -0.1,-0.5 -0.1,-1 -0.2,-1.4 -0.1,-0.4 -0.1,-0.9 -0.1,-1.4 0,-0.4 0,-0.8 0,-1.2 h 13.5 V 82 l -9.8,14.5 h 7 z"
   id="path18"
   inkscape:connector-curvature="0"
   style="fill:#ffffff" />
				<path
   class="st0"
   d="m 426.4,89.8 h 7.2 v 2.3 h -7.2 z"
   id="path20"
   inkscape:connector-curvature="0"
   style="fill:#ffffff" />
				<path
   class="st0"
   d="m 455.4,82 c -0.4,-0.1 -0.8,-0.2 -1.2,-0.3 -0.4,-0.1 -0.7,-0.3 -1,-0.4 v -1 h 6.4 v 1 c -0.2,0.1 -0.5,0.3 -0.8,0.4 -0.3,0.1 -0.7,0.2 -1,0.3 L 452,98.1 449.5,98.4 443,82 c -0.3,-0.1 -0.7,-0.2 -1,-0.3 -0.3,-0.1 -0.6,-0.3 -0.9,-0.4 v -1 h 8.4 v 1 c -0.3,0.1 -0.6,0.3 -1,0.4 -0.4,0.1 -0.7,0.2 -1.1,0.3 l 3.6,10 0.6,2.4 v 0 l 0.6,-2.4 z"
   id="path22"
   inkscape:connector-curvature="0"
   style="fill:#ffffff" />
				<path
   class="st0"
   d="m 467.2,89.2 c 0,-1.3 0.2,-2.6 0.6,-3.7 0.4,-1.1 0.9,-2.1 1.6,-2.9 0.7,-0.8 1.6,-1.5 2.7,-1.9 1.1,-0.5 2.3,-0.7 3.7,-0.7 1.4,0 2.6,0.2 3.7,0.7 1.1,0.5 2,1.1 2.7,1.9 0.7,0.8 1.3,1.8 1.6,2.9 0.4,1.1 0.6,2.4 0.6,3.7 0,1.3 -0.2,2.6 -0.6,3.7 -0.4,1.1 -0.9,2.1 -1.6,2.9 -0.7,0.8 -1.6,1.5 -2.7,1.9 -1.1,0.5 -2.3,0.7 -3.7,0.7 -1.4,0 -2.6,-0.2 -3.7,-0.7 -1.1,-0.5 -2,-1.1 -2.7,-1.9 -0.7,-0.8 -1.3,-1.8 -1.6,-2.9 -0.4,-1.1 -0.6,-2.3 -0.6,-3.7 z m 4.4,0 c 0,1.1 0.1,2.1 0.3,3 0.2,0.9 0.4,1.7 0.8,2.4 0.4,0.7 0.8,1.2 1.4,1.6 0.6,0.4 1.2,0.6 2,0.6 0.7,0 1.3,-0.2 1.9,-0.6 0.5,-0.4 0.9,-0.9 1.2,-1.6 0.3,-0.7 0.6,-1.5 0.7,-2.4 0.1,-0.9 0.2,-1.9 0.2,-3 0,-1.1 -0.1,-2.1 -0.2,-3 -0.2,-0.9 -0.4,-1.7 -0.8,-2.4 -0.3,-0.7 -0.8,-1.2 -1.4,-1.6 -0.6,-0.4 -1.3,-0.6 -2.1,-0.6 -0.8,0 -1.4,0.2 -2,0.6 -0.5,0.4 -0.9,0.9 -1.3,1.6 -0.3,0.7 -0.5,1.5 -0.7,2.4 0,0.9 0,1.9 0,3 z"
   id="path24"
   inkscape:connector-curvature="0"
   style="fill:#ffffff" />
				<path
   class="st0"
   d="m 493.2,80.3 h 7.8 v 1 c -0.6,0.4 -1.2,0.6 -1.9,0.7 v 9.8 c 0,0.8 0.1,1.5 0.3,2.1 0.2,0.6 0.5,1 0.8,1.4 0.4,0.3 0.8,0.6 1.3,0.8 0.5,0.2 1.1,0.2 1.7,0.2 0.6,0 1.1,-0.1 1.5,-0.2 0.5,-0.2 0.9,-0.4 1.2,-0.8 0.3,-0.4 0.6,-0.8 0.8,-1.4 0.2,-0.6 0.3,-1.3 0.3,-2.1 v -9.5 c -0.4,-0.1 -0.8,-0.2 -1.2,-0.4 -0.4,-0.2 -0.8,-0.3 -1,-0.5 v -1 h 6.3 v 1 c -0.3,0.2 -0.6,0.4 -1,0.5 -0.4,0.1 -0.7,0.2 -1.1,0.3 v 9.6 c 0,2.2 -0.6,3.8 -1.7,5 -1.1,1.1 -2.8,1.7 -4.8,1.7 -2.3,0 -4,-0.5 -5.3,-1.5 -1.3,-1 -1.9,-2.6 -1.9,-4.9 V 82 c -0.3,-0.1 -0.7,-0.1 -1.1,-0.3 -0.4,-0.1 -0.7,-0.3 -1,-0.5 z"
   id="path26"
   inkscape:connector-curvature="0"
   style="fill:#ffffff" />
				<path
   class="st0"
   d="m 522.7,96 c 0.2,0.2 0.4,0.4 0.8,0.5 0.3,0.2 0.8,0.2 1.3,0.2 0.9,0 1.7,-0.2 2.3,-0.7 0.6,-0.5 0.9,-1.2 0.9,-2 0,-0.6 -0.2,-1.2 -0.6,-1.6 -0.4,-0.4 -0.9,-0.8 -1.5,-1.2 -0.6,-0.4 -1.3,-0.7 -2,-1.1 -0.7,-0.3 -1.3,-0.8 -2,-1.2 -0.6,-0.5 -1.1,-1 -1.5,-1.7 -0.4,-0.7 -0.6,-1.5 -0.6,-2.4 0,-0.8 0.2,-1.6 0.5,-2.2 0.3,-0.6 0.7,-1.1 1.3,-1.5 0.5,-0.4 1.2,-0.7 1.9,-0.9 0.7,-0.2 1.5,-0.3 2.4,-0.3 1,0 2,0.1 2.9,0.2 0.9,0.1 1.7,0.4 2.4,0.7 0,0.3 0,0.7 -0.1,1.2 0,0.4 -0.1,0.9 -0.2,1.3 -0.1,0.4 -0.1,0.8 -0.2,1.2 -0.1,0.4 -0.1,0.7 -0.2,1 h -1 L 528.3,82 c -0.2,-0.1 -0.5,-0.2 -0.9,-0.3 -0.4,-0.1 -0.8,-0.1 -1.2,-0.1 -0.7,0 -1.3,0.2 -1.8,0.6 -0.5,0.4 -0.7,0.9 -0.7,1.6 0,0.6 0.2,1.2 0.6,1.6 0.4,0.5 0.9,0.9 1.5,1.2 0.6,0.4 1.3,0.7 2,1.1 0.7,0.4 1.4,0.8 2,1.3 0.6,0.5 1.1,1 1.5,1.7 0.4,0.6 0.6,1.4 0.6,2.4 0,1.7 -0.6,3 -1.7,3.9 -1.1,0.9 -2.8,1.4 -5,1.4 -0.5,0 -1.1,0 -1.6,-0.1 -0.6,-0.1 -1.1,-0.2 -1.6,-0.3 -0.5,-0.1 -0.9,-0.2 -1.3,-0.4 -0.4,-0.1 -0.7,-0.3 -0.8,-0.4 0,-0.4 0.1,-0.8 0.1,-1.3 0.1,-0.5 0.1,-0.9 0.2,-1.3 0.1,-0.5 0.2,-0.9 0.2,-1.3 0.1,-0.4 0.2,-0.8 0.3,-1.1 h 1 z"
   id="path28"
   inkscape:connector-curvature="0"
   style="fill:#ffffff" />
			</g>
		</g>
		<g
   id="g56">
			<path
   class="st0"
   d="m 188.9,148.3 c 4.8,-1 7.5,-3.8 8,-8.3 l 0.2,-1.9 v -8.8 l -0.2,-1.7 c -0.6,-4.5 -3.3,-7.3 -8.3,-8.3 l -25.2,-0.1 v 50 h 8.5 v -20.8 h 7.4 l 9.1,20.8 h 9.2 l -9.1,-20.9 z m -17,-20.6 h 14.9 l 0.8,0.1 c 0.4,0.2 0.7,0.5 0.9,0.8 l 0.2,0.8 v 8.6 l -0.2,0.8 c -0.2,0.5 -0.5,0.8 -0.9,1 l -0.8,0.2 h -15 v -12.3 z"
   id="path34"
   inkscape:connector-curvature="0"
   style="fill:#ffffff" />
			<polygon
   class="st0"
   points="203,119.2 203,169.2 236.8,169.2 236.8,160.7 211.5,160.7 211.5,148.4 230.1,148.4 230.1,139.9 211.5,139.9 211.5,127.7 236.8,127.7 236.8,119.2 "
   id="polygon36"
   style="fill:#ffffff" />
			<path
   class="st0"
   d="m 251.3,169.2 h 13.2 l 1.9,-0.2 c 2,-0.2 3.9,-1.2 5.4,-2.8 1.5,-1.6 2.5,-3.4 3,-5.5 v -6.5 h -8.5 v 4.5 l -0.1,1 c -0.2,0.4 -0.5,0.7 -0.8,0.8 l -0.9,0.2 h -13.1 l -1,-0.2 c -0.4,-0.1 -0.7,-0.4 -0.9,-0.8 l -0.1,-30.2 0.1,-0.8 c 0.2,-0.4 0.5,-0.7 0.8,-0.9 l 0.9,-0.2 h 13.1 l 0.9,0.2 c 0.4,0.2 0.7,0.5 1,1 l 0.1,5.3 h 8.5 v -6.6 c -0.4,-2 -1.4,-3.8 -2.9,-5.3 -1.6,-1.6 -3.4,-2.5 -5.4,-2.7 l -2,-0.2 h -13.2 l -1.9,0.2 c -2,0.2 -3.9,1.2 -5.4,2.8 -1.5,1.6 -2.5,3.4 -2.9,5.5 v 31.1 2 c 0.4,2 1.4,3.8 2.9,5.3 1.6,1.6 3.4,2.5 5.4,2.8 z"
   id="path38"
   inkscape:connector-curvature="0"
   style="fill:#ffffff" />
			<path
   class="st0"
   d="m 313,169.2 -9.1,-20.9 h 0.4 c 4.8,-1 7.5,-3.8 8,-8.3 l 0.2,-1.9 v -8.8 l -0.2,-1.7 c -0.6,-4.5 -3.3,-7.3 -8.3,-8.3 l -25.2,-0.1 v 50 h 8.5 v -20.8 h 7.4 l 9.1,20.8 z m -25.7,-41.5 h 14.9 l 0.8,0.1 c 0.4,0.2 0.7,0.5 0.9,0.8 l 0.2,0.8 v 8.6 l -0.2,0.8 c -0.2,0.5 -0.5,0.8 -0.9,1 l -0.8,0.2 h -15 v -12.3 z"
   id="path40"
   inkscape:connector-curvature="0"
   style="fill:#ffffff" />
			<path
   class="st0"
   d="m 352.4,119.2 h -8.5 v 39.5 l -0.1,1 c -0.2,0.4 -0.5,0.7 -0.8,0.8 l -0.9,0.2 H 329 l -0.9,-0.2 c -0.5,-0.2 -0.8,-0.5 -1,-0.9 L 327,119.1 h -8.5 v 39.7 2 c 0.4,2.1 1.4,3.9 2.9,5.4 1.5,1.5 3.3,2.5 5.6,2.9 l 15.1,0.1 2,-0.1 c 2.1,-0.4 3.9,-1.4 5.4,-2.9 1.5,-1.5 2.5,-3.3 2.9,-5.5 z"
   id="path42"
   inkscape:connector-curvature="0"
   style="fill:#ffffff" />
			<polygon
   class="st0"
   points="379.9,169.2 379.9,127.7 392.6,127.7 392.6,119.2 358.8,119.2 358.8,127.7 371.4,127.7 371.4,169.2 "
   id="polygon44"
   style="fill:#ffffff" />
			<polygon
   class="st0"
   points="397.3,119.2 397.3,169.2 431.1,169.2 431.1,160.7 405.8,160.7 405.8,148.4 424.4,148.4 424.4,139.9 405.8,139.9 405.8,127.7 431.1,127.7 431.1,119.2 "
   id="polygon46"
   style="fill:#ffffff" />
			<polygon
   class="st0"
   points="443.6,146.1 452,170.7 460.4,146.1 460.4,169.2 468.9,169.2 468.9,119.2 460.8,119.2 452,144.6 443.3,119.2 435.1,119.2 435.1,169.2 443.6,169.2 "
   id="polygon48"
   style="fill:#ffffff" />
			<polygon
   class="st0"
   points="475.4,119.2 475.4,169.2 509.2,169.2 509.2,160.7 483.9,160.7 483.9,148.4 502.5,148.4 502.5,139.9 483.9,139.9 483.9,127.7 509.2,127.7 509.2,119.2 "
   id="polygon50"
   style="fill:#ffffff" />
			<polygon
   class="st0"
   points="521.7,169.2 521.7,137.6 538.8,169.2 546.9,169.2 546.9,119.2 538.4,119.2 538.4,150.7 521.3,119.2 513.2,119.2 513.2,169.2 "
   id="polygon52"
   style="fill:#ffffff" />
			<polygon
   class="st0"
   points="553.4,127.7 566,127.7 566,169.2 574.5,169.2 574.5,127.7 587.2,127.7 587.2,119.2 553.4,119.2 "
   id="polygon54"
   style="fill:#ffffff" />
		</g>
		<g
   id="g72">
			<polygon
   class="st0"
   points="244.4,200.9 244.4,190.3 200.1,190.3 200.1,256.1 244.4,256.1 244.4,245.4 210.7,245.4 210.7,228.5 235.4,228.5 235.4,217.8 210.7,217.8 210.7,200.9 "
   id="polygon58"
   style="fill:#ffffff" />
			<polygon
   class="st0"
   points="295.1,256.1 278.3,223.1 295.2,190.3 283.2,190.3 272.5,211.7 261.6,190.3 249.7,190.3 266.4,223.1 249.8,256.1 261.7,256.1 272.5,234.9 283.1,256.1 "
   id="polygon60"
   style="fill:#ffffff" />
			<path
   class="st0"
   d="m 345.8,201.2 c -0.3,-2.6 -1.5,-5 -3.6,-7 -2,-2 -4.4,-3.3 -7.1,-3.8 l -33.2,-0.1 v 65.8 h 10.6 v -27.4 h 20.6 l 2.2,-0.3 c 2.5,-0.5 4.8,-1.8 6.9,-3.8 2,-2 3.2,-4.4 3.5,-7 l 0.3,-2.4 v -11.5 z m -33.3,-0.3 h 20.1 l 1.2,0.1 c 0.7,0.3 1.1,0.8 1.3,1.3 l 0.3,1.3 V 215 l -0.3,1.3 c -0.1,0.4 -0.3,1 -1.3,1.3 l -1.1,0.3 h -20.2 z"
   id="path62"
   inkscape:connector-curvature="0"
   style="fill:#ffffff" />
			<polygon
   class="st0"
   points="396.4,200.9 396.4,190.3 352.1,190.3 352.1,256.1 396.4,256.1 396.4,245.4 362.8,245.4 362.8,228.5 387.5,228.5 387.5,217.8 362.8,217.8 362.8,200.9 "
   id="polygon64"
   style="fill:#ffffff" />
			<path
   class="st0"
   d="m 435.8,228.4 c 6.2,-1.3 9.7,-5 10.4,-10.8 l 0.3,-2.4 v -11.7 l -0.3,-2.3 c -0.7,-5.8 -4.2,-9.4 -10.7,-10.8 l -33.2,-0.1 v 65.8 H 413 v -27.6 h 10.3 l 12.1,27.6 H 447 L 434.9,228.4 Z M 413,200.9 h 20.1 l 1.2,0.1 c 0.7,0.3 1.1,0.8 1.3,1.3 l 0.3,1.1 v 11.4 l -0.2,1.2 c -0.3,0.7 -0.8,1.2 -1.4,1.5 l -1.1,0.3 H 413 Z"
   id="path66"
   inkscape:connector-curvature="0"
   style="fill:#ffffff" />
			<polygon
   class="st0"
   points="471.7,200.9 471.7,256.1 482.3,256.1 482.3,200.9 499.2,200.9 499.2,190.3 454.9,190.3 454.9,200.9 "
   id="polygon68"
   style="fill:#ffffff" />
			<path
   class="st0"
   d="M 550.5,206.7 V 201 c -0.5,-2.6 -1.8,-4.9 -3.8,-6.9 -2,-2.1 -4.4,-3.3 -7,-3.6 l -2.6,-0.3 h -17.5 l -2.5,0.3 c -2.6,0.3 -5,1.5 -7,3.6 -2,2 -3.3,4.4 -3.8,7.1 v 16.4 c 0.5,2.7 1.8,5 3.7,7 2,2 4.3,3.2 7.2,3.7 H 537 l 1.3,0.2 c 0.7,0.3 1.2,0.8 1.6,1.5 l 0.1,1.1 v 11.3 l -0.1,1.3 c -0.4,0.7 -0.8,1.1 -1.3,1.3 l -1.3,0.3 h -17.4 l -1.3,-0.3 c -0.6,-0.2 -1.1,-0.6 -1.4,-1.3 l -0.1,-1.2 V 239 h -10.6 v 6.2 c 1.2,6.3 4.9,9.8 10.8,10.6 l 2.6,0.3 h 17.6 l 2.5,-0.3 c 5.8,-0.7 9.5,-4.3 10.8,-10.7 v -16.5 c -0.5,-2.6 -1.8,-4.9 -3.8,-7 -2,-2.1 -4.4,-3.3 -7,-3.6 l -2.3,-0.3 H 520 l -1.3,-0.2 c -0.7,-0.3 -1.2,-0.7 -1.5,-1.4 l -0.1,-1.1 v -11.3 l 0.1,-1.1 c 0.4,-0.7 0.8,-1.2 1.3,-1.4 l 1.3,-0.3 h 17.4 l 1.3,0.2 c 0.7,0.3 1.2,0.7 1.5,1.4 l 0.1,1.1 v 3.1 z"
   id="path70"
   inkscape:connector-curvature="0"
   style="fill:#ffffff" />
		</g>
	</g>
	<g
   id="g96">
		<path
   class="st0"
   d="m 372,289.4 c -0.5,0.2 -1.2,0.5 -1.7,0.8 h 3.5 c -0.6,-0.3 -1.2,-0.6 -1.8,-0.8 z"
   id="path76"
   inkscape:connector-curvature="0"
   style="fill:#ffffff" />
		<path
   class="st0"
   d="m 370.3,290.2 c -5.1,2.3 -11.1,5 -17.4,7.9 l 6.5,31.2 c 0,0 4.5,-4.1 12.3,-4.1 7.8,0 12.7,4.3 12.7,4.3 l 7.6,-31 c -6.6,-3 -13,-5.9 -18.2,-8.3 z"
   id="path78"
   inkscape:connector-curvature="0"
   style="fill:#ffffff" />
		<path
   class="st0"
   d="m 384.1,348.2 c 2.8,-1.2 2.1,-2.3 2.1,-3.1 l -1.3,-9.7 c 0,0 -3.6,-4.5 -11.9,-4.5 -8.3,0 -13.3,4.6 -13.3,4.6 -1.1,10.5 -2.6,22.7 -4.2,36 0,0 11.4,-17.6 28.6,-23.3 z"
   id="path80"
   inkscape:connector-curvature="0"
   style="fill:#ffffff" />
		<path
   class="st0"
   d="m 396.9,475.3 c -0.3,0.1 -0.6,0.3 -0.8,0.4 0,0 0.3,-0.1 0.8,-0.4 z"
   id="path82"
   inkscape:connector-curvature="0"
   style="fill:#ffffff" />
		<path
   class="st0"
   d="m 396.9,475.3 c 1.8,-1 5.5,-4 4.7,-10.6 L 395.9,423 c -32.6,10.7 -51,39.5 -51,39.5 -2.9,21.7 -5.7,42.7 -8.2,61 0,0 12.2,-23.8 59.4,-47.9 0,0 0,0 0,0 0.2,0 0.5,-0.1 0.8,-0.3 z"
   id="path84"
   inkscape:connector-curvature="0"
   style="fill:#ffffff" />
		<path
   class="st0"
   d="m 396.1,475.7 c 0,0 0,0 0,0 z"
   id="path86"
   inkscape:connector-curvature="0"
   style="fill:#ffffff" />
		<path
   class="st0"
   d="m 392.7,424.1 3.2,-1.1 -0.3,-2.7 c -0.1,0 0.2,2.6 -2.9,3.8 z"
   id="path88"
   inkscape:connector-curvature="0"
   style="fill:#ffffff" />
		<path
   class="st0"
   d="m 408,547.1 c 0,0 0,0 0,0 5.4,-2.5 5,-6.7 5,-6.7 l -6.3,-46.1 v 0 l -1.3,-9.9 c -0.5,2.7 -3.1,4.7 -5.2,5.8 -0.9,0.4 -1.8,0.8 -2.7,1.2 -0.1,0 -0.1,0 -0.1,0 v 0 c -40.2,18.8 -60.4,49.7 -60.4,49.7 -3.8,27.8 -6.4,46.8 -6.6,47.3 -0.5,2.3 0.2,4.5 2.2,6.6 0,0 0,0.1 6.6,7.1 0.1,0.2 17.5,-32.5 68.8,-55 z"
   id="path90"
   inkscape:connector-curvature="0"
   style="fill:#ffffff" />
		<path
   class="st0"
   d="m 415.3,560.2 -0.5,-4.1 c 0,3.3 -3.4,5.6 -5.4,6.7 -0.5,0.2 -1,0.4 -1.4,0.7 -0.1,0.1 -0.2,0.1 -0.2,0.1 h 0.1 c -48.2,22.3 -62.4,50.7 -62.4,50.7 6.2,6.6 15.6,16.6 29.7,31.7 l 45.1,-49.2 -5,-36.6 c 0,0 0,0 0,0 z"
   id="path92"
   inkscape:connector-curvature="0"
   style="fill:#ffffff" />
		<path
   class="st0"
   d="m 346.4,447.3 c 0,0 14.6,-23.2 44.4,-35.8 v 0 c 2.9,-1.3 3.4,-3.4 3.4,-4.3 0,-0.2 0,-0.4 0,-0.5 v 0 l -6.8,-49.4 c 0,0 0.5,1.7 -4.5,4 -2.8,1.3 -4,2.2 -5.1,2.8 h 0.1 c -12.4,7.2 -23.7,22.5 -23.7,22.5 -2.4,19.2 -5.1,40 -7.8,60.7 z"
   id="path94"
   inkscape:connector-curvature="0"
   style="fill:#ffffff" />
	</g>
</g>
</svg>