<?xml version="1.0" encoding="utf-8"?>
<!-- Generator: $$$/GeneralStr/196=Adobe Illustrator 27.6.0, SVG Export Plug-In . SVG Version: 6.00 Build 0)  -->
<svg version="1.1" id="Textes" xmlns="http://www.w3.org/2000/svg" xmlns:xlink="http://www.w3.org/1999/xlink" x="0px" y="0px"
	 viewBox="0 0 541.71 541.71" style="enable-background:new 0 0 541.71 541.71;" xml:space="preserve">
<style type="text/css">
	.st0{
			fill:#575756
		}
</style>
<g>
	<path class="st0" d="M71.59,421.03c0,8.79-3.76,15.89-11.27,21.3c-6.98,5.02-15.45,7.53-25.43,7.53v-13.33
		c6.12,0,11.21-1.67,15.29-5c4.08-3.33,6.12-7.75,6.12-13.26v-81.57h15.29V421.03z M56.3,324.97v-13.18h15.29v13.18H56.3z"/>
</g>
<g>
	<path class="st0" d="M117.95,423.78c-9.02,0-16.74-2.66-23.18-7.97c-6.76-5.41-10.14-12.12-10.14-20.14v-30.14
		c0-8.02,3.38-14.73,10.14-20.14c6.44-5.22,14.17-7.82,23.18-7.82s16.82,2.66,23.42,7.97c6.6,5.31,9.9,11.98,9.9,19.99v30.14
		c0,8.02-3.3,14.71-9.9,20.07C134.78,421.1,126.97,423.78,117.95,423.78z M135.98,368.29c0-4.73-1.72-8.89-5.15-12.46
		c-3.44-3.57-7.73-5.36-12.88-5.36s-9.45,1.79-12.88,5.36c-3.44,3.58-5.15,7.73-5.15,12.46v24.78c0,4.73,1.72,8.89,5.15,12.46
		c3.43,3.58,7.73,5.36,12.88,5.36s9.44-1.79,12.88-5.36c3.43-3.57,5.15-7.73,5.15-12.46V368.29z"/>
</g>
<g>
	<path class="st0" d="M178.97,340.76c5.47-2.99,11.48-4.49,18.03-4.49c9.01,0,16.82,2.71,23.42,8.11c6.6,5.41,9.9,12.17,9.9,20.28
		v30.57c0,8.11-3.28,14.9-9.82,20.36c-6.55,5.46-14.38,8.19-23.5,8.19c-9.12,0-16.96-2.72-23.5-8.17
		c-6.55-5.45-9.82-12.23-9.82-20.33v-83.49h15.29V340.76z M215.03,367.52c0-4.82-1.69-9.03-5.07-12.65
		c-3.38-3.61-7.7-5.42-12.96-5.42c-5.26,0-9.58,1.81-12.96,5.42c-3.38,3.61-5.07,7.83-5.07,12.65v25.01c0,4.82,1.66,8.96,4.99,12.43
		c3.43,3.76,7.78,5.64,13.04,5.64c5.26,0,9.6-1.88,13.04-5.64c3.33-3.47,4.99-7.61,4.99-12.43V367.52z"/>
</g>
<g>
	<path class="st0" d="M271.66,420.62h9.55v-53.03h17.23v-7.44h-17.23v-17.5c0-6.29,2.41-11.45,7.17-15.33
		c3.92-3.21,8.7-5.06,14.24-5.53v-4.26v-3.08c-8.09,0.43-15.05,2.7-20.73,6.78c-6.9,4.81-10.23,10.91-10.23,18.68V420.62z"/>
</g>
<g>
	<path class="st0" d="M344.62,340.45c-8.41,0-15.41,2.35-21.38,7.18c-6.11,4.89-9.08,10.75-9.08,17.91v30.14
		c0,7.16,2.96,13.02,9.06,17.9c6,4.95,12.98,7.34,21.39,7.34c8.88,0,15.95-2.57,21.63-7.85c4.92-4.58,7.74-10.01,8.58-16.54h-9.72
		c-1.11,4.24-3.06,7.91-5.81,10.94c-3.9,4.19-8.83,6.3-14.68,6.3c-5.94,0-10.97-2.1-14.95-6.24c-3.95-4.11-5.95-8.97-5.95-14.45
		v-8.96h51.35v-18.57c0-7.17-2.89-12.97-8.83-17.76C360.19,342.91,352.92,340.45,344.62,340.45z M365.52,376.96h-41.8v-8.67
		c0-5.48,2-10.34,5.95-14.45c3.98-4.14,9.01-6.24,14.95-6.24c5.93,0,10.96,2.1,14.95,6.24c3.95,4.11,5.95,8.98,5.95,14.45V376.96z"
		/>
</g>
<g>
	<path class="st0" d="M393.5,396.52c0.63,6.44,3.43,11.84,8.5,16.45c5.89,5.35,13.03,7.95,21.82,7.95c8.32,0,15.61-2.38,21.66-7.08
		c5.91-4.59,8.79-10.24,8.79-17.29c0-5.52-2.24-10.03-6.84-13.79c-4.78-3.9-10.29-5.8-16.86-5.8h-13.36c-3.66,0-6.88-1.09-9.59-3.23
		c-2.87-2.27-4.39-5.35-4.39-8.92c0-4.88,2.22-9.06,6.6-12.42c4.15-3.18,8.85-4.8,13.98-4.8c6.14,0,11.16,1.95,14.93,5.79
		c3.1,3.16,4.93,6.96,5.48,11.34l9.92,0.09c-0.61-6.59-3.36-12.03-8.35-16.56c-5.79-5.25-12.97-7.8-21.98-7.8
		c-8.11,0-15.27,2.34-21.27,6.94c-6.17,4.77-9.18,10.48-9.18,17.43c0,5.42,2.23,9.85,6.82,13.56c4.77,3.86,10.24,5.74,16.71,5.74
		h13.36c3.66,0,6.93,1.14,9.69,3.38c2.91,2.35,4.45,5.47,4.45,9c0,5.07-2.18,9.26-6.47,12.45c-4.03,3.01-8.78,4.53-14.11,4.53
		c-6.02,0-11.01-1.92-14.82-5.72c-3.14-3.13-5.01-6.9-5.57-11.23H393.5z"/>
</g>
<g>
	<path class="st0" d="M471.28,346.88h7.57v48.42c0,7.76,3.31,13.91,10.12,18.78c5.79,4.06,12.85,6.34,21.01,6.77v-7.46
		c-5.67-0.45-10.51-2.28-14.42-5.44c-4.74-3.83-7.15-9.01-7.15-15.39v-45.67h21.57v-7.44H488.4v-24.78h-9.55v24.78h-7.57V346.88z"/>
</g>
<path class="st0" d="M257.36,194.8c0-18.31,14.89-33.21,33.2-33.21h45.88v-20.75c0-20.25-16.42-36.67-36.66-36.67h-98.15
	c-20.24,0-36.66,16.42-36.66,36.67v98.14c0,20.25,16.42,36.67,36.66,36.67h6.32v6.25v28.28l22.08-17.73l20.92-16.8h9.5
	c-1.98-4.25-3.1-8.99-3.1-13.99V194.8z"/>
<path class="st0" d="M363.84,174.09h-66.87c-13.79,0-24.97,11.19-24.97,24.98v66.86c0,13.8,11.19,24.99,24.97,24.99h33.27
	l14.26,11.45l15.04,12.08v-19.27v-4.26h4.3c13.8,0,24.99-11.18,24.99-24.99v-66.86C388.83,185.28,377.64,174.09,363.84,174.09z
	 M377.08,265.94c0,7.3-5.94,13.23-13.23,13.23h-16.06v10.77l-13.41-10.77h-37.4c-7.29,0-13.22-5.94-13.22-13.23v-66.86
	c0-7.29,5.93-13.23,13.22-13.23h66.87c7.3,0,13.23,5.93,13.23,13.23V265.94z"/>
</svg>
