<?xml version="1.0" encoding="UTF-8"?>
<svg id="Calque_1" data-name="Calque 1" xmlns="http://www.w3.org/2000/svg" version="1.1" viewBox="0 0 141.7 141.7">
  <defs>
    <style>
      .cls-1, .cls-2 {
        fill-rule: evenodd;
      }

      .cls-1, .cls-2, .cls-3 {
        stroke-width: 0px;
      }

      .cls-1, .cls-3 {
        fill: #fff;
      }

      .cls-2 {
        fill: #575756;
      }

      .cls-4 {
        opacity: .6;
      }
    </style>
  </defs>
  <path class="cls-2" d="M.2-.2h141.4v141.9H.2V-.2Z"/>
  <g>
    <g class="cls-4">
      <path class="cls-1" d="M96.1,59.4c-1.3-2-8.3-4.1-8.3-4.1v-2.1c1.9-2,3.2-6,3.2-9.1s-2.5-5.9-5.6-5.9-5.6,1.6-5.6,5.9,1.3,7.1,3.2,9.1v2.1s-7.1,2.2-8.3,4.1c-.7,1-.5,10-.5,10h22.5s.2-9-.5-10h0Z"/>
    </g>
    <g class="cls-4">
      <path class="cls-1" d="M66.4,59.4c-1.3-2-8.3-4.1-8.3-4.1v-2.1c1.9-2,3.2-6,3.2-9.1s-2.5-5.9-5.6-5.9-5.6,1.6-5.6,5.9,1.3,7.1,3.2,9.1v2.1s-7.1,2.2-8.3,4.1c-.7,1-.5,10-.5,10h22.4s.2-9-.5-10h0Z"/>
    </g>
    <path class="cls-1" d="M53.1,64.1c-1.4-2.2-9.3-4.6-9.3-4.6v-2.3c2.1-2.2,3.6-6.7,3.6-10.1s-2.8-6.5-6.2-6.5-6.2,1.8-6.2,6.5,1.5,7.9,3.6,10.1v2.3s-7.8,2.4-9.2,4.6c-.7,1.1-.5,5.3-.5,5.3h24.9s.2-4.2-.5-5.3h-.2Z"/>
    <path class="cls-1" d="M112.5,64.1c-1.4-2.2-9.3-4.6-9.3-4.6v-2.3c2.1-2.2,3.6-6.7,3.6-10.1s-2.8-6.5-6.2-6.5-6.2,1.8-6.2,6.5,1.5,7.9,3.6,10.1v2.3s-7.8,2.4-9.2,4.6c-.7,1.1-.6,5.3-.6,5.3h24.9s.2-4.2-.5-5.3h-.1Z"/>
    <path class="cls-1" d="M82.8,64.1c-1.4-2.2-9.3-4.6-9.3-4.6v-2.3c2.1-2.2,3.6-6.7,3.6-10.1s-2.8-6.5-6.2-6.5-6.2,1.8-6.2,6.5,1.5,7.9,3.6,10.1v2.3s-7.8,2.4-9.2,4.6c-.7,1.1-.5,5.3-.5,5.3h24.9s.2-4.2-.5-5.3h-.2Z"/>
  </g>
  <g>
    <g>
      <path class="cls-3" d="M22.9,90.1c.2.4.3.8.4,1.2s.2.8.3,1.2c-.7.3-1.4.4-1.9.5s-1.2,0-1.8,0c-1.2,0-2.2-.2-3-.6-.9-.4-1.6-.9-2.2-1.6s-1-1.5-1.3-2.4-.4-1.9-.4-3,.2-2.1.5-3,.8-1.8,1.4-2.4,1.3-1.2,2.2-1.6c.9-.4,1.9-.6,3-.6s1.3,0,1.8,0,1.1.2,1.8.5c0,.4-.1.8-.2,1.2s-.3.8-.5,1.2c-.5-.2-.9-.3-1.3-.3h-1.3c-1.3,0-2.3.4-3,1.3s-1.1,2.1-1.1,3.8c0,3.3,1.4,5,4.2,5s1,0,1.3,0,.8-.2,1.3-.3h0l-.2-.3Z"/>
      <path class="cls-3" d="M30.4,78.2h3.4l4.6,14.7c-.6,0-1.1,0-1.6,0s-1,0-1.5,0l-.8-2.9h-4.9l-.8,2.9c-.5,0-1,0-1.4,0s-1,0-1.5,0l4.6-14.7h-.1ZM33.7,87.4l-1.7-6.2-1.8,6.2h3.5Z"/>
      <path class="cls-3" d="M41.3,78.2c.4,0,.8,0,1.2,0s.8,0,1.3,0l5.7,9.4v-9.4c.5,0,1,0,1.4,0s.8,0,1.2,0v14.7c-.4,0-.8,0-1.2,0s-.8,0-1.2,0l-5.7-9.4v9.4c-.4,0-.9,0-1.3,0s-.9,0-1.3,0v-14.7h-.1Z"/>
      <path class="cls-3" d="M56.3,78.2c.6,0,1.2,0,1.8-.2h2.1c2.6,0,4.5.6,5.9,1.9,1.3,1.3,2,3.2,2,5.8s-.7,4.5-2.1,5.7-3.4,1.8-6.1,1.8-1.3,0-1.9,0-1.2,0-1.7-.2v-14.7h0ZM59.3,90.5h1.2c.6,0,1.2,0,1.8-.2.5,0,1-.4,1.4-.8s.7-.9.9-1.5c.2-.6.3-1.5.3-2.5s0-1.8-.3-2.5c-.2-.7-.6-1.2-.9-1.6-.4-.4-.8-.7-1.4-.8-.5-.2-1.1-.2-1.6-.2h-1.4v10h0Z"/>
      <path class="cls-3" d="M71.8,78.2c.5,0,1,0,1.5,0s1,0,1.5,0v14.7c-.5,0-1,0-1.5,0s-1,0-1.5,0v-14.7Z"/>
      <path class="cls-3" d="M79,78.2c.6,0,1.2,0,1.8-.2h2.1c2.6,0,4.6.6,5.9,1.9s2,3.2,2,5.8-.7,4.5-2.1,5.7-3.4,1.8-6.1,1.8-1.3,0-1.9,0-1.2,0-1.7-.2v-14.7h0ZM82,90.5h1.2c.6,0,1.2,0,1.8-.2.5,0,1-.4,1.4-.8s.7-.9.9-1.5c.2-.6.3-1.5.3-2.5s0-1.8-.3-2.5c-.2-.7-.6-1.2-.9-1.6-.4-.4-.8-.7-1.4-.8-.5-.2-1.1-.2-1.6-.2h-1.4v10h0Z"/>
      <path class="cls-3" d="M97.4,78.2h3.4l4.6,14.7c-.6,0-1.1,0-1.6,0s-1,0-1.5,0l-.8-2.9h-4.9l-.8,2.9c-.5,0-1,0-1.4,0s-1,0-1.5,0l4.7-14.7h-.2ZM100.7,87.4l-1.7-6.2-1.8,6.2h3.5Z"/>
      <path class="cls-3" d="M109.7,80.7h-3.7c0-.4,0-.8,0-1.3s0-.8,0-1.2h10.3c0,.4,0,.8,0,1.2s0,.9,0,1.3h-3.7v12.2h-3v-12.2h0Z"/>
      <path class="cls-3" d="M122.1,86.1c-.5-.2-.9-.4-1.2-.6s-.7-.5-.9-.8c-.3-.3-.5-.7-.6-1.1s-.2-.9-.2-1.5,0-1.3.4-1.8.6-1,1-1.3c.4-.4,1-.6,1.6-.8.6-.2,1.3-.3,2.1-.3s1.3,0,2,.2,1.2.3,1.9.5c0,.8-.3,1.6-.7,2.3-.2,0-.4-.2-.6-.2s-.4-.2-.7-.2-.5,0-.8,0h-1.7c-.2,0-.4,0-.7.2-.2,0-.3.3-.5.5,0,.2-.2.5-.2.8s0,.5,0,.7c0,.2.2.3.4.5.2,0,.3.2.6.3.2,0,.4.2.6.3l1.2.5c.5.2,1,.4,1.4.6s.8.5,1.1.8.5.7.7,1.2.2,1,.2,1.7-.1,1.3-.4,1.9c-.2.6-.6,1.1-1.1,1.5s-1.1.7-1.8,1c-.7.2-1.5.3-2.4.3h-1.2c-.4,0-.7,0-1,0s-.6,0-.9-.2-.6-.2-1-.3c0-.4,0-.8.2-1.2s.2-.9.4-1.3c.6.2,1.1.4,1.6.5s1.1.2,1.6.2c.9,0,1.5-.2,2-.5s.7-.8.7-1.5,0-.6-.2-.8c0-.2-.3-.4-.4-.6s-.4-.3-.6-.4c-.2,0-.5-.2-.7-.3l-1.2-.5h-.1Z"/>
    </g>
    <g>
      <path class="cls-3" d="M48.1,102.9c.2,0,.5.2.7.2h.9c.6,0,1,0,1.3-.3.3-.2.4-.5.4-.9v-.5c0,0-.2-.2-.3-.3,0,0-.3-.2-.4-.3-.2,0-.4-.2-.6-.3l-.6-.2c-.2,0-.4-.2-.5-.3s-.3-.2-.4-.4-.2-.3-.3-.5,0-.4,0-.7c0-.6.2-1.1.6-1.5.4-.3,1-.5,1.8-.5h.9c.3,0,.5,0,.8.2,0,.3,0,.6-.2.8-.2,0-.4,0-.6-.2s-.5,0-.8,0-.8,0-1,.3c-.2.2-.3.4-.3.8v.4c0,0,0,.2.2.3,0,0,.2.2.3.2s.3,0,.4.2l.6.2c.3,0,.5.2.7.3.2,0,.4.3.5.4.2.2.3.3.3.6s0,.5,0,.8c0,.7-.2,1.3-.7,1.7-.5.4-1.2.6-2,.6s-.4,0-.6,0h-.9c-.1,0-.3,0-.4,0v-.5c0-.2,0-.3.2-.5h-.1Z"/>
      <path class="cls-3" d="M59.1,103c.2.3.2.6.3.8-.3,0-.6.2-.9.3h-1c-.5,0-1,0-1.4-.3-.4-.2-.8-.4-1.1-.8-.3-.3-.5-.7-.7-1.2s-.2-1-.2-1.6,0-1.1.2-1.6.4-.9.7-1.2c.3-.3.7-.6,1.1-.8.4-.2.9-.3,1.4-.3h1c.3,0,.5,0,.8.2v.4c0,0,0,.3-.2.4h-1.5c-.7,0-1.3.2-1.7.8-.4.5-.6,1.2-.6,2.2s0,.9.2,1.3c0,.4.3.7.5.9.2.2.5.4.8.5s.6.2,1,.2h.8c.3,0,.5,0,.7-.2h-.2Z"/>
      <path class="cls-3" d="M64.9,102.4h-2.8l-.5,1.7h-1.1l2.4-7.4h1.2l2.4,7.4h-1.2l-.5-1.7h0ZM62.3,101.4h2.2l-1.1-3.8-1.1,3.8h0Z"/>
      <path class="cls-3" d="M68.1,96.7h.8l3.2,5.5v-5.5h1v7.4h-.8l-3.2-5.5v5.5h-.9v-7.4h-.1Z"/>
      <path class="cls-3" d="M75.5,96.7h.8l3.2,5.5v-5.5h1v7.4h-.8l-3.2-5.5v5.5h-.9v-7.4h-.1Z"/>
      <path class="cls-3" d="M83.1,96.7h4v.8h-3v2.1h2.4v.8h-2.4v2.5h3.1v.8h-4.1v-7ZM85.2,96.1h-1.2l1.1-1.1h1.4l-1.4,1.1h.1Z"/>
      <path class="cls-3" d="M89.2,102.9c.2,0,.5.2.7.2h.9c.6,0,1,0,1.3-.3.3-.2.4-.5.4-.9v-.5c0,0-.2-.2-.3-.3,0,0-.3-.2-.4-.3-.2,0-.4-.2-.6-.3l-.6-.2c-.2,0-.4-.2-.5-.3s-.3-.2-.4-.4-.2-.3-.3-.5,0-.4,0-.7c0-.6.2-1.1.6-1.5.4-.3,1-.5,1.8-.5h.9c.3,0,.5,0,.8.2,0,.3,0,.6-.2.8-.2,0-.4,0-.6-.2s-.5,0-.8,0-.8,0-1,.3c-.2.2-.3.4-.3.8v.4c0,0,0,.2.2.3,0,0,.2.2.3.2s.3,0,.4.2l.6.2c.3,0,.5.2.7.3.2,0,.4.3.5.4.2.2.3.3.3.6s0,.5,0,.8c0,.7-.2,1.3-.7,1.7-.5.4-1.2.6-2,.6s-.4,0-.6,0h-.9c-.1,0-.3,0-.4,0v-.5c0-.2,0-.3.2-.5h-.1Z"/>
    </g>
  </g>
</svg>