<?xml version="1.0" encoding="UTF-8"?>
<svg id="Calque_1" data-name="Calque 1" xmlns="http://www.w3.org/2000/svg" version="1.1" viewBox="0 0 141.7 141.7">
  <defs>
    <style>
      .cls-1, .cls-2 {
        fill-rule: evenodd;
      }

      .cls-1, .cls-2, .cls-3, .cls-4 {
        stroke-width: 0px;
      }

      .cls-1, .cls-4 {
        fill: #fff;
      }

      .cls-2 {
        fill: #575756;
      }

      .cls-3 {
        fill: none;
      }

      .cls-5 {
        opacity: .1;
      }
    </style>
  </defs>
  <path class="cls-2" d="M.2,0h141.4v141.9H.2V0Z"/>
  <g>
    <g>
      <polygon class="cls-4" points="47.7 42.6 44 42.6 44 26.9 59.7 26.9 59.7 30.6 47.7 30.6 47.7 42.6"/>
      <polygon class="cls-4" points="97.8 42.6 94.1 42.6 94.1 30.6 82.1 30.6 82.1 26.9 97.8 26.9 97.8 42.6"/>
      <polygon class="cls-4" points="97.8 80.7 82.1 80.7 82.1 77 94.1 77 94.1 65 97.8 65 97.8 80.7"/>
      <polygon class="cls-4" points="59.7 80.7 44 80.7 44 65 47.7 65 47.7 77 59.7 77 59.7 80.7"/>
    </g>
    <path class="cls-1" d="M82.6,62.8c-1.4-2.2-9.1-4.5-9.1-4.5v-2.3c2.1-2.2,3.5-6.6,3.5-10s-2.8-6.5-6.2-6.5-6.2,1.8-6.2,6.5,1.4,7.8,3.5,10v2.3s-7.7,2.4-9.1,4.5c-.7,1.1-.5,5.3-.5,5.3h24.6s.2-4.2-.5-5.3h0Z"/>
    <g>
      <g>
        <path class="cls-4" d="M35,98.3c-.4-.2-.7-.3-1-.5-.3-.2-.6-.4-.8-.6-.2-.2-.4-.5-.5-.9-.1-.3-.2-.8-.2-1.2s.1-1.1.3-1.5c.2-.4.5-.8.8-1.1s.8-.5,1.3-.7,1.1-.2,1.7-.2,1.1,0,1.6.2c.5.1,1,.3,1.6.4,0,.7-.3,1.3-.5,1.9-.2,0-.3-.1-.5-.2-.2,0-.4-.1-.6-.2-.2,0-.4,0-.7-.1s-.5,0-.9,0-.4,0-.6,0-.4.1-.5.2c-.2,0-.3.2-.4.4-.1.2-.2.4-.2.7s0,.4.1.6.2.3.3.4c.1.1.3.2.5.3.2,0,.3.1.5.2l1,.4c.4.2.8.3,1.2.5.4.2.6.4.9.7s.4.6.6,1c.1.4.2.9.2,1.4s-.1,1.1-.3,1.6c-.2.5-.5.9-.9,1.2-.4.3-.9.6-1.5.8-.6.2-1.3.3-2,.3s-.7,0-1,0c-.3,0-.6,0-.8-.1-.3,0-.5-.1-.8-.2-.3,0-.5-.2-.8-.3,0-.3,0-.7.2-1s.2-.7.3-1.1c.5.2.9.3,1.3.4.4,0,.9.1,1.3.1.7,0,1.3-.1,1.7-.4.4-.3.6-.7.6-1.2s0-.5-.1-.7c0-.2-.2-.3-.4-.5-.2-.1-.3-.2-.5-.3-.2,0-.4-.2-.6-.2l-1-.4h0Z"/>
        <path class="cls-4" d="M51.1,101.7c.2.3.3.6.4,1,0,.3.2.7.2,1-.6.2-1.1.4-1.6.4-.5,0-1,.1-1.5.1-1,0-1.8-.2-2.5-.5-.7-.3-1.3-.8-1.8-1.3s-.9-1.2-1.1-2c-.3-.8-.4-1.6-.4-2.5s.1-1.8.4-2.5.6-1.5,1.1-2c.5-.6,1.1-1,1.8-1.3.7-.3,1.5-.5,2.5-.5s1.1,0,1.5.1c.5,0,1,.2,1.5.4,0,.3,0,.7-.2,1-.1.3-.2.6-.4,1-.4-.1-.8-.2-1.1-.3-.3,0-.7,0-1.1,0-1.1,0-1.9.4-2.5,1.1-.6.7-.9,1.8-.9,3.2,0,2.8,1.2,4.2,3.5,4.2s.8,0,1.1,0,.7-.2,1.1-.3h0Z"/>
        <path class="cls-4" d="M57.3,91.7c.2,0,.5,0,.7,0,.2,0,.5,0,.7,0s.4,0,.7,0c.2,0,.5,0,.7,0l3.8,12.3c-.5,0-.9.1-1.4.1s-.9,0-1.3-.1l-.7-2.5h-4.1l-.7,2.5c-.4,0-.8.1-1.2.1s-.8,0-1.2-.1l3.9-12.3h0ZM60,99.5l-1.4-5.2-1.5,5.2h2.9,0Z"/>
        <path class="cls-4" d="M66.1,91.7c.4,0,.7-.1,1-.1s.7,0,1.1.1l4.8,7.8v-7.8c.4,0,.8-.1,1.2-.1s.7,0,1,.1v12.3c-.4,0-.7.1-1,.1s-.7,0-1-.1l-4.8-7.8v7.8c-.4,0-.7.1-1.1.1s-.7,0-1.1-.1v-12.3Z"/>
        <path class="cls-4" d="M78.2,91.7c.4,0,.7-.1,1-.1s.7,0,1.1.1l4.8,7.8v-7.8c.4,0,.8-.1,1.2-.1s.7,0,1,.1v12.3c-.4,0-.7.1-1,.1s-.7,0-1-.1l-4.8-7.8v7.8c-.4,0-.7.1-1.1.1s-.7,0-1.1-.1v-12.3Z"/>
        <path class="cls-4" d="M90,91.7h7c0,.3.1.7.1,1s0,.7-.1,1.1h-4.5v2.7h3.6c0,.4.1.7.1,1.1s0,.7-.1,1.1h-3.6v3.2h4.6c0,.3.1.7.1,1s0,.7-.1,1.1h-7.1v-12.3h0Z"/>
        <path class="cls-4" d="M100.1,91.7c.5,0,1-.1,1.4-.1.4,0,.9,0,1.5,0s1.2,0,1.9.2c.6.1,1.2.3,1.7.6.5.3.9.7,1.2,1.2.3.5.5,1.1.5,1.9s0,.9-.2,1.2c-.1.3-.3.6-.4.9-.2.3-.4.5-.6.7s-.4.3-.6.5l-.3.2,3,5.2c-.2,0-.5,0-.7,0-.3,0-.5,0-.8,0-.4,0-.9,0-1.3-.1l-3.2-5.7.4-.2c.2,0,.4-.2.6-.3.2-.1.4-.3.7-.5.2-.2.4-.4.5-.7s.2-.6.2-.9c0-.7-.2-1.2-.6-1.6-.4-.3-.9-.5-1.6-.5s-.5,0-.7,0v10.4c-.2,0-.4,0-.6,0-.2,0-.4,0-.6,0s-.4,0-.6,0c-.2,0-.4,0-.7,0v-12.3h0Z"/>
      </g>
      <g>
        <path class="cls-4" d="M32.7,107.4c0,0,.2,0,.2,0,0,0,.2,0,.3,0s.2,0,.3,0c0,0,.2,0,.3,0v6.4h2.9c0,0,0,.2,0,.2v.2c0,.2,0,.3,0,.5h-3.9v-7.4h0Z"/>
        <path class="cls-4" d="M38.2,107.4h4c0,.1,0,.3,0,.4v.2c0,0,0,.2,0,.2h-3v2.1h2.4c0,0,0,.1,0,.2,0,0,0,.2,0,.2s0,.2,0,.2c0,0,0,.2,0,.2h-2.4v2.5h3.1c0,.1,0,.3,0,.4v.2c0,0,0,.2,0,.2h-4.1v-7.4h0Z"/>
        <path class="cls-4" d="M44,113.6c.2,0,.5.2.7.2s.5,0,.9,0c.6,0,1-.1,1.2-.3.3-.2.4-.5.4-.9s0-.3,0-.5-.2-.2-.3-.3c-.1,0-.3-.2-.4-.3s-.4-.2-.6-.3l-.6-.2c-.2,0-.4-.2-.5-.3s-.3-.2-.4-.4c-.1-.1-.2-.3-.3-.5s0-.4,0-.7c0-.6.2-1.1.6-1.5.4-.3,1-.5,1.8-.5s.6,0,.9,0,.5.1.8.2c0,.3-.1.6-.2.8-.2,0-.4-.1-.6-.2-.2,0-.5,0-.8,0-.4,0-.8,0-1,.3-.2.2-.3.4-.3.8s0,.3,0,.4.1.2.2.3c0,0,.2.2.3.2s.3.1.4.2l.6.2c.3.1.5.2.7.3.2.1.4.3.5.4.2.2.3.3.3.6s.1.5.1.8c0,.7-.2,1.3-.7,1.7-.5.4-1.2.6-2,.6s-.4,0-.6,0c-.2,0-.3,0-.5,0-.2,0-.3,0-.4,0-.1,0-.3,0-.4-.1,0-.2,0-.3,0-.5,0-.2,0-.3.2-.5h0Z"/>
        <path class="cls-4" d="M58,113.7c.2.3.2.6.3.8-.3.1-.6.2-.9.3-.3,0-.6,0-1,0-.5,0-1,0-1.4-.3-.4-.2-.8-.4-1.1-.8-.3-.3-.5-.7-.7-1.2s-.2-1-.2-1.6,0-1.1.2-1.6c.2-.5.4-.9.7-1.2.3-.3.7-.6,1.1-.8s.9-.3,1.4-.3.7,0,1,0,.5.1.8.2c0,.2,0,.3,0,.4,0,.1,0,.3-.2.4,0,0-.2,0-.3,0s-.2,0-.3,0-.2,0-.4,0-.3,0-.5,0c-.7,0-1.3.2-1.7.8-.4.5-.6,1.2-.6,2.2s0,.9.2,1.3c.1.3.3.7.5.9.2.2.5.4.8.5.3.1.6.2,1,.2s.5,0,.8,0,.5-.1.7-.2h0Z"/>
        <path class="cls-4" d="M63.7,113h-2.8l-.5,1.7c0,0-.2,0-.3,0,0,0-.2,0-.3,0s-.2,0-.3,0c0,0-.2,0-.2,0l2.4-7.4c0,0,.2,0,.3,0,0,0,.2,0,.3,0s.2,0,.3,0c0,0,.2,0,.3,0l2.4,7.4c0,0-.2,0-.3,0,0,0-.2,0-.3,0s-.2,0-.3,0c0,0-.2,0-.3,0l-.5-1.7h0ZM61.2,112.1h2.2l-1.1-3.8-1.1,3.8h0Z"/>
        <path class="cls-4" d="M66.9,107.4c0,0,.2,0,.2,0,0,0,.2,0,.2,0s.2,0,.2,0c0,0,.2,0,.2,0l3.2,5.5v-5.5c0,0,.2,0,.3,0,0,0,.2,0,.3,0s.2,0,.2,0c0,0,.2,0,.2,0v7.4c0,0-.2,0-.2,0,0,0-.2,0-.2,0s-.2,0-.2,0c0,0-.2,0-.2,0l-3.2-5.5v5.5c0,0-.2,0-.2,0,0,0-.2,0-.2,0s-.2,0-.3,0c0,0-.2,0-.2,0v-7.4h0Z"/>
        <path class="cls-4" d="M74.4,107.4c.2,0,.5,0,.8,0s.7,0,1,0c1.3,0,2.2.3,2.9,1,.6.7,1,1.6,1,2.8s-.3,2.2-1,2.9-1.6.9-2.9.9-.6,0-.9,0c-.3,0-.6,0-.8,0v-7.4h0ZM75.4,113.9c0,0,.2,0,.3,0s.3,0,.4,0c.4,0,.8,0,1.1-.1s.6-.2.8-.5.4-.5.6-.9c.1-.4.2-.8.2-1.4s0-.9-.2-1.3c-.1-.4-.3-.7-.6-.9-.2-.2-.5-.4-.8-.5-.3,0-.7-.2-1.1-.2h-.4c-.2,0-.3,0-.4,0v5.6h0Z"/>
        <path class="cls-4" d="M82.1,107.4c0,0,.2,0,.3,0,0,0,.2,0,.3,0s.2,0,.3,0c0,0,.2,0,.3,0v7.4c0,0-.2,0-.2,0,0,0-.2,0-.3,0s-.2,0-.3,0c0,0-.2,0-.2,0v-7.4h0Z"/>
        <path class="cls-4" d="M85.4,107.4c.2,0,.5,0,.8,0s.7,0,1,0c1.3,0,2.2.3,2.9,1,.6.7,1,1.6,1,2.8s-.3,2.2-1,2.9-1.6.9-2.9.9-.6,0-.9,0c-.3,0-.6,0-.8,0v-7.4h0ZM86.5,113.9c0,0,.2,0,.3,0s.3,0,.4,0c.4,0,.8,0,1.1-.1s.6-.2.8-.5.4-.5.6-.9c.1-.4.2-.8.2-1.4s0-.9-.2-1.3c-.1-.4-.3-.7-.6-.9-.2-.2-.5-.4-.8-.5-.3,0-.7-.2-1.1-.2h-.4c-.2,0-.3,0-.4,0v5.6h0Z"/>
        <path class="cls-4" d="M96.5,113h-2.8l-.5,1.7c0,0-.2,0-.3,0,0,0-.2,0-.3,0s-.2,0-.3,0c0,0-.2,0-.2,0l2.4-7.4c0,0,.2,0,.3,0,0,0,.2,0,.3,0s.2,0,.3,0c0,0,.2,0,.3,0l2.4,7.4c0,0-.2,0-.3,0,0,0-.2,0-.3,0s-.2,0-.3,0c0,0-.2,0-.3,0l-.5-1.7h0ZM93.9,112.1h2.2l-1.1-3.8-1.1,3.8h0Z"/>
        <path class="cls-4" d="M100.3,108.3h-1.9c0,0,0-.1,0-.2,0,0,0-.2,0-.2s0-.2,0-.2c0,0,0-.2,0-.2h4.9c0,0,0,.1,0,.2s0,.2,0,.2,0,.2,0,.2,0,.2,0,.2h-1.9v6.4c-.2,0-.3,0-.5,0s-.4,0-.5,0v-6.4h0Z"/>
        <path class="cls-4" d="M104.6,113.6c.2,0,.5.2.7.2s.6,0,.9,0c.6,0,1-.1,1.2-.3.3-.2.4-.5.4-.9s0-.3,0-.5-.2-.2-.3-.3c-.1,0-.3-.2-.4-.3s-.4-.2-.6-.3l-.6-.2c-.2,0-.4-.2-.5-.3s-.3-.2-.4-.4c-.1-.1-.2-.3-.3-.5s0-.4,0-.7c0-.6.2-1.1.6-1.5s1-.5,1.8-.5.6,0,.9,0,.6.1.8.2c0,.3-.1.6-.2.8-.2,0-.4-.1-.6-.2s-.5,0-.8,0c-.4,0-.8,0-1,.3-.2.2-.3.4-.3.8s0,.3,0,.4.1.2.2.3c0,0,.2.2.3.2s.3.1.4.2l.6.2c.3.1.5.2.7.3.2.1.4.3.5.4.2.2.3.3.3.6,0,.2.1.5.1.8,0,.7-.2,1.3-.7,1.7-.5.4-1.2.6-2,.6s-.4,0-.6,0c-.2,0-.3,0-.5,0s-.3,0-.4,0c-.1,0-.3,0-.4-.1,0-.2,0-.3,0-.5,0-.2,0-.3.2-.5h0Z"/>
      </g>
    </g>
  </g>
  <g class="cls-5">
    <path class="cls-3" d="M141.6,138.6v-8.5l-11.7,11.7h8.9c0-.3.2-.6.4-.8l2.4-2.4h0Z"/>
    <path class="cls-3" d="M141.6,38.6v-8.5L29.9,141.8h8.9c0-.3.2-.6.4-.8l102.4-102.4h0Z"/>
    <path class="cls-3" d="M141.6,121.6v-7.5l-27.7,27.7h7.9c0-.3.2-.6.4-.8l19.4-19.4h0Z"/>
    <polygon class="cls-3" points="37.8 0 .2 37.5 .2 46.1 46.3 0 37.8 0"/>
    <polygon class="cls-3" points="4.8 0 .2 4.5 .2 13.1 13.3 0 4.8 0"/>
    <path class="cls-3" d="M141.6,21.6v-8.5L12.9,141.8h8.9c0-.3.2-.6.4-.8L141.6,21.6Z"/>
    <polygon class="cls-3" points="21.8 0 .2 21.5 .2 29.1 29.3 0 21.8 0"/>
    <polygon class="cls-3" points="88.8 0 .2 88.5 .2 96.1 96.3 0 88.8 0"/>
    <path class="cls-3" d="M141.6,88.6v-8.5l-61.7,61.7h8.9c0-.3.2-.6.4-.8l52.4-52.4h0Z"/>
    <polygon class="cls-3" points="104.8 0 .2 104.5 .2 113.1 113.3 0 104.8 0"/>
    <polygon class="cls-3" points="121.8 0 .2 121.5 .2 130.1 130.3 0 121.8 0"/>
    <path class="cls-3" d="M141.6,71.6v-8.5l-78.7,78.7h8.9c0-.3.2-.6.4-.8l69.4-69.4h0Z"/>
    <path class="cls-3" d="M141.6,105.6v-8.5l-44.7,44.7h8.9c0-.3.2-.6.4-.8l35.4-35.4h0Z"/>
    <polygon class="cls-3" points="54.8 0 .2 54.5 .2 63.1 63.3 0 54.8 0"/>
    <path class="cls-3" d="M141.6,4.6V0h-2.8L.2,138.5v3.3h4.6c0-.3.2-.6.4-.8L141.6,4.6Z"/>
    <polygon class="cls-3" points="71.8 0 .2 71.5 .2 80.1 80.3 0 71.8 0"/>
    <path class="cls-3" d="M141.6,54.6v-7.5l-94.7,94.7h7.9c0-.3.2-.6.4-.8l86.4-86.4h0Z"/>
    <polygon class="cls-4" points="96.3 0 .2 96.1 .2 104.5 104.8 0 96.3 0"/>
    <path class="cls-4" d="M141.6,71.6l-69.4,69.4c-.2.2-.3.5-.4.8h8.1l61.7-61.7v-8.5h0Z"/>
    <path class="cls-4" d="M141.6,54.6l-86.4,86.4c-.2.2-.3.5-.4.8h8.1l78.7-78.7v-8.5h0Z"/>
    <path class="cls-4" d="M141.6,38.6l-102.4,102.4c-.2.2-.3.5-.4.8h8.1l94.7-94.7v-8.5h0Z"/>
    <path class="cls-4" d="M141.6,88.6l-52.4,52.4c-.2.2-.3.5-.4.8h8.1l44.7-44.7v-8.5h0Z"/>
    <polygon class="cls-4" points=".2 0 .2 4.5 4.8 0 .2 0"/>
    <path class="cls-4" d="M141.6,105.6l-35.4,35.4c-.2.2-.3.5-.4.8h8.1l27.7-27.7v-8.5h0Z"/>
    <path class="cls-4" d="M141.6,21.6L22.2,141c-.2.2-.3.5-.4.8h8.1L141.6,30.1v-8.5h0Z"/>
    <path class="cls-4" d="M141.6,121.6l-19.4,19.4c-.2.2-.3.5-.4.8h8.1l11.7-11.7v-8.5h0Z"/>
    <path class="cls-4" d="M141.6,138.6l-2.4,2.4c-.2.2-.3.5-.4.8h2.8v-3.2h0Z"/>
    <polygon class="cls-4" points="29.3 0 .2 29.1 .2 37.5 37.8 0 29.3 0"/>
    <polygon class="cls-4" points="63.3 0 .2 63.1 .2 71.5 71.8 0 63.3 0"/>
    <polygon class="cls-4" points="46.3 0 .2 46.1 .2 54.5 54.8 0 46.3 0"/>
    <path class="cls-4" d="M141.6,4.6L5.2,141c-.2.2-.3.5-.4.8h8.1L141.6,13.1V4.6Z"/>
    <polygon class="cls-4" points="13.3 0 .2 13.1 .2 21.5 21.8 0 13.3 0"/>
    <polygon class="cls-4" points="130.3 0 .2 130.1 .2 138.5 138.8 0 130.3 0"/>
    <polygon class="cls-4" points="80.3 0 .2 80.1 .2 88.5 88.8 0 80.3 0"/>
    <polygon class="cls-4" points="113.3 0 .2 113.1 .2 121.5 121.8 0 113.3 0"/>
  </g>
</svg>