<?xml version="1.0" encoding="UTF-8"?>
<svg id="Calque_1" data-name="Calque 1" xmlns="http://www.w3.org/2000/svg" version="1.1" viewBox="0 0 141.73 141.73">
  <defs>
    <style>
      .cls-1, .cls-2 {
        fill-rule: evenodd;
      }

      .cls-1, .cls-2, .cls-3, .cls-4 {
        stroke-width: 0px;
      }

      .cls-1, .cls-4 {
        fill: #fff;
      }

      .cls-2 {
        fill: #575756;
      }

      .cls-3 {
        fill: none;
      }

      .cls-5 {
        opacity: .1;
      }
    </style>
  </defs>
  <g>
    <g>
      <polygon class="cls-4" points="47.65 42.59 43.97 42.59 43.97 26.89 59.67 26.89 59.67 30.57 47.65 30.57 47.65 42.59"/>
      <polygon class="cls-4" points="97.76 42.59 94.09 42.59 94.09 30.57 82.06 30.57 82.06 26.89 97.76 26.89 97.76 42.59"/>
      <polygon class="cls-4" points="97.76 80.68 82.06 80.68 82.06 77.01 94.09 77.01 94.09 64.98 97.76 64.98 97.76 80.68"/>
      <polygon class="cls-4" points="59.67 80.68 43.97 80.68 43.97 64.98 47.65 64.98 47.65 77.01 59.67 77.01 59.67 80.68"/>
    </g>
    <path class="cls-1" d="M82.64,62.78c-1.38-2.16-9.13-4.54-9.13-4.54v-2.26c2.08-2.2,3.52-6.63,3.52-10,0-4.66-2.75-6.46-6.15-6.46s-6.15,1.79-6.15,6.46c0,3.37,1.44,7.8,3.52,10v2.26s-7.74,2.38-9.12,4.54c-.71,1.1-.55,5.26-.55,5.26h24.61s.17-4.16-.53-5.26Z"/>
    <g>
    </g>
  </g>
</svg>