<?xml version="1.0" encoding="utf-8"?>
<!-- Generator: Adobe Illustrator 26.2.1, SVG Export Plug-In . SVG Version: 6.00 Build 0)  -->
<svg version="1.1" id="icons" xmlns="http://www.w3.org/2000/svg" xmlns:xlink="http://www.w3.org/1999/xlink" x="0px" y="0px"
	 viewBox="0 0 288 288" style="enable-background:new 0 0 288 288;" xml:space="preserve">
<style type="text/css">
	.st0{fill:#575756;}
	.st1{fill-rule:evenodd;clip-rule:evenodd;fill:#575756;}
	.st2{clip-path:url(#SVGID_00000075132444535778320300000011285653139879701914_);fill:#575756;}
	.st3{clip-path:url(#SVGID_00000116218248122231992190000009860128577919519623_);fill:#575756;}
	.st4{clip-path:url(#SVGID_00000032628234724081539880000010587272048083355306_);fill:#575756;}
	.st5{opacity:0.2;}
	.st6{fill:#1D1D1B;}
	.st7{fill:#FFFFFF;}
	.st8{opacity:0.6;clip-path:url(#SVGID_00000170239181741485467000000004756631560743623582_);}
	.st9{fill:#E42222;}
</style>
<path class="st0" d="M23.63,181.2c0,0,31.6,47.87,95.88,46.78c41.44-1.23,100.26-19.56,115.99-80.02c0,0,16.89,2.87,28.86-10.26
	c-16.35,2.26-27.22-2.87-27.22-2.87s21.41-0.62,26.13-13.27c-12.65,5.47-28.31,0.82-28.31,0.82s-7.39-45.27-52.39-46.92
	c0,0,24.05-4.9,20.29-10.44c-3.01-4.04-19.74,3.47-19.74,3.47s9.32-4.1,9.12-8.48c-9.44,1.09-18.1,8.07-18.1,8.07
	s2.64-4.24,2.69-6.02c-22.48,12.49-37.75,59.02-37.75,59.02s-5.7-6.31-15.18-13.15c-22.89-13.5-65.11-29.45-65.11-29.45
	s-2.83,17.42,19.7,30.18c-9.21,0.73-13.86,1.91-13.86,1.91s0,18.51,26.85,24.53c-12.45,0.46-16.55,6.66-16.55,6.66
	s7.02,16.51,29.09,15.14c-17.96,9.3-6.29,21.98,8.39,20.61C65.17,219.81,23.63,181.2,23.63,181.2z"/>
</svg>
