<?xml version="1.0" standalone="no"?>
<!DOCTYPE svg PUBLIC "-//W3C//DTD SVG 20010904//EN"
 "http://www.w3.org/TR/2001/REC-SVG-20010904/DTD/svg10.dtd">
<svg version="1.0" xmlns="http://www.w3.org/2000/svg"
 width="16.000000pt" height="16.000000pt" viewBox="0 0 16.000000 16.000000"
 preserveAspectRatio="xMidYMid meet">
<metadata>
Created by potrace 1.11, written by Peter Selinger 2001-2013
</metadata>
<g transform="translate(0.000000,16.000000) scale(0.006202,-0.006202)"
fill="#000000" stroke="none">
<path d="M240 2556 c0 -30 -157 -2381 -165 -2484 l-7 -72 1130 0 1130 0 6 72
c9 97 166 2453 166 2484 l0 24 -1130 0 -1130 0 0 -24z m749 -961 c87 -48 129
-139 110 -238 -16 -85 -68 -147 -212 -252 l-69 -50 103 -5 102 -5 38 -60 c21
-33 38 -70 38 -82 l1 -23 -260 0 -260 0 0 88 1 87 150 130 c83 72 157 142 165
157 20 38 18 74 -6 98 -39 39 -97 20 -114 -37 -7 -22 -13 -23 -97 -23 l-89 0
0 38 c0 50 42 132 82 162 79 58 225 65 317 15z m621 -340 l0 -375 -90 0 -90 0
0 60 0 60 -163 0 -162 0 -26 43 -27 44 144 239 c80 131 153 254 164 272 l19
32 116 0 115 0 0 -375z m170 -95 l0 -60 50 0 50 0 0 60 0 60 55 0 55 0 0 -170
0 -170 -55 0 -55 0 0 60 0 60 -50 0 -50 0 0 -60 0 -60 -55 0 -55 0 0 170 0
170 55 0 55 0 0 -60z m-96 -341 c40 -18 57 -84 35 -133 -29 -64 -114 -52 -137
18 -27 83 30 147 102 115z m-624 -19 c0 -16 -7 -20 -35 -20 -44 0 -46 -18 -3
-22 22 -2 34 -9 36 -20 3 -15 -4 -18 -32 -18 -25 0 -36 -4 -36 -15 0 -10 11
-15 35 -15 28 0 35 -4 35 -20 0 -18 -7 -20 -60 -20 l-60 0 0 85 0 85 60 0 c53
0 60 -2 60 -20z m99 -7 l21 -28 21 28 c12 16 30 27 45 27 23 0 24 -2 24 -85 0
-84 0 -85 -25 -85 -23 0 -25 4 -25 48 l-1 47 -15 -27 c-18 -34 -23 -35 -49 -2
l-20 25 3 -45 c4 -44 3 -46 -22 -46 -26 0 -26 0 -26 85 0 83 1 85 24 85 15 0
33 -11 45 -27z m255 11 c35 -34 8 -104 -41 -104 -18 0 -23 -5 -23 -25 0 -20
-5 -25 -25 -25 -25 0 -25 1 -25 85 l0 85 49 0 c32 0 55 -6 65 -16z m86 -49 l0
-65 35 0 c28 0 35 -4 35 -20 0 -18 -7 -20 -60 -20 l-60 0 0 85 c0 84 0 85 25
85 24 0 25 -2 25 -65z m290 -20 c0 -78 -2 -85 -20 -85 -18 0 -20 7 -20 85 0
78 2 85 20 85 18 0 20 -7 20 -85z m-910 -76 c23 -6 22 -7 -7 -8 l-33 -1 2 53
1 52 6 -45 c5 -36 10 -45 31 -51z m22 69 c-7 -7 -12 -8 -12 -2 0 14 12 26 19
19 2 -3 -1 -11 -7 -17z m976 15 c-16 -2 -28 -11 -28 -19 0 -8 11 -15 28 -15
l27 -2 -27 -4 c-37 -6 -37 -33 -1 -33 19 0 24 -3 16 -11 -6 -6 -21 -9 -34 -7
-21 3 -24 9 -27 51 l-3 47 38 -1 c30 -2 32 -3 11 -6z m90 0 c-14 -3 -18 -16
-20 -51 l-2 -47 -3 47 c-3 33 -9 48 -21 51 -9 3 1 5 23 5 22 0 32 -2 23 -5z
m-1430 -30 c-2 -20 -9 -29 -25 -31 -12 -2 -24 -11 -26 -20 -3 -9 -5 4 -6 31
-1 46 0 47 30 47 27 0 30 -3 27 -27z m86 11 c17 -44 -7 -81 -43 -69 -26 8 -38
50 -21 70 16 20 56 19 64 -1z m36 -17 c0 -38 6 -48 26 -40 8 3 14 19 14 39 0
19 3 34 8 34 4 0 6 -18 4 -40 -7 -71 -72 -61 -72 12 0 15 5 28 10 28 6 0 10
-15 10 -33z m134 17 c4 -9 1 -23 -5 -30 -9 -11 -8 -18 1 -29 7 -8 8 -15 2 -15
-5 0 -17 10 -25 23 -13 18 -16 19 -16 5 -1 -9 -5 -20 -11 -23 -6 -4 -10 12
-10 39 0 44 1 46 29 46 17 0 31 -6 35 -16z m131 -129 c33 -32 35 -105 5 -135
-26 -26 -68 -25 -97 2 -35 32 -33 109 3 137 35 27 59 26 89 -4z m516 -55 c15
-41 28 -81 28 -87 1 -18 -36 -16 -43 2 -3 9 -18 15 -35 15 -16 0 -31 -6 -35
-15 -5 -13 -46 -22 -46 -11 0 12 54 153 63 164 20 26 40 6 68 -68z m344 57
c22 -18 27 -31 27 -71 1 -57 -24 -86 -72 -86 -66 0 -98 117 -44 159 34 27 57
26 89 -2z m-1285 -33 c0 -27 4 -34 20 -34 11 0 20 -4 20 -10 0 -5 -13 -10 -30
-10 -29 0 -30 1 -30 51 0 31 4 48 10 44 6 -3 10 -22 10 -41z m129 -44 c0 -12
-2 -11 -10 3 -13 22 -45 22 -53 1 -4 -9 -9 -14 -12 -11 -3 3 4 27 16 54 l22
48 19 -40 c10 -22 18 -47 18 -55z m161 70 c0 -16 -7 -20 -30 -20 -16 0 -30 -4
-30 -10 0 -5 14 -10 30 -10 23 0 30 -4 30 -20 0 -15 -7 -20 -29 -20 -26 0 -30
-4 -33 -32 -2 -25 -8 -34 -25 -36 -22 -3 -23 -1 -23 82 l0 86 55 0 c48 0 55
-2 55 -20z m300 5 c18 -21 16 -66 -4 -80 -14 -10 -14 -14 -1 -31 20 -27 18
-44 -5 -44 -12 0 -26 13 -37 33 l-18 32 -3 -33 c-3 -28 -7 -33 -25 -30 -20 3
-22 9 -25 86 l-3 82 54 0 c36 0 59 -5 67 -15z m100 -10 c7 -14 17 -25 21 -25
3 0 14 11 23 25 10 16 26 25 41 25 25 0 25 -1 25 -86 0 -83 -1 -85 -22 -82
-19 2 -24 11 -28 48 -5 37 -7 41 -13 23 -11 -29 -31 -29 -51 -1 -15 22 -16 21
-16 -25 0 -44 -2 -48 -22 -45 -21 3 -23 9 -26 86 l-3 82 29 0 c20 0 32 -7 42
-25z m398 8 c-2 -10 -13 -19 -26 -21 -20 -3 -22 -9 -22 -68 0 -57 -2 -64 -20
-64 -18 0 -20 7 -20 64 0 59 -2 65 -22 68 -13 2 -24 11 -26 21 -3 15 5 17 68
17 63 0 71 -2 68 -17z m62 -69 c0 -83 -1 -85 -22 -82 -21 3 -23 9 -26 86 -3
82 -3 82 23 82 25 0 25 -1 25 -86z m257 44 l22 -43 0 43 c1 38 3 42 26 42 25
0 25 -1 25 -85 0 -83 -1 -85 -24 -85 -18 0 -31 11 -50 43 l-25 42 -1 -43 c0
-39 -2 -43 -22 -40 -21 3 -23 9 -26 86 l-3 82 29 0 c23 0 32 -7 49 -42z"/>
<path d="M1422 1362 c-16 -135 -15 -167 3 -182 13 -11 18 -10 30 6 8 10 12 26
10 34 -2 8 -6 54 -10 103 -11 146 -20 156 -33 39z"/>
<path d="M1320 1178 c-25 -5 -52 -12 -60 -15 -15 -6 85 -32 126 -33 24 0 37
21 28 45 -7 17 -27 17 -94 3z"/>
<path d="M1636 775 c-30 -30 -15 -90 20 -83 14 2 20 13 22 39 4 45 -18 68 -42
44z"/>
<path d="M1350 760 c0 -11 7 -20 15 -20 8 0 15 9 15 20 0 11 -7 20 -15 20 -8
0 -15 -9 -15 -20z"/>
<path d="M492 713 c2 -10 10 -18 18 -18 8 0 16 8 18 18 2 12 -3 17 -18 17 -15
0 -20 -5 -18 -17z"/>
<path d="M577 723 c-13 -12 -7 -51 8 -57 18 -6 37 26 29 48 -6 16 -26 21 -37
9z"/>
<path d="M750 715 c0 -8 7 -15 15 -15 8 0 15 7 15 15 0 8 -7 15 -15 15 -8 0
-15 -7 -15 -15z"/>
<path d="M862 568 c-31 -31 0 -105 33 -78 25 21 14 90 -15 90 -3 0 -11 -5 -18
-12z"/>
<path d="M1387 536 c-4 -10 -5 -21 -2 -24 9 -9 17 6 13 25 -3 17 -4 17 -11 -1z"/>
<path d="M1720 561 c-14 -26 -13 -44 4 -66 12 -16 16 -17 30 -6 19 16 21 62 4
79 -17 17 -26 15 -38 -7z"/>
<path d="M586 571 c-4 -7 -5 -15 -2 -18 9 -9 19 4 14 18 -4 11 -6 11 -12 0z"/>
<path d="M1020 554 c0 -9 7 -14 17 -12 25 5 28 28 4 28 -12 0 -21 -6 -21 -16z"/>
</g>
</svg>
