<?xml version="1.0" standalone="no"?>
<!DOCTYPE svg PUBLIC "-//W3C//DTD SVG 20010904//EN"
 "http://www.w3.org/TR/2001/REC-SVG-20010904/DTD/svg10.dtd">
<svg version="1.0" xmlns="http://www.w3.org/2000/svg"
 width="460.000000pt" height="460.000000pt" viewBox="0 0 460.000000 460.000000"
 preserveAspectRatio="xMidYMid meet">
<metadata>
Created by potrace 1.11, written by Peter Selinger 2001-2013
</metadata>
<g transform="translate(0.000000,460.000000) scale(0.100000,-0.100000)"
fill="#000000" stroke="none">
<path d="M1036 4218 c9 -27 9 -88 0 -123 -6 -24 -5 -25 49 -25 54 0 55 0 55
30 0 34 -15 40 -23 10 -3 -11 -14 -20 -24 -20 -16 0 -18 8 -18 59 0 33 3 63 8
67 15 15 6 24 -24 24 -27 0 -30 -2 -23 -22z"/>
<path d="M1217 4228 c12 -15 12 -123 0 -134 -16 -16 -5 -21 48 -23 54 -1 55 0
55 27 -1 25 -2 25 -14 10 -22 -29 -46 -23 -46 12 0 32 9 37 28 18 9 -9 12 -4
12 23 -1 28 -2 31 -11 16 -13 -22 -29 -13 -29 18 0 31 20 43 35 22 16 -23 25
-21 25 3 0 18 -7 20 -56 20 -44 0 -54 -3 -47 -12z"/>
<path d="M1526 4225 c9 -23 10 -126 2 -131 -18 -11 -6 -24 22 -24 17 0 30 5
30 10 0 6 -3 10 -7 10 -5 0 -8 11 -8 25 0 34 9 31 34 -10 12 -21 28 -35 40
-35 20 0 19 1 -4 36 -22 32 -23 39 -11 56 15 20 10 58 -8 70 -6 4 -30 8 -53 8
-33 0 -41 -3 -37 -15z m74 -30 c0 -13 -5 -27 -11 -31 -14 -8 -28 13 -24 35 2
9 4 19 4 23 2 19 31 -7 31 -27z"/>
<path d="M1728 4228 c15 -15 16 -138 2 -138 -5 0 -10 -5 -10 -10 0 -7 22 -10
57 -8 44 2 57 7 59 20 3 23 -12 33 -20 13 -3 -8 -15 -15 -26 -15 -16 0 -20 7
-20 30 0 20 5 30 15 30 8 0 15 -5 15 -12 0 -17 10 -4 15 20 2 12 0 24 -6 27
-5 4 -9 1 -9 -4 0 -6 -7 -11 -15 -11 -18 0 -21 46 -2 53 6 2 20 -2 30 -11 15
-14 17 -13 17 6 0 20 -5 22 -57 22 -44 0 -54 -3 -45 -12z"/>
<path d="M1918 4227 c13 -15 13 -137 0 -137 -4 0 -8 -4 -8 -10 0 -5 11 -10 25
-10 14 0 25 5 25 10 0 6 -3 10 -8 10 -4 0 -8 23 -8 50 0 28 2 50 5 50 3 0 21
-28 40 -61 19 -32 39 -58 45 -56 7 2 10 32 9 75 -1 41 2 72 7 72 6 0 10 5 10
10 0 6 -11 10 -25 10 -14 0 -25 -4 -25 -10 0 -5 3 -10 8 -10 4 0 7 -20 8 -45
0 -25 -1 -45 -2 -45 -2 0 -17 25 -34 55 -25 44 -37 55 -57 55 -20 0 -23 -3
-15 -13z"/>
<path d="M2138 4228 c12 -16 13 -138 1 -138 -5 0 -9 -4 -9 -10 0 -5 20 -10 45
-10 61 0 95 32 95 88 0 57 -28 82 -92 82 -39 0 -48 -3 -40 -12z m91 -41 c14
-39 -2 -93 -29 -100 -16 -4 -19 2 -22 50 -1 30 0 63 4 74 10 26 34 14 47 -24z"/>
<path d="M2355 4223 c9 -24 10 -103 0 -131 -6 -22 -5 -23 47 -20 48 3 53 5 56
28 2 23 1 24 -11 8 -22 -28 -54 -23 -53 7 2 32 12 41 31 25 13 -11 15 -9 15
14 0 23 -3 26 -23 20 -21 -5 -24 -2 -22 23 1 31 23 38 42 13 7 -8 13 -13 13
-10 9 40 9 40 -47 40 -49 0 -54 -2 -48 -17z"/>
<path d="M2540 4213 l0 -27 20 22 c11 12 27 19 35 16 19 -8 20 -4 -20 -71 -19
-32 -35 -64 -35 -70 0 -9 18 -13 54 -13 60 0 67 5 56 35 -7 18 -8 19 -15 3 -4
-11 -18 -18 -35 -18 l-29 0 40 65 c21 35 39 69 39 75 0 5 -24 10 -55 10 -53 0
-55 -1 -55 -27z"/>
<path d="M2863 4218 c8 -13 24 -51 37 -86 12 -34 28 -61 34 -59 6 2 21 37 34
77 13 41 28 78 35 82 7 4 -2 8 -22 8 -25 0 -31 -3 -23 -12 6 -9 5 -29 -5 -63
l-15 -50 -14 45 c-8 25 -12 53 -10 63 3 14 -3 17 -30 17 -33 0 -34 -1 -21 -22z"/>
<path d="M3081 4209 c-29 -47 -12 -121 30 -134 36 -12 69 4 84 37 27 66 -2
128 -62 128 -27 0 -37 -6 -52 -31z m80 0 c10 -16 12 -80 3 -103 -7 -19 -38
-21 -51 -3 -12 14 -11 84 1 109 9 19 34 18 47 -3z"/>
<path d="M3285 4230 c4 -6 8 -38 9 -70 3 -68 17 -90 57 -90 37 0 58 32 57 86
0 23 3 51 7 62 5 19 2 22 -21 22 -22 0 -25 -3 -16 -12 14 -14 16 -106 3 -126
-5 -8 -17 -12 -27 -10 -23 4 -32 46 -23 106 6 41 5 42 -23 42 -18 0 -27 -4
-23 -10z"/>
<path d="M3506 4224 c-12 -32 -5 -54 24 -76 17 -12 30 -30 30 -40 0 -26 -37
-23 -46 5 l-8 22 -6 -25 c-7 -29 4 -40 41 -40 31 0 58 27 53 55 -1 10 -20 33
-40 51 l-38 31 23 12 c20 11 23 10 28 -8 7 -29 23 -26 23 4 0 22 -4 25 -39 25
-26 0 -41 -5 -45 -16z"/>
<path d="M2730 4140 c0 -5 14 -10 30 -10 17 0 30 5 30 10 0 6 -13 10 -30 10
-16 0 -30 -4 -30 -10z"/>
<path d="M1257 3990 c-115 -7 -117 -11 -117 -209 1 -202 7 -211 150 -211 73 0
83 3 105 25 17 16 25 35 25 59 0 32 -2 35 -27 33 -20 -2 -29 -9 -33 -27 -6
-24 -9 -25 -80 -25 l-75 0 -3 148 -3 147 31 1 c16 1 37 2 45 2 78 0 85 -3 85
-28 0 -14 3 -25 8 -26 54 -6 52 -7 52 31 0 66 -45 88 -163 80z"/>
<path d="M1838 3989 c-14 -8 -16 -32 -16 -181 1 -235 3 -238 150 -238 66 0 81
3 104 23 l27 23 1 187 1 187 -30 0 -31 0 1 -162 c1 -90 -1 -171 -3 -181 -4
-15 -14 -17 -81 -15 l-76 3 -1 174 c-1 182 -6 202 -46 180z"/>
<path d="M3228 3992 c-16 -2 -28 -10 -28 -18 -1 -8 -1 -97 -1 -199 0 -102 0
-189 1 -195 0 -6 54 -10 140 -10 l140 0 0 30 0 30 -109 0 -110 0 -3 28 c-2 15
-1 42 1 60 l3 32 79 0 79 0 0 30 0 30 -79 0 c-47 0 -81 4 -83 11 -2 6 -1 34 2
62 l5 52 108 -1 107 -2 0 29 c0 25 -4 29 -27 30 -16 0 -66 1 -113 2 -47 1 -97
1 -112 -1z"/>
<path d="M460 3780 l0 -210 29 0 28 0 -1 88 -1 87 41 3 41 3 38 -91 c37 -88
39 -90 71 -90 l33 0 -19 45 c-11 25 -29 65 -39 89 l-20 45 30 10 c38 13 52 50
47 130 -6 93 -19 101 -164 101 l-114 0 0 -210z m198 151 c22 -1 23 -4 20 -58
l-3 -58 -80 0 -79 0 1 50 c1 28 2 55 2 60 1 9 21 10 139 6z"/>
<path d="M808 3983 c-3 -7 -2 -290 1 -380 l1 -33 140 0 140 0 0 30 0 29 -112
3 -113 3 0 45 c-1 70 -1 70 86 70 l79 0 0 30 0 29 -82 3 -82 3 0 58 c-1 65
-14 59 132 59 l92 0 0 29 0 29 -139 0 c-77 0 -141 -3 -143 -7z"/>
<path d="M1471 3780 l0 -210 30 0 29 0 0 91 0 90 41 -3 42 -3 37 -85 c34 -79
40 -85 69 -88 17 -2 31 -1 31 2 0 5 -35 86 -58 135 -13 29 -14 35 -2 39 8 3
24 15 37 28 22 22 26 39 25 124 0 49 0 47 -24 70 -19 18 -35 20 -140 20 l-118
0 1 -210z m215 147 c9 -9 10 -82 2 -99 -7 -15 -22 -18 -83 -18 l-75 0 0 59 c0
54 2 60 23 63 30 4 128 1 133 -5z"/>
<path d="M2173 3963 c3 -25 8 -28 48 -30 24 0 49 -2 54 -2 7 -1 10 -62 10
-172 0 -93 2 -175 6 -180 3 -6 17 -9 30 -7 l24 3 -1 178 c0 198 -9 178 75 181
31 1 35 4 36 29 l2 27 -144 0 -144 0 4 -27z"/>
<path d="M2517 3983 c-3 -5 -4 -99 -4 -210 l1 -203 138 0 c84 0 138 4 139 10
6 47 10 45 -108 48 l-113 3 0 59 0 60 63 1 c101 2 100 2 104 32 l4 27 -86 0
-85 0 0 60 c0 69 -13 63 138 62 45 -1 82 2 83 6 0 4 2 17 5 30 4 22 4 22 -135
22 -77 0 -142 -3 -144 -7z"/>
<path d="M2846 3783 l0 -208 30 -3 30 -3 -1 115 c0 64 2 112 5 108 3 -4 21
-53 40 -110 18 -56 35 -100 37 -98 2 2 19 47 38 101 18 53 36 100 40 103 3 4
6 -38 5 -93 -1 -55 -1 -106 -1 -112 1 -7 14 -13 30 -13 l29 0 0 211 1 210 -32
-3 c-30 -3 -33 -7 -69 -108 -20 -58 -38 -108 -40 -113 -2 -4 -21 44 -43 108
-39 113 -40 115 -70 115 l-30 0 1 -207z"/>
<path d="M3530 3781 l0 -211 30 0 29 0 3 145 3 144 79 -144 c73 -133 82 -145
107 -145 l28 0 3 210 3 211 -30 -3 -30 -3 -2 -135 c-1 -74 -2 -139 -2 -145 -1
-5 -19 24 -40 65 -107 205 -114 215 -149 218 l-32 3 0 -210z"/>
<path d="M3884 3975 c-12 -31 3 -43 55 -41 60 1 56 15 56 -201 l-1 -163 27 0
c15 0 29 6 31 13 2 6 3 87 3 180 l-1 167 25 1 c14 1 40 2 56 3 25 1 30 5 31
29 l1 27 -139 0 c-114 0 -140 -3 -144 -15z"/>
<path d="M1034 3481 c-2 -2 -4 -106 -4 -231 l0 -226 152 0 152 1 3 31 2 30
-122 0 -122 0 -1 62 c0 35 3 65 8 68 4 3 44 5 88 6 l80 1 0 31 0 32 -80 -1
c-44 -1 -84 2 -88 5 -4 3 -8 33 -8 68 l0 62 121 0 120 0 1 30 c1 17 -1 30 -5
31 -30 3 -294 3 -297 0z"/>
<path d="M1402 3482 c-7 -2 12 -48 47 -116 l59 -113 -47 -89 c-25 -50 -52
-102 -58 -117 -13 -27 -13 -27 22 -24 20 3 37 6 39 8 2 2 20 37 41 78 l37 75
42 -80 c38 -73 44 -79 74 -81 17 -1 32 3 32 8 0 5 -25 56 -56 114 l-55 105 56
111 c31 61 54 113 52 116 -8 7 -67 10 -67 3 0 -3 -18 -39 -39 -80 l-39 -74
-38 76 c-31 63 -42 77 -64 80 -15 2 -32 2 -38 0z"/>
<path d="M1771 3480 c-4 -3 -8 -105 -7 -227 0 -231 1 -235 42 -229 20 3 19 -1
23 159 1 38 2 39 39 37 115 -6 143 -1 173 29 26 27 29 36 29 95 0 74 -12 108
-45 126 -23 12 -239 21 -254 10z m230 -67 c6 -41 2 -116 -6 -123 -5 -4 -46 -7
-89 -7 l-80 2 1 28 c1 15 1 45 2 67 l1 40 85 0 c47 0 85 -3 86 -7z"/>
<path d="M2124 3255 l1 -230 153 -1 152 0 0 31 0 32 -116 -1 c-64 -1 -119 3
-122 8 -3 6 -6 36 -6 68 l-1 58 65 1 c116 2 114 1 115 32 1 15 -3 28 -9 28 -6
1 -40 3 -76 4 -36 1 -72 3 -80 4 -14 1 -16 25 -11 119 1 9 32 12 122 12 l120
0 -3 32 -3 32 -151 0 -151 1 1 -230z"/>
<path d="M2507 3481 c-6 -2 -14 -7 -17 -12 -4 -6 -5 -393 -1 -435 1 -6 15 -10
31 -10 l30 0 0 97 c0 92 1 97 23 101 53 9 62 0 102 -93 41 -97 46 -102 87
-105 28 -2 37 12 20 32 -5 5 -23 42 -41 83 -25 58 -29 76 -19 82 7 5 16 9 19
9 3 0 15 9 27 20 19 18 22 31 22 101 0 72 -3 82 -25 104 -13 14 -34 25 -47 26
-105 3 -200 3 -211 0z m221 -120 c2 -30 -2 -59 -8 -65 -6 -6 -46 -11 -90 -11
l-80 -1 0 69 0 68 88 -3 87 -3 3 -54z"/>
<path d="M2872 3475 c-4 -5 -7 -19 -7 -30 0 -17 8 -21 60 -25 l60 -5 2 -180
c0 -99 2 -187 2 -195 1 -10 12 -17 31 -18 l30 -2 0 200 0 200 61 0 60 0 -3 31
-3 32 -143 1 c-86 1 -147 -3 -150 -9z"/>
<path d="M3309 3479 c-55 -12 -72 -39 -74 -116 -3 -119 20 -141 145 -142 52
-1 86 -5 91 -12 11 -19 5 -109 -9 -118 -15 -9 -135 -6 -151 3 -6 4 -11 13 -11
20 0 14 -58 28 -65 17 -2 -4 0 -22 4 -41 10 -53 49 -68 163 -65 86 2 93 4 115
29 20 23 23 38 23 102 0 66 -3 78 -25 99 -13 14 -30 25 -37 26 -7 1 -47 2 -88
4 -41 2 -79 3 -83 4 -4 1 -7 29 -5 64 l3 62 83 3 c63 2 82 0 82 -11 0 -22 19
-34 46 -29 17 3 24 11 24 27 0 28 -46 75 -74 76 -96 4 -129 3 -157 -2z"/>
<path d="M2116 2910 c-82 -16 -159 -31 -171 -34 -21 -5 -24 -12 -51 -131 -1
-5 -7 -32 -14 -60 -6 -27 -14 -59 -16 -70 -2 -11 -17 -73 -32 -137 -16 -65
-28 -118 -26 -118 3 0 59 33 127 73 178 107 255 148 260 140 3 -5 10 -40 17
-80 16 -91 21 -99 50 -83 22 12 78 9 128 -6 13 -3 22 -3 20 2 -3 13 32 164 38
164 3 0 33 -16 67 -36 34 -20 82 -48 107 -62 25 -14 80 -47 123 -73 42 -26 77
-47 77 -45 0 23 -135 523 -142 527 -6 4 -36 10 -67 14 -31 4 -65 8 -76 10 -11
2 -39 7 -63 10 -24 3 -66 10 -94 15 -70 14 -92 12 -262 -20z"/>
<path d="M2284 2378 c-51 -13 -51 -13 -70 -193 -4 -27 -8 -53 -11 -57 -13 -22
11 -3 52 41 25 27 70 62 100 78 51 26 55 31 55 64 0 58 -53 87 -126 67z"/>
<path d="M2370 2171 c-25 -13 -75 -55 -112 -92 -56 -55 -68 -73 -69 -100 0
-19 -2 -43 -4 -54 -2 -11 -7 -42 -10 -70 -4 -27 -8 -61 -10 -75 -2 -14 -6 -50
-10 -80 -4 -30 -9 -63 -12 -74 -3 -10 28 15 68 56 65 65 180 148 206 148 5 0
18 7 29 15 19 12 20 20 13 63 -4 27 -10 71 -13 98 -15 133 -22 185 -28 189 -2
1 -23 -10 -48 -24z"/>
<path d="M2405 1737 c-101 -53 -180 -118 -258 -213 -9 -11 -19 -40 -22 -65 -4
-37 -14 -106 -30 -219 -2 -14 -6 -47 -10 -74 -3 -27 -8 -53 -11 -58 -3 -4 0
-8 5 -8 6 0 11 4 11 9 0 16 105 119 172 170 37 27 106 71 154 98 48 26 90 56
93 67 4 10 4 44 -1 75 -4 31 -10 79 -14 106 -3 28 -7 59 -9 70 -1 11 -3 32 -4
48 0 15 -4 27 -8 26 -5 0 -35 -15 -68 -32z"/>
<path d="M2524 1330 c-5 -5 -47 -30 -94 -56 -105 -57 -197 -127 -273 -208 -71
-74 -83 -96 -91 -164 -7 -57 -10 -78 -26 -196 l-12 -78 33 -34 32 -33 24 37
c36 54 149 162 220 210 33 23 101 62 150 88 48 26 92 52 96 58 4 6 5 31 1 56
-3 25 -8 61 -10 80 -33 257 -33 257 -50 240z"/>
<path d="M2586 841 c-3 -5 -32 -21 -63 -36 -139 -65 -306 -197 -367 -289 l-26
-38 59 -62 c33 -33 78 -81 101 -106 l42 -44 51 55 c207 221 252 274 250 293
-1 12 -7 62 -14 111 -6 50 -11 98 -11 108 1 18 -13 23 -22 8z"/>
</g>
</svg>
