<?xml version="1.0" encoding="utf-8"?>
<!-- Generator: Adobe Illustrator 26.2.1, SVG Export Plug-In . SVG Version: 6.00 Build 0)  -->
<svg version="1.1" id="icons" xmlns="http://www.w3.org/2000/svg" xmlns:xlink="http://www.w3.org/1999/xlink" x="0px" y="0px"
	 viewBox="0 0 288 288" style="enable-background:new 0 0 288 288;" xml:space="preserve">
<style type="text/css">
	.st0{fill:#575756;}
	.st1{fill-rule:evenodd;clip-rule:evenodd;fill:#575756;}
	.st2{clip-path:url(#SVGID_00000003093393298388334020000012976824337962935448_);fill:#575756;}
	.st3{clip-path:url(#SVGID_00000168086272113210542900000009757736095547070865_);fill:#575756;}
	.st4{clip-path:url(#SVGID_00000088107298350033303850000007150466034980318367_);fill:#575756;}
	.st5{opacity:0.2;}
	.st6{fill:#1D1D1B;}
	.st7{fill:#FFFFFF;}
	.st8{opacity:0.6;clip-path:url(#SVGID_00000149361247749038743290000001955831610607148181_);}
	.st9{fill:#E42222;}
</style>
<g>
	<path class="st0" d="M142.56,80.38c10.71,0,19.39-8.68,19.39-19.38c0-10.71-8.68-19.39-19.39-19.39c-10.7,0-19.38,8.68-19.38,19.39
		C123.18,71.71,131.86,80.38,142.56,80.38z"/>
	<path class="st0" d="M37.14,105.27c12.92-0.14,23.17-10.73,23.06-23.8C60.1,68.79,49.87,58.77,37,58.73
		C23.73,58.7,13.66,68.74,13.7,81.97C13.74,95.04,24.18,105.41,37.14,105.27z"/>
	<path class="st0" d="M257.13,113.2c-7.07-0.28-10.56-0.27-17.63,0.09c-2.09,0.11-4.37,1.5-6.06,2.9c-1.96,1.63-3.62,3.77-4.99,5.95
		c-6.49,10.38-20.95,17.15-34.27,16.05l-4.68-27.48c0-10.54-8.26-19.12-18.41-19.12h-7.82l-12.9,37.4l-4.49-37.81l-5.14,0.06
		l-2.02,37.76l-13.4-37.41h-7.61c-10.15,0-18.41,8.58-18.4,19.37l-4.17,27.08c-13.68,1.69-28.9-5.16-35.61-15.89
		c-1.37-2.18-3.02-4.32-4.99-5.95c-1.69-1.4-3.97-2.8-6.06-2.9c-7.07-0.36-10.55-0.37-17.63-0.09c-7.71,0.31-11.75,4.37-11.82,12.11
		c-0.19,19.15,5.5,54.4,5.5,54.4s1.69,19.01,21.48,19.01c13.75,0,15.78,0.18,15.78,0.18s5.21-0.42,7.05,5.18
		c2.21,7.22,4.75,14.34,7.12,21.51c7.14,21.6,7.12,20.79,29.92,20.79c9.63,0,4.59-12.79,4.59-12.79l-9.31-41.21
		c0,0-7.13-24.18-24.75-24.18c-6.77-0.06-8-0.01-14.96-0.01l-1.98-8.81h15.95c6.84,0.8,13.73,0.27,20.54,0.28
		c16.01,0.03,32.01,0.04,48.02,0.04l-0.01,0l0.02,0c16.01,0,32.01-0.01,48.02-0.04c6.81-0.01,13.7,0.52,20.55-0.28h15.95l-1.98,8.81
		c-6.96,0-8.19-0.05-14.96,0.01c-17.62,0-24.75,24.18-24.75,24.18l-9.31,41.21c0,0-5.04,12.79,4.59,12.79
		c22.81,0,22.79,0.82,29.92-20.79c2.37-7.17,4.91-14.29,7.12-21.51c1.83-5.61,7.05-5.18,7.05-5.18s2.02-0.18,15.78-0.18
		c19.79,0,21.48-19.01,21.48-19.01s5.69-35.25,5.5-54.4C268.88,117.57,264.84,113.51,257.13,113.2z"/>
	<path class="st0" d="M250.86,105.27c12.97,0.14,23.41-10.23,23.45-23.3c0.04-13.23-10.03-23.27-23.31-23.24
		c-12.87,0.03-23.1,10.05-23.2,22.73C227.68,94.54,237.94,105.13,250.86,105.27z"/>
</g>
</svg>
