<?xml version="1.0" standalone="no"?>
<!DOCTYPE svg PUBLIC "-//W3C//DTD SVG 20010904//EN"
 "http://www.w3.org/TR/2001/REC-SVG-20010904/DTD/svg10.dtd">
<svg version="1.0" xmlns="http://www.w3.org/2000/svg"
 width="450.000000pt" height="450.000000pt" viewBox="0 0 450.000000 450.000000"
 preserveAspectRatio="xMidYMid meet">
<metadata>
Created by potrace 1.11, written by Peter Selinger 2001-2013
</metadata>
<g transform="translate(0.000000,450.000000) scale(0.100000,-0.100000)"
fill="#000000" stroke="none">
<path d="M1104 3855 c-9 -16 -59 -99 -111 -182 -51 -84 -93 -157 -93 -163 0
-5 -3 -10 -8 -10 -4 0 -12 -9 -17 -20 -21 -43 -169 -285 -177 -288 -4 -2 -8
-8 -8 -13 0 -9 -171 -295 -236 -396 -19 -28 -34 -54 -34 -58 0 -3 -13 -26 -30
-50 -16 -24 -30 -48 -30 -54 0 -6 -3 -11 -7 -11 -5 0 -13 -11 -20 -25 -10 -23
-5 -35 50 -127 l62 -101 395 0 c250 1 397 -3 401 -9 4 -6 3 -24 0 -42 -4 -17
-4 -46 0 -64 3 -18 3 -34 0 -37 -4 -2 -6 -19 -4 -37 2 -18 4 -51 3 -73 l0 -41
225 0 225 0 0 26 c0 40 0 1710 0 1760 l0 45 -284 0 -285 0 -17 -30z m167 -382
c3 -56 7 -91 12 -118 4 -16 9 -59 12 -95 4 -60 10 -110 20 -200 2 -19 7 -73
10 -119 3 -46 8 -88 10 -91 5 -8 -64 -100 -75 -100 -3 0 -15 10 -26 23 -44 50
-51 67 -47 110 6 66 11 95 18 106 3 6 1 11 -5 11 -6 0 -8 4 -5 10 3 5 8 31 10
57 6 61 15 138 20 183 3 19 7 62 11 95 3 33 7 69 8 80 2 11 4 30 5 43 1 26 20
30 22 5z m-71 -694 c28 -39 29 -42 13 -67 -26 -41 -45 -62 -53 -57 -4 3 -25 7
-45 11 -21 3 -47 8 -59 10 -11 2 -34 6 -51 9 -16 3 -41 8 -55 10 -14 3 -36 7
-50 10 -14 3 -38 8 -55 12 -16 4 -33 7 -37 7 -5 1 -8 6 -8 11 -1 10 26 18 100
31 19 3 38 8 41 10 4 2 24 6 45 9 22 3 50 7 64 10 14 3 41 8 60 11 19 3 37 8
39 10 11 10 23 1 51 -37z"/>
<path d="M2275 3874 c-38 -7 -74 -15 -80 -17 -5 -2 -21 -7 -35 -11 -27 -8 -92
-39 -125 -59 -11 -7 -46 -38 -78 -70 -96 -95 -137 -210 -133 -367 4 -145 59
-256 150 -305 44 -24 45 -36 5 -54 -46 -20 -142 -119 -167 -172 -22 -46 -27
-60 -41 -129 -8 -40 -6 -161 3 -202 3 -16 8 -40 11 -55 23 -107 126 -234 236
-291 64 -32 149 -65 149 -57 0 3 11 0 24 -5 61 -23 304 -32 426 -16 256 33
439 177 486 381 47 204 5 378 -119 490 -33 30 -66 55 -72 55 -7 0 -18 6 -24
14 -9 11 -5 18 22 35 69 42 130 125 142 191 3 18 8 37 11 41 10 17 4 167 -10
234 -14 68 -72 171 -126 225 -59 58 -155 107 -265 135 -91 23 -295 28 -390 9z
m183 -316 c0 -7 6 -33 12 -58 7 -25 14 -54 16 -65 2 -11 17 -73 33 -138 l29
-118 -49 -52 -49 -52 -45 48 c-45 49 -51 72 -31 127 3 8 7 26 10 40 6 34 56
252 61 268 2 6 6 12 8 12 2 0 4 -6 5 -12z m42 -557 c47 -49 47 -50 40 -98 -4
-26 -11 -70 -14 -98 -14 -109 -17 -132 -26 -185 -5 -30 -12 -77 -15 -105 -3
-27 -7 -59 -9 -70 -2 -12 -7 -46 -11 -78 -4 -31 -11 -57 -14 -57 -4 0 -8 6 -8
13 -1 6 -4 32 -8 57 -3 25 -8 59 -9 76 -2 17 -6 49 -10 70 -3 21 -8 55 -11 74
-2 19 -7 46 -9 60 -2 14 -7 52 -11 85 -4 32 -8 67 -10 76 -2 10 -6 45 -10 78
l-6 59 43 46 c24 25 45 46 47 46 2 0 25 -22 51 -49z"/>
<path d="M3260 2880 c0 -4 -13 -5 -30 -2 -24 3 -30 1 -31 -14 -4 -91 -1 -786
4 -791 6 -5 124 -7 244 -4 l32 1 -3 108 c-1 59 2 113 7 120 6 7 6 12 0 12 -10
0 -14 29 -4 31 34 7 231 2 234 -6 2 -5 4 -66 3 -133 -1 -68 3 -126 8 -129 7
-5 175 -7 249 -4 16 1 17 27 17 405 l0 404 -25 4 c-14 3 -25 2 -25 -1 0 -4
-27 -4 -60 -1 -37 4 -60 2 -60 -4 0 -6 -5 -5 -12 2 -7 7 -17 8 -27 3 -21 -12
-33 -11 -48 1 -15 12 -15 19 -16 -160 l-1 -133 -120 3 -120 3 -1 93 c0 52 3
96 8 99 4 2 4 9 1 15 -4 6 -7 26 -6 43 1 31 0 33 -38 33 -22 0 -44 4 -50 7 -5
3 -10 2 -10 -2 0 -5 -27 -6 -60 -3 -33 3 -60 3 -60 0z"/>
<path d="M543 2198 c-24 -40 -3 -68 52 -68 8 0 15 -7 15 -15 0 -9 -9 -15 -25
-15 -14 0 -25 5 -25 10 0 6 -7 10 -15 10 -20 0 -19 -26 1 -34 25 -9 72 -7 79
4 4 6 8 21 11 34 3 21 -1 24 -36 30 -41 6 -52 22 -25 32 8 4 22 1 30 -6 19
-16 40 -3 24 16 -14 17 -75 18 -86 2z"/>
<path d="M676 2186 c-3 -14 -6 -28 -7 -31 0 -2 -6 -20 -15 -40 -12 -30 -12
-35 0 -35 8 0 16 6 19 13 5 17 50 16 64 -3 22 -28 25 -2 6 57 -14 44 -23 59
-39 61 -16 2 -23 -4 -28 -22z m46 -42 c10 -14 -13 -26 -29 -16 -7 5 -7 15 -1
32 8 18 12 21 15 10 3 -8 10 -20 15 -26z"/>
<path d="M779 2208 c-1 -2 -3 -31 -4 -65 l-1 -63 43 0 c32 0 43 4 43 16 0 8
-5 12 -11 9 -5 -4 -21 -4 -34 -1 -21 5 -23 9 -15 31 5 14 6 25 1 25 -5 0 -7 8
-4 19 3 10 0 22 -6 25 -6 4 -12 6 -12 4z"/>
<path d="M877 2196 c-16 -17 -13 -96 6 -108 24 -16 76 -9 87 12 12 23 11 80
-3 98 -13 16 -72 15 -90 -2z m73 -46 c0 -43 -10 -54 -41 -45 -17 6 -20 13 -15
43 3 21 5 37 6 37 0 0 11 2 25 3 23 2 25 -2 25 -38z"/>
<path d="M995 2148 c0 -39 5 -63 13 -66 8 -2 12 12 13 50 l0 53 17 -35 c9 -19
20 -36 25 -38 4 -2 7 -10 7 -18 0 -8 10 -14 23 -14 21 0 23 4 22 62 -1 76 -22
93 -27 21 l-3 -48 -23 48 c-17 36 -28 47 -45 47 -22 0 -23 -4 -22 -62z"/>
<path d="M3305 1936 c-102 -37 -162 -104 -189 -210 -12 -46 -21 -130 -16 -146
1 -3 3 -24 5 -47 18 -192 136 -323 295 -325 71 -1 102 3 118 15 6 5 12 7 12 3
0 -10 54 20 90 50 41 35 75 89 91 145 17 59 19 202 3 261 -7 27 -12 49 -11 51
1 1 -11 28 -27 60 -33 65 -94 120 -158 143 -49 17 -166 17 -213 0z m114 -157
c11 17 74 -20 90 -53 18 -39 25 -80 25 -162 0 -113 -45 -183 -122 -189 -12 -1
-25 2 -28 7 -3 4 -9 6 -14 3 -15 -9 -58 58 -69 105 -16 70 -9 179 15 224 21
41 86 86 93 65 2 -8 5 -8 10 0z"/>
<path d="M541 1930 c-4 -3 -7 -163 -8 -356 l0 -351 241 1 241 1 2 78 c2 67 0
77 -15 78 -9 1 -75 2 -147 3 -92 1 -130 4 -130 13 0 6 -3 14 -6 17 -3 3 -3 23
0 44 l6 37 138 0 c84 0 137 4 138 10 4 46 3 129 -3 138 -5 8 -51 12 -135 13
-70 1 -131 2 -134 3 -9 1 -17 60 -10 67 3 3 6 15 6 27 0 22 2 22 145 22 l145
0 2 78 c2 42 -1 77 -5 78 -29 4 -465 3 -471 -1z"/>
<path d="M1134 1931 c-2 -2 -4 -163 -4 -357 l0 -352 95 1 95 1 1 85 c0 47 1
104 1 126 0 44 -9 141 -17 195 l-5 35 21 -40 c37 -71 141 -225 153 -226 6 -1
18 -2 26 -3 18 -1 100 107 140 186 29 55 62 93 46 52 -13 -32 -21 -210 -17
-375 l1 -36 94 0 95 1 1 353 c0 194 -3 353 -7 354 -31 4 -176 3 -182 -1 -12
-9 -81 -110 -81 -119 0 -5 -3 -11 -8 -13 -4 -1 -24 -29 -45 -60 -21 -32 -40
-58 -41 -58 -2 0 -26 33 -52 73 -27 39 -51 74 -54 77 -3 3 -19 26 -35 52 -17
27 -34 48 -40 49 -35 3 -177 3 -181 0z"/>
<path d="M1993 1930 c-17 -5 -18 -24 -19 -356 l-1 -350 96 0 96 1 1 85 c1 47
2 92 3 101 1 14 17 17 94 21 109 4 165 29 208 93 63 92 56 244 -15 337 -7 9
-36 29 -66 44 -50 25 -60 26 -216 28 -89 0 -171 -1 -181 -4z m319 -182 c17
-23 23 -74 12 -113 -8 -32 -43 -49 -101 -50 -60 -2 -54 -13 -55 111 -1 40 4
69 11 73 6 4 35 6 63 4 41 -2 57 -8 70 -25z"/>
<path d="M2590 1865 c-1 -117 -1 -609 -1 -626 1 -14 28 -16 239 -16 l239 0 1
84 2 83 -134 -2 c-73 0 -138 2 -143 5 -7 4 -11 95 -11 249 0 134 -1 254 -1
268 -1 25 -2 25 -96 25 l-95 0 0 -70z"/>
<path d="M3799 1920 c-1 -20 -1 -661 0 -681 1 -13 16 -15 94 -15 l92 1 0 354
0 355 -92 0 c-76 1 -93 -2 -94 -14z"/>
<path d="M999 1097 c-89 -29 -126 -93 -126 -215 0 -45 4 -85 8 -88 5 -3 9 -12
9 -20 0 -30 53 -94 96 -114 102 -50 234 2 266 104 14 46 17 132 5 179 -11 46
-44 103 -73 128 -43 37 -118 47 -185 26z m132 -138 c19 -48 16 -146 -7 -176
-74 -98 -163 18 -123 160 19 71 102 81 130 16z"/>
<path d="M2387 1102 c-10 -2 -17 -8 -17 -14 0 -5 -12 -40 -26 -76 -14 -37 -35
-92 -46 -122 -11 -30 -24 -64 -29 -75 -22 -52 -51 -132 -54 -147 -3 -16 4 -18
56 -18 58 0 60 1 76 34 l16 35 69 -1 c69 -1 70 -1 86 -34 15 -33 18 -34 74
-34 32 0 58 2 58 4 0 6 -162 440 -166 444 -4 5 -77 8 -97 4z m66 -222 c19 -66
16 -70 -55 -61 -3 1 2 28 12 60 10 33 17 62 15 64 -1 3 1 2 5 -2 4 -3 15 -31
23 -61z"/>
<path d="M3297 1103 c-39 -6 -111 -80 -125 -127 -10 -34 -10 -140 0 -186 8
-35 52 -97 85 -120 48 -33 140 -37 194 -9 43 21 83 70 94 114 33 124 -19 283
-104 317 -30 12 -103 18 -144 11z m125 -149 c12 -29 14 -65 9 -135 0 -9 -14
-30 -29 -47 -54 -58 -111 -16 -118 87 -5 76 10 120 49 136 41 17 72 3 89 -41z"/>
<path d="M543 1091 c-6 -3 -10 -92 -10 -224 l0 -218 60 3 61 3 0 80 c1 79 1
80 27 81 14 1 31 4 38 8 6 4 11 3 11 -2 0 -9 80 -5 90 4 2 3 5 24 6 48 l2 43
-57 1 c-126 1 -117 -2 -116 40 l0 37 85 2 c47 1 88 2 92 2 4 1 6 22 5 49 l-2
47 -141 1 c-78 1 -146 -1 -151 -5z"/>
<path d="M1327 1093 c-2 -5 -4 -106 -5 -226 l0 -218 61 3 62 3 0 73 c0 39 2
72 5 72 14 -1 30 -21 62 -80 l36 -65 61 -3 c33 -2 61 0 61 4 0 3 -21 40 -46
81 -45 71 -46 74 -28 88 11 8 22 15 26 15 4 0 16 17 27 38 37 72 4 177 -64
203 -34 13 -252 23 -258 12z m203 -109 c9 -10 13 -29 11 -56 -1 -17 -29 -30
-68 -32 -27 -2 -25 -5 -28 56 l-1 47 39 -3 c21 -2 42 -7 47 -12z"/>
<path d="M1724 1088 c-2 -4 -4 -19 -4 -35 0 -15 0 -39 -1 -53 0 -14 3 -36 6
-48 3 -13 2 -21 -2 -19 -7 4 -9 -46 -3 -63 1 -3 1 -34 1 -70 -1 -36 -2 -72 -2
-80 2 -78 -4 -71 63 -68 l62 3 -2 95 c-1 52 -4 113 -7 135 l-6 40 29 -52 c41
-71 70 -106 91 -110 19 -3 68 58 102 126 16 32 18 33 18 11 0 -14 -4 -51 -8
-83 -4 -32 -4 -60 0 -63 5 -3 5 -14 0 -25 -4 -12 -5 -34 -3 -50 4 -28 6 -29
62 -29 48 0 58 3 63 19 2 10 0 26 -5 35 -5 9 -5 16 -1 16 6 0 8 213 4 362 -1
13 -12 16 -60 16 l-60 -1 -53 -78 c-29 -44 -56 -79 -60 -79 -3 0 -10 9 -13 20
-3 11 -11 20 -16 20 -5 0 -9 5 -9 10 0 14 -39 69 -64 93 -14 13 -33 17 -69 15
-27 -2 -51 -6 -53 -10z"/>
<path d="M2599 1091 c-5 -34 -2 -91 6 -94 6 -2 31 -2 58 -1 37 1 47 -2 48 -15
1 -9 1 -87 0 -173 l-1 -158 60 0 c50 0 60 3 61 18 0 9 2 87 2 172 l2 155 58 0
57 -1 0 52 0 52 -175 -1 c-96 0 -175 -3 -176 -6z"/>
<path d="M2998 1087 c-2 -7 -4 -106 -3 -222 l0 -210 54 -3 c30 -2 57 1 60 7 4
5 6 106 6 223 l0 213 -57 1 c-35 1 -58 -2 -60 -9z"/>
<path d="M3609 1072 c-4 -127 -3 -406 2 -414 3 -5 30 -8 60 -6 l54 3 0 85 c1
47 -2 102 -6 123 -7 41 5 60 16 24 4 -12 8 -24 10 -27 19 -43 38 -77 75 -137
l45 -73 63 0 62 0 0 225 0 224 -62 -2 -63 -2 2 -95 c1 -52 5 -115 8 -140 5
-40 -1 -32 -60 85 -36 72 -72 135 -81 142 -9 6 -40 12 -70 12 -52 0 -54 -2
-55 -27z"/>
</g>
</svg>
